<?xml version="1.0" encoding="UTF-8" standalone="no"?>
<!-- Created with Inkscape (http://www.inkscape.org/) -->

<svg
   xmlns:dc="http://purl.org/dc/elements/1.1/"
   xmlns:cc="http://creativecommons.org/ns#"
   xmlns:rdf="http://www.w3.org/1999/02/22-rdf-syntax-ns#"
   xmlns:svg="http://www.w3.org/2000/svg"
   xmlns="http://www.w3.org/2000/svg"
   xmlns:sodipodi="http://sodipodi.sourceforge.net/DTD/sodipodi-0.dtd"
   xmlns:inkscape="http://www.inkscape.org/namespaces/inkscape"
   width="32"
   height="32"
   id="svg2"
   version="1.1"
   inkscape:version="0.48.1 "
   sodipodi:docname="qfextensiontmclfilterchanger.svg"
   inkscape:export-filename="qfextensiontmclfilterchanger.png"
   inkscape:export-xdpi="90"
   inkscape:export-ydpi="90">
  <defs
     id="defs4" />
  <sodipodi:namedview
     id="base"
     pagecolor="#ffffff"
     bordercolor="#666666"
     borderopacity="1.0"
     inkscape:pageopacity="0.0"
     inkscape:pageshadow="2"
     inkscape:zoom="7.9195959"
     inkscape:cx="-1.1646689"
     inkscape:cy="-11.214962"
     inkscape:document-units="px"
     inkscape:current-layer="layer1"
     showgrid="false"
     inkscape:window-width="1680"
     inkscape:window-height="988"
     inkscape:window-x="1272"
     inkscape:window-y="-8"
     inkscape:window-maximized="1" />
  <metadata
     id="metadata7">
    <rdf:RDF>
      <cc:Work
         rdf:about="">
        <dc:format>image/svg+xml</dc:format>
        <dc:type
           rdf:resource="http://purl.org/dc/dcmitype/StillImage" />
        <dc:title></dc:title>
      </cc:Work>
    </rdf:RDF>
  </metadata>
  <g
     inkscape:label="Ebene 1"
     inkscape:groupmode="layer"
     id="layer1"
     transform="translate(0,-1020.3622)">
    <path
       sodipodi:type="arc"
       style="fill:#000000;fill-opacity:1;stroke:none"
       id="path2985"
       sodipodi:cx="16.225574"
       sodipodi:cy="16.468904"
       sodipodi:rx="11.553619"
       sodipodi:ry="11.553619"
       d="m 27.779194,16.468904 a 11.553619,11.553619 0 1 1 -23.1072389,0 11.553619,11.553619 0 1 1 23.1072389,0 z"
       transform="matrix(1.3306011,0,0,1.3306011,-5.5220292,1014.5703)" />
    <path
       sodipodi:type="arc"
       style="fill:#ff0000;fill-opacity:1;stroke:none"
       id="path3755"
       sodipodi:cx="-12.248099"
       sodipodi:cy="6.9355898"
       sodipodi:rx="3.4723995"
       sodipodi:ry="3.4723995"
       d="m -8.7756999,6.9355898 a 3.4723995,3.4723995 0 1 1 -6.9447991,0 3.4723995,3.4723995 0 1 1 6.9447991,0 z"
       transform="matrix(0.8660254,-0.5,0.5,0.8660254,13.969113,1029.9093)" />
    <path
       transform="matrix(0.8660254,-0.5,0.5,0.8660254,32.887048,1018.987)"
       d="m -8.7756999,6.9355898 a 3.4723995,3.4723995 0 1 1 -6.9447991,0 3.4723995,3.4723995 0 1 1 6.9447991,0 z"
       sodipodi:ry="3.4723995"
       sodipodi:rx="3.4723995"
       sodipodi:cy="6.9355898"
       sodipodi:cx="-12.248099"
       id="path3775"
       style="fill:#00ffff;fill-opacity:1;stroke:none"
       sodipodi:type="arc" />
    <path
       transform="matrix(0,-1,1,0,9.3531204,1035.2528)"
       d="m -8.7756999,6.9355898 a 3.4723995,3.4723995 0 1 1 -6.9447991,0 3.4723995,3.4723995 0 1 1 6.9447991,0 z"
       sodipodi:ry="3.4723995"
       sodipodi:rx="3.4723995"
       sodipodi:cy="6.9355898"
       sodipodi:cx="-12.248099"
       id="path3777"
       style="fill:#00ff00;fill-opacity:1;stroke:none"
       sodipodi:type="arc" />
    <path
       sodipodi:type="arc"
       style="fill:#800080;fill-opacity:1;stroke:none"
       id="path3779"
       sodipodi:cx="-12.248099"
       sodipodi:cy="6.9355898"
       sodipodi:rx="3.4723995"
       sodipodi:ry="3.4723995"
       d="m -8.7756999,6.9355898 a 3.4723995,3.4723995 0 1 1 -6.9447991,0 3.4723995,3.4723995 0 1 1 6.9447991,0 z"
       transform="matrix(0,-1,1,0,9.3531204,1013.4082)" />
    <path
       transform="matrix(0.8660254,0.5,-0.5,0.8660254,20.904692,1031.2351)"
       d="m -8.7756999,6.9355898 a 3.4723995,3.4723995 0 1 1 -6.9447991,0 3.4723995,3.4723995 0 1 1 6.9447991,0 z"
       sodipodi:ry="3.4723995"
       sodipodi:rx="3.4723995"
       sodipodi:cy="6.9355898"
       sodipodi:cx="-12.248099"
       id="path3781"
       style="fill:#800000;fill-opacity:1;stroke:none"
       sodipodi:type="arc" />
    <path
       sodipodi:type="arc"
       style="fill:#0000ff;fill-opacity:1;stroke:none"
       id="path3783"
       sodipodi:cx="-12.248099"
       sodipodi:cy="6.9355898"
       sodipodi:rx="3.4723995"
       sodipodi:ry="3.4723995"
       d="m -8.7756999,6.9355898 a 3.4723995,3.4723995 0 1 1 -6.9447991,0 3.4723995,3.4723995 0 1 1 6.9447991,0 z"
       transform="matrix(0.8660254,0.5,-0.5,0.8660254,39.822649,1042.1574)" />
  </g>
</svg>
