<?xml version="1.0" encoding="UTF-8" standalone="no"?>
<!-- Created with Inkscape (http://www.inkscape.org/) -->

<svg
   xmlns:dc="http://purl.org/dc/elements/1.1/"
   xmlns:cc="http://creativecommons.org/ns#"
   xmlns:rdf="http://www.w3.org/1999/02/22-rdf-syntax-ns#"
   xmlns:svg="http://www.w3.org/2000/svg"
   xmlns="http://www.w3.org/2000/svg"
   xmlns:xlink="http://www.w3.org/1999/xlink"
   xmlns:sodipodi="http://sodipodi.sourceforge.net/DTD/sodipodi-0.dtd"
   xmlns:inkscape="http://www.inkscape.org/namespaces/inkscape"
   width="88"
   height="88"
   id="svg1307"
   sodipodi:version="0.32"
   inkscape:version="0.48.1 "
   version="1.0"
   sodipodi:docname="qffcsmaxentevaluation.svg"
   inkscape:output_extension="org.inkscape.output.svgz.inkscape"
   inkscape:export-filename="qffcsmaxentevaluation_small.png"
   inkscape:export-xdpi="16.360001"
   inkscape:export-ydpi="16.360001">
  <defs
     id="defs1309">
    <linearGradient
       id="linearGradient6740">
      <stop
         style="stop-color:#004d00;stop-opacity:0;"
         offset="0"
         id="stop6742" />
      <stop
         id="stop6748"
         offset="0.5"
         style="stop-color:#004d00;stop-opacity:1;" />
      <stop
         style="stop-color:#004d00;stop-opacity:0;"
         offset="1"
         id="stop6744" />
    </linearGradient>
    <linearGradient
       gradientTransform="matrix(0,1,-1,0,-39.9985,140.0029)"
       y2="-383.9975"
       x2="-23.516129"
       y1="-383.9971"
       x1="-84.002403"
       gradientUnits="userSpaceOnUse"
       id="linearGradient3711">
      <stop
         id="stop3713"
         style="stop-color:white;stop-opacity:1;"
         offset="0" />
      <stop
         id="stop3715"
         style="stop-color:white;stop-opacity:0;"
         offset="1" />
    </linearGradient>
    <clipPath
       clipPathUnits="userSpaceOnUse"
       id="clipPath5163">
      <circle
         sodipodi:ry="36"
         sodipodi:rx="36"
         sodipodi:cy="92"
         sodipodi:cx="343.99899"
         style="fill:url(#linearGradient5167);fill-opacity:1"
         r="36"
         rx="8.0010004"
         cx="343.99899"
         cy="92"
         ry="8.0010004"
         id="circle5165" />
    </clipPath>
    <linearGradient
       id="linearGradient4296">
      <stop
         id="stop4298"
         offset="0"
         style="stop-color:#00ff00;stop-opacity:1" />
      <stop
         id="stop4300"
         offset="1"
         style="stop-color:#006500;stop-opacity:1" />
    </linearGradient>
    <linearGradient
       inkscape:collect="always"
       xlink:href="#linearGradient4296"
       id="linearGradient6831"
       gradientUnits="userSpaceOnUse"
       x1="328.12448"
       y1="120.81158"
       x2="336.98077"
       y2="87.759453" />
    <linearGradient
       gradientTransform="matrix(0,1,-1,0,-39.9985,140.0029)"
       y2="-383.9971"
       x2="-12.0029"
       y1="-383.9971"
       x1="-84.002403"
       gradientUnits="userSpaceOnUse"
       id="linearGradient4770">
      <stop
         id="stop4772"
         style="stop-color:#e5ff00;stop-opacity:1"
         offset="0" />
      <stop
         id="stop4774"
         style="stop-color:#bff500;stop-opacity:0;"
         offset="1" />
    </linearGradient>
    <linearGradient
       gradientTransform="matrix(0,1,-1,0,-39.9985,140.0029)"
       y2="-383.9971"
       x2="-12.0029"
       y1="-383.9971"
       x1="-84.002403"
       gradientUnits="userSpaceOnUse"
       id="linearGradient5958">
      <stop
         id="stop5960"
         style="stop-color:#008c00;stop-opacity:1"
         offset="0" />
      <stop
         id="stop5962"
         style="stop-color:#00bf00;stop-opacity:1"
         offset="1" />
    </linearGradient>
    <linearGradient
       id="XMLID_2_"
       gradientUnits="userSpaceOnUse"
       x1="28"
       y1="57.5"
       x2="28"
       y2="0">
      <stop
         offset="0"
         style="stop-color:#FFEA00"
         id="stop12" />
      <stop
         offset="1"
         style="stop-color:#FFCC00"
         id="stop14" />
    </linearGradient>
    <linearGradient
       y2="0"
       x2="28"
       y1="57.5"
       x1="28"
       gradientUnits="userSpaceOnUse"
       id="linearGradient18668">
      <stop
         id="stop18670"
         style="stop-color:#fffccf;stop-opacity:1;"
         offset="0" />
      <stop
         id="stop18672"
         style="stop-color:white;stop-opacity:0;"
         offset="1" />
    </linearGradient>
    <linearGradient
       id="path101_1_"
       gradientUnits="userSpaceOnUse"
       x1="398.44479"
       y1="-369.5"
       x2="392.9447"
       y2="-363.99991"
       gradientTransform="matrix(1,0,0,-1,-281.9995,-305)">
      <stop
         offset="0"
         style="stop-color:#888A85"
         id="stop74" />
      <stop
         offset="0.0072"
         style="stop-color:#8C8E89"
         id="stop4208" />
      <stop
         offset="0.0673"
         style="stop-color:#ABACA9"
         id="stop4210" />
      <stop
         offset="0.1347"
         style="stop-color:#C5C6C4"
         id="stop80" />
      <stop
         offset="0.2115"
         style="stop-color:#DBDBDA"
         id="stop82" />
      <stop
         offset="0.3012"
         style="stop-color:#EBEBEB"
         id="stop84" />
      <stop
         offset="0.4122"
         style="stop-color:#F7F7F6"
         id="stop86" />
      <stop
         offset="0.5679"
         style="stop-color:#FDFDFD"
         id="stop88" />
      <stop
         offset="1"
         style="stop-color:#FFFFFF"
         id="stop90" />
    </linearGradient>
    <radialGradient
       id="path59_1_"
       cx="402.76709"
       cy="-375.27051"
       r="94.664803"
       gradientTransform="matrix(1,0,0,-1,-281.9995,-305)"
       gradientUnits="userSpaceOnUse">
      <stop
         offset="0"
         style="stop-color:#535557"
         id="stop38" />
      <stop
         offset="0.07095145"
         style="stop-color:#898A8C"
         id="stop40" />
      <stop
         offset="0.203"
         style="stop-color:#ECECEC"
         id="stop42" />
      <stop
         offset="0.2363"
         style="stop-color:#FAFAFA"
         id="stop44" />
      <stop
         offset="0.2722"
         style="stop-color:#FFFFFF"
         id="stop46" />
      <stop
         offset="0.5313"
         style="stop-color:#FAFAFA"
         id="stop48" />
      <stop
         offset="0.8449"
         style="stop-color:#EBECEC"
         id="stop50" />
      <stop
         offset="1"
         style="stop-color:#E1E2E3"
         id="stop52" />
    </radialGradient>
    <filter
       inkscape:collect="always"
       id="filter3505">
      <feGaussianBlur
         inkscape:collect="always"
         stdDeviation="0.74"
         id="feGaussianBlur3507" />
    </filter>
    <filter
       inkscape:collect="always"
       id="filter4926">
      <feGaussianBlur
         inkscape:collect="always"
         stdDeviation="0.45161413"
         id="feGaussianBlur4928" />
    </filter>
    <radialGradient
       inkscape:collect="always"
       xlink:href="#path59_1_"
       id="radialGradient4940"
       gradientUnits="userSpaceOnUse"
       gradientTransform="matrix(1.00086,0,0,-1,-485.7967,-300.5)"
       cx="402.76709"
       cy="-375.27051"
       r="94.664803" />
    <linearGradient
       inkscape:collect="always"
       xlink:href="#path101_1_"
       id="linearGradient4942"
       gradientUnits="userSpaceOnUse"
       gradientTransform="matrix(1.00086,0,0,-1,-485.7967,-300.5)"
       x1="398.44479"
       y1="-369.5"
       x2="393.59644"
       y2="-364.65219" />
    <linearGradient
       inkscape:collect="always"
       xlink:href="#linearGradient5958"
       id="linearGradient10617"
       gradientUnits="userSpaceOnUse"
       gradientTransform="matrix(0,1,-1,0,-39.9985,140.0029)"
       x1="-86.120354"
       y1="-381.09921"
       x2="-56.357521"
       y2="-373.1243" />
    <radialGradient
       inkscape:collect="always"
       xlink:href="#linearGradient4770"
       id="radialGradient10619"
       gradientUnits="userSpaceOnUse"
       cx="343.99899"
       cy="92"
       fx="343.99899"
       fy="92"
       r="36" />
    <linearGradient
       inkscape:collect="always"
       xlink:href="#linearGradient4296"
       id="linearGradient10621"
       gradientUnits="userSpaceOnUse"
       x1="328.12448"
       y1="120.81158"
       x2="336.98077"
       y2="87.759453" />
    <linearGradient
       inkscape:collect="always"
       xlink:href="#linearGradient3711"
       id="linearGradient10623"
       gradientUnits="userSpaceOnUse"
       gradientTransform="matrix(0,0.5998932,-0.600267,0,36.376166,288.27268)"
       x1="-80.00296"
       y1="-131.93112"
       x2="-45.096584"
       y2="-131.93112" />
    <linearGradient
       inkscape:collect="always"
       xlink:href="#linearGradient6740"
       id="linearGradient10625"
       gradientUnits="userSpaceOnUse"
       gradientTransform="translate(20.000035,-56.000003)"
       x1="102"
       y1="118"
       x2="102"
       y2="65.932846" />
    <linearGradient
       inkscape:collect="always"
       xlink:href="#path101_1_"
       id="linearGradient3878"
       gradientUnits="userSpaceOnUse"
       gradientTransform="matrix(1.00086,0,0,-1,-485.7967,-296.5)"
       x1="398.44479"
       y1="-369.5"
       x2="393.59644"
       y2="-364.65219" />
    <radialGradient
       inkscape:collect="always"
       xlink:href="#path59_1_"
       id="radialGradient3882"
       gradientUnits="userSpaceOnUse"
       gradientTransform="matrix(1.00086,0,0,-1,-477.7967,-296.5)"
       cx="402.76709"
       cy="-375.27051"
       r="94.664803" />
  </defs>
  <sodipodi:namedview
     id="base"
     pagecolor="#ffffff"
     bordercolor="#666666"
     borderopacity="1.0"
     inkscape:pageopacity="0.0"
     inkscape:pageshadow="2"
     inkscape:zoom="7.1961619"
     inkscape:cx="32.361542"
     inkscape:cy="34.983093"
     inkscape:current-layer="g4320"
     showgrid="true"
     inkscape:document-units="px"
     inkscape:grid-bbox="true"
     showguides="true"
     inkscape:guide-bbox="true"
     inkscape:window-width="1680"
     inkscape:window-height="988"
     inkscape:window-x="1272"
     inkscape:window-y="-8"
     height="96px"
     width="96px"
     inkscape:grid-points="true"
     inkscape:window-maximized="1">
    <inkscape:grid
       id="GridFromPre046Settings"
       type="xygrid"
       originx="0px"
       originy="0px"
       spacingx="4px"
       spacingy="4px"
       color="#0000ff"
       empcolor="#0000ff"
       opacity="0.2"
       empopacity="0.4"
       empspacing="0" />
  </sodipodi:namedview>
  <metadata
     id="metadata1312">
    <rdf:RDF>
      <cc:Work
         rdf:about="">
        <dc:format>image/svg+xml</dc:format>
        <dc:type
           rdf:resource="http://purl.org/dc/dcmitype/StillImage" />
        <dc:title></dc:title>
      </cc:Work>
    </rdf:RDF>
  </metadata>
  <g
     id="layer1"
     inkscape:label="Layer 1"
     inkscape:groupmode="layer">
    <g
       id="g4320"
       transform="translate(144,0)">
      <path
         inkscape:connector-curvature="0"
         sodipodi:nodetypes="cccccccc"
         style="opacity:0.5;fill:#000000;fill-opacity:1;filter:url(#filter3505)"
         d="m -134,6 1e-5,80 42.533194,0 c 0.388142,0 0.754938,-0.157106 1.029297,-0.427632 l 24.005858,-23.75 C -66.157281,61.55079 -66,61.186842 -66,60.802632 L -66,6 -134,6 z"
         id="path2532" />
      <path
         inkscape:connector-curvature="0"
         id="path59"
         d="m -132.00001,8 1e-5,76 40.031239,0 c 0.365314,0 0.710527,-0.14925 0.96875,-0.40625 l 22.59375,-22.5625 c 0.258221,-0.258 0.40625,-0.60375 0.40625,-0.96875 l 0,-52.0625 -63.999999,0 z"
         style="fill:url(#radialGradient3882)"
         sodipodi:nodetypes="cccccccc" />
      <g
         id="g4003"
         transform="matrix(0.52864241,0,0,0.26581695,-163.34478,1.9529903)">
        <path
           id="path3356-4"
           d="m 67.351426,52.074598 c -0.632556,1.415565 2.129572,3.381253 0,0 -0.632847,-1.004807 1.499384,1.916676 1.755197,3.13518 0.241344,1.149601 1.170128,-5.484166 1.170128,1.393416 0,1.398239 1.92828,-1.668234 2.63279,-2.786827 0.576219,-0.914906 0.238434,2.857808 1.170129,3.135177 2.354514,0.700951 -0.921851,-6.724117 2.047728,0.348356 0.272122,0.648097 1.511831,-0.05857 2.340265,-1.045059 0.284279,-0.338541 1.170123,-0.130421 1.170123,0.348353 0,5.460403 1.157034,-0.09531 1.755194,-1.04506 0.190191,-0.301982 0.392722,7.425139 2.04773,3.483536 1.823303,-4.342479 0.668212,0.146686 1.170124,3.135182 0.262185,1.56105 2.340265,-7.832357 2.340265,-2.786832 0,5.95163 0.847653,5.296613 2.632799,1.045065 0.515284,-1.22726 0.369997,7.827602 1.755178,4.528595 1.998973,-4.760838 0.796523,-1.17942 1.462675,2.786828 0.116284,0.692599 0.436378,-1.404897 0.292519,-2.090121 -0.274346,-1.306799 -0.631136,8.121879 0.58507,5.225304 1.921811,-4.577082 0.821458,1.536504 2.04773,3.483536 0.03871,0.06156 1.755194,-8.093778 1.755194,0.348353 0,6.125079 3.306096,-3.345359 0.877589,2.438475 -2.094542,4.988451 0.901559,-0.114084 0.292535,2.786829 -1.181969,5.630079 1.462662,5.9079 1.462662,0 0,-2.177071 -1.013992,5.008741 0.8776,8.012131 0.0241,0.03816 0.58507,-3.554348 0.58507,0 0,2.136232 2.90447,4.802497 3.80291,8.012132 0.15731,0.561704 0.19502,1.161177 0.29253,1.741767 0.0646,0.384898 0.21053,-1.588753 1.46266,1.393415 1.21893,2.903021 2.19767,1.375971 2.6328,-0.696708 0.0301,-0.143072 -0.59437,8.415869 0.58507,1.393418 0.11695,-0.696828 -0.79928,5.174281 2.34025,5.922011 2.32297,0.55325 1.47774,-7.574057 2.92534,1.04506 0.52643,3.13447 3.04479,-2.23239 3.21785,-2.43848 0.80408,-0.95753 1.24664,4.69473 1.75519,3.48354 1.07405,-2.558 0.28194,6.28719 2.92532,2.09012 1.44465,-2.29377 -1.05586,5.78594 1.7552,2.43848 2.30441,-2.74416 0.30801,2.52095 2.92531,1.74177 1.89994,-0.56562 -0.0366,-2.72883 2.34027,1.04506 1.06912,1.6975 1.25797,-8.29047 2.6328,-1.74177 0.92388,4.40079 3.11654,-0.98474 4.38798,-1.74177 0.76667,-0.45648 -0.003,5.23034 3.21785,1.39341 0.0472,-0.0562 -0.0862,3.58621 1.75519,1.39342 0.75488,-0.89891 -0.30416,2.8007 2.63279,-0.69671 2.34421,-2.79152 0.29416,0.87185 2.34026,2.09012 2.7501,1.63744 0.0608,-6.6141 3.21787,-0.34835 0.0964,0.19121 1.46266,-6.22751 1.46266,0 0,1.1648 1.27752,-5.50313 2.04773,0 0.12558,0.89763 1.71958,-2.0053 2.34027,-3.48354 1.01835,-2.42537 0.79256,6.32698 1.75517,1.74177 0.0528,-0.2519 0.19504,0.46447 0.29255,0.69671"
           style="fill:none;stroke:#ff0000;stroke-width:5.36258364;stroke-linecap:butt;stroke-linejoin:miter;stroke-miterlimit:4;stroke-opacity:1;stroke-dasharray:none"
           inkscape:connector-curvature="0" />
        <path
           sodipodi:nodetypes="czzzzc"
           inkscape:connector-curvature="0"
           id="path3172"
           d="m 68.41134,53.733759 c 0,0 14.515429,0.304222 22.021936,7.858327 7.506508,7.554107 7.203618,13.353286 10.431444,23.988582 3.22783,10.635295 8.41986,16.212492 16.03351,22.127402 7.61366,5.91491 19.1761,6.36468 26.46497,7.23793 7.28886,0.87325 14.29494,0 14.29494,0"
           style="fill:none;stroke:#0000ff;stroke-width:1.13063812px;stroke-linecap:butt;stroke-linejoin:miter;stroke-opacity:1" />
      </g>
      <path
         style="fill:none;stroke:#ff0000;stroke-width:3.79626751;stroke-linecap:butt;stroke-linejoin:miter;stroke-miterlimit:4;stroke-opacity:1;stroke-dasharray:none"
         d="m -128,49.783621 c 8.51598,0 8.51598,-8.533333 12.77396,-8.533333 4.25798,0 4.25798,21.333333 8.51597,21.333333 4.25799,0 6.38698,-17.066667 8.515975,-17.066667 4.257986,0 0,17.066667 4.257986,21.333334 4.257987,4.266667 4.257987,4.266667 12.77396,4.266667"
         id="path3068"
         inkscape:connector-curvature="0"
         sodipodi:nodetypes="cssssc" />
      <g
         id="g3885"
         transform="translate(8,0)">
        <path
           transform="matrix(1.0561473,0,0,1.0633114,5.1530869,-1.7007749)"
           id="path4924"
           d="m -99.99277,80.598 c 0,0 8.198044,-6.816 11.983298,-10.598 3.785253,-3.782 10.607115,-11.973 10.607115,-11.973 C -77.402357,58.027 -85,61 -97,61 c 0,12 -2.99277,19.598 -2.99277,19.598 z"
           style="opacity:0.5;fill:#000000;fill-opacity:1;filter:url(#filter4926)"
           sodipodi:nodetypes="csccc"
           inkscape:connector-curvature="0" />
        <path
           sodipodi:nodetypes="csccc"
           style="fill:url(#linearGradient3878)"
           d="m -98.99277,83.598 c 0,0 8.198044,-6.816 11.983298,-10.598 3.785253,-3.782 10.607115,-11.973 10.607115,-11.973 C -76.402357,61.027 -84,64 -96,64 c 0,12 -2.99277,19.598 -2.99277,19.598 z"
           id="path101"
           inkscape:connector-curvature="0" />
      </g>
      <text
         xml:space="preserve"
         style="font-size:47.96887589px;font-style:normal;font-weight:normal;line-height:125%;letter-spacing:0px;word-spacing:0px;fill:#0000ff;fill-opacity:1;stroke:none;font-family:Sans"
         x="-88.853119"
         y="34.033695"
         id="text3063"
         sodipodi:linespacing="125%"
         transform="scale(0.94538046,1.0577752)"><tspan
           sodipodi:role="line"
           id="tspan3067"
           style="fill:#0000ff;font-family:serif;-inkscape-font-specification:serif"
           x="-88.853119"
           y="34.033695">Σ</tspan></text>
    </g>
    <rect
       style="opacity:0.57786889;fill:#ffffff;fill-opacity:1;fill-rule:nonzero;stroke:none;stroke-width:3.63199997;stroke-linecap:round;stroke-linejoin:round;stroke-miterlimit:4;stroke-dasharray:none;stroke-dashoffset:4;stroke-opacity:1"
       id="rect1327"
       width="1"
       height="0"
       x="108"
       y="77" />
    <path
       sodipodi:nodetypes="ccc"
       id="path2276"
       d="M -50.937421,3.7839329 L -50.937421,0.98922447 L -50.937421,3.7839329 z"
       style="fill:#ffffff;fill-opacity:0.75688076;fill-rule:nonzero;stroke:none;stroke-width:0.5;stroke-linecap:round;stroke-linejoin:round;stroke-miterlimit:4;stroke-dasharray:none;stroke-dashoffset:4;stroke-opacity:1" />
    <g
       style="opacity:0.40163933"
       transform="matrix(-0.782995,0,0,0.650879,-2373.796,690.3016)"
       id="g4640" />
    <g
       id="g4646"
       transform="matrix(-0.782995,0,0,0.650879,-2373.796,690.3016)"
       style="opacity:0.40163933" />
    <g
       id="g4730"
       transform="matrix(1,0,0,0.650879,827.167,697.6294)"
       style="opacity:0.40163933" />
    <g
       style="opacity:0.40163933"
       transform="matrix(1,0,0,0.650879,827.167,697.6294)"
       id="g4748" />
    <path
       sodipodi:nodetypes="ccc"
       id="path2408"
       d="m 61.23105,2.6244365 0,-2.20546934 0,2.20546934 z"
       style="fill:#ffffff;fill-opacity:0.75688076;fill-rule:nonzero;stroke:none"
       inkscape:connector-curvature="0" />
  </g>
</svg>
