<?xml version="1.0" encoding="UTF-8" standalone="no"?>
<!-- Created with Inkscape (http://www.inkscape.org/) -->

<svg
   xmlns:dc="http://purl.org/dc/elements/1.1/"
   xmlns:cc="http://creativecommons.org/ns#"
   xmlns:rdf="http://www.w3.org/1999/02/22-rdf-syntax-ns#"
   xmlns:svg="http://www.w3.org/2000/svg"
   xmlns="http://www.w3.org/2000/svg"
   xmlns:xlink="http://www.w3.org/1999/xlink"
   xmlns:sodipodi="http://sodipodi.sourceforge.net/DTD/sodipodi-0.dtd"
   xmlns:inkscape="http://www.inkscape.org/namespaces/inkscape"
   width="32"
   height="32"
   id="svg2"
   version="1.1"
   inkscape:version="0.48.4 r9939"
   sodipodi:docname="lightsource_spectrum.svg"
   inkscape:export-filename="lightsource_spectrum.png"
   inkscape:export-xdpi="45"
   inkscape:export-ydpi="45">
  <defs
     id="defs4" />
  <sodipodi:namedview
     id="base"
     pagecolor="#ffffff"
     bordercolor="#666666"
     borderopacity="1.0"
     inkscape:pageopacity="0.0"
     inkscape:pageshadow="2"
     inkscape:zoom="7.919596"
     inkscape:cx="-36.035179"
     inkscape:cy="-9.2818362"
     inkscape:document-units="px"
     inkscape:current-layer="layer1"
     showgrid="false"
     inkscape:window-width="1920"
     inkscape:window-height="1018"
     inkscape:window-x="-8"
     inkscape:window-y="-8"
     inkscape:window-maximized="1" />
  <metadata
     id="metadata7">
    <rdf:RDF>
      <cc:Work
         rdf:about="">
        <dc:format>image/svg+xml</dc:format>
        <dc:type
           rdf:resource="http://purl.org/dc/dcmitype/StillImage" />
        <dc:title></dc:title>
      </cc:Work>
    </rdf:RDF>
  </metadata>
  <g
     inkscape:label="Ebene 1"
     inkscape:groupmode="layer"
     id="layer1"
     transform="translate(0,-1020.3622)">
    <g
       id="g5892"
       transform="matrix(0.78283375,0,0,0.78283375,-21.544426,1013.63)">
      <path
         sodipodi:nodetypes="csc"
         id="path2484"
         d="m 55.903039,31.193671 c 0,-1.44541 0.13068,-5.29545 -2,-7 -5,-4 -3,-13 5,-13"
         style="fill:none;stroke:#000000;stroke-width:2;stroke-miterlimit:4;stroke-opacity:1;stroke-dasharray:none"
         inkscape:connector-curvature="0" />
      <use
         style="stroke:#000000"
         height="48"
         width="48"
         transform="matrix(-1,0,0,1,117.66989,1.3151445e-6)"
         id="use2488"
         xlink:href="#path2484"
         y="0"
         x="0" />
      <path
         sodipodi:nodetypes="cccccc"
         d="m 55.903039,36.193671 5.5,-1 m -5.5,3 5.5,-1 m -5.5,-3 5.5,-1"
         style="fill:#3465a4;fill-opacity:1;stroke:#204a87;stroke-width:0.75;stroke-miterlimit:4;stroke-opacity:1;stroke-dasharray:none"
         id="path2531"
         inkscape:connector-curvature="0" />
      <path
         sodipodi:nodetypes="ccccc"
         id="path2538"
         d="m 60.887409,38.874071 -1.71875,1.4446 -1.78125,-0.82548 -0.28125,-0.53896 c 0.73249,-0.26823 2.6386,-0.16911 3.78125,-0.0802 z"
         style="fill:#cc0000;fill-opacity:1;stroke:none"
         inkscape:connector-curvature="0" />
      <path
         sodipodi:nodetypes="cscsc"
         d="m 59.403039,31.193671 c 0,-3.92077 0,-6 0,-8 0,-2.18527 3.5,-3 -0.5,-3 -4,0 -0.5,0.81473 -0.5,3 0,2 0,4.07923 0,8"
         style="fill:#204a87;fill-opacity:1;stroke:#000000;stroke-width:0.75;stroke-linecap:round;stroke-linejoin:round;stroke-miterlimit:4;stroke-opacity:1;stroke-dasharray:none"
         id="path3313"
         inkscape:connector-curvature="0" />
      <path
         sodipodi:nodetypes="cccccccccccccccccc"
         d="m 58.903039,40.193671 2.375,-1 1,-1 -1,-1 1,-1 -1,-1 1,-1 -1,-1 c 0,0 0,-1 1,-2 l -6.875,0 c 1,1 1,2 1,2 l -1,1 1,1 -1,1 1,1 -1,1 1,1 2.5,1 z"
         style="fill:none;stroke:#000000;stroke-width:1;stroke-linecap:round;stroke-linejoin:round;stroke-miterlimit:4;stroke-opacity:1;stroke-dasharray:none"
         id="path2527"
         inkscape:connector-curvature="0" />
      <path
         transform="matrix(1,0,0,2.6166925,33.903039,-55.588189)"
         sodipodi:open="true"
         sodipodi:end="5.2216773"
         sodipodi:start="4.1795181"
         d="m 22.459959,36.277296 c 1.530907,-0.36116 3.426048,-0.370099 4.977821,-0.02348"
         sodipodi:ry="2"
         sodipodi:rx="5"
         sodipodi:cy="38"
         sodipodi:cx="25"
         id="path2536"
         style="fill:none;stroke:#000000;stroke-width:0.30909619;stroke-miterlimit:4;stroke-opacity:1;stroke-dasharray:none"
         sodipodi:type="arc" />
      <path
         sodipodi:nodetypes="ccccc"
         d="m 62.903039,19.193671 c 0,0 -1,0 -2,-2 -0.6875,1.125 -2,1 -2,1 0,0 -1.3125,0.125 -2,-1 -1,2 -2,2 -2,2"
         style="fill:none;stroke:#edd400;stroke-width:1;stroke-linecap:round;stroke-linejoin:round;stroke-miterlimit:4;stroke-opacity:1;stroke-dasharray:none"
         id="path3318"
         inkscape:connector-curvature="0" />
    </g>
    <path
       style="fill:none;stroke:#008080;stroke-width:2;stroke-linecap:butt;stroke-linejoin:miter;stroke-opacity:1;stroke-miterlimit:4;stroke-dasharray:none"
       d="m 0.2525381,1045.2912 c 0.42968099,-3.4627 6.0809031,-2.1098 7.7097254,-2.889 2.2779795,-1.0897 1.4292845,-3.9581 1.7826916,-3.9599 0.3534069,-0 0.5845359,5.965 4.6497189,5.5862 3.037111,-0.2831 1.321278,-5.6611 2.777919,-5.5559 1.45664,0.1053 -0.945259,4.0966 2.959268,7.2555 2.445009,1.9782 8.667788,2.1564 12.066751,2.0884"
       id="path3008"
       inkscape:connector-curvature="0"
       sodipodi:nodetypes="cszszsc" />
  </g>
</svg>
