<?xml version="1.0" encoding="UTF-8" standalone="no"?>
<!-- Generator: Adobe Illustrator 10.0.3, SVG Export Plug-In . SVG Version: 3.0.0 Build 77)  -->

<svg
   xmlns:a="http://ns.adobe.com/AdobeSVGViewerExtensions/3.0/"
   xmlns:dc="http://purl.org/dc/elements/1.1/"
   xmlns:cc="http://creativecommons.org/ns#"
   xmlns:rdf="http://www.w3.org/1999/02/22-rdf-syntax-ns#"
   xmlns:svg="http://www.w3.org/2000/svg"
   xmlns="http://www.w3.org/2000/svg"
   xmlns:xlink="http://www.w3.org/1999/xlink"
   xmlns:sodipodi="http://sodipodi.sourceforge.net/DTD/sodipodi-0.dtd"
   xmlns:inkscape="http://www.inkscape.org/namespaces/inkscape"
   width="128"
   height="128"
   viewBox="0 0 128 128"
   overflow="visible"
   enable-background="new 0 0 128 128"
   xml:space="preserve"
   id="svg2"
   version="1.1"
   inkscape:version="0.48.1 "
   sodipodi:docname="www.svg"
   inkscape:export-filename="www.png"
   inkscape:export-xdpi="11.25"
   inkscape:export-ydpi="11.25"><metadata
   id="metadata135"><rdf:RDF><cc:Work
       rdf:about=""><dc:format>image/svg+xml</dc:format><dc:type
         rdf:resource="http://purl.org/dc/dcmitype/StillImage" /><dc:title></dc:title></cc:Work></rdf:RDF></metadata><defs
   id="defs133">
		
		
	
			
			
			<linearGradient
   id="XMLID_4_"
   gradientUnits="userSpaceOnUse"
   x1="28.163601"
   y1="53.351101"
   x2="189.15109"
   y2="138.99651">
				<stop
   offset="0"
   style="stop-color:#FFFFFF"
   id="stop41" />
				<stop
   offset="0.5033"
   style="stop-color:#E7E7E7"
   id="stop43" />
				<stop
   offset="1"
   style="stop-color:#D4D4D4"
   id="stop45" />
				
				
				
			</linearGradient>
			
			
			<linearGradient
   id="XMLID_5_"
   gradientUnits="userSpaceOnUse"
   x1="-4.0225"
   y1="10.6514"
   x2="127.2984"
   y2="10.6514">
				<stop
   offset="0"
   style="stop-color:#B3CAFF"
   id="stop52" />
				<stop
   offset="1"
   style="stop-color:#0053BD"
   id="stop54" />
				
				
				
			</linearGradient>
			
			
			
			
		<linearGradient
   inkscape:collect="always"
   xlink:href="#XMLID_4_"
   id="linearGradient3256"
   gradientUnits="userSpaceOnUse"
   x1="28.163601"
   y1="53.351101"
   x2="189.15109"
   y2="138.99651"
   gradientTransform="matrix(1.4797476,0,0,1.4797476,-31.08089,-36.976397)" /><radialGradient
   inkscape:collect="always"
   xlink:href="#XMLID_6_"
   id="radialGradient3276"
   gradientUnits="userSpaceOnUse"
   cx="59.7188"
   cy="128.7393"
   fx="59.7188"
   fy="128.7393"
   r="47.162899" /><radialGradient
   inkscape:collect="always"
   xlink:href="#XMLID_7_"
   id="radialGradient3278"
   gradientUnits="userSpaceOnUse"
   gradientTransform="matrix(1,0,0,0.9479,0,4.2796)"
   cx="62.9478"
   cy="120.0986"
   fx="62.9478"
   fy="120.0986"
   r="36.608101" /><radialGradient
   inkscape:collect="always"
   xlink:href="#XMLID_8_"
   id="radialGradient3280"
   gradientUnits="userSpaceOnUse"
   cx="63.7197"
   cy="69.298798"
   fx="63.7197"
   fy="69.298798"
   r="39.8027" /><linearGradient
   inkscape:collect="always"
   xlink:href="#XMLID_9_"
   id="linearGradient3282"
   gradientUnits="userSpaceOnUse"
   x1="64.414597"
   y1="30.757299"
   x2="64.414597"
   y2="73.405403" /></defs><sodipodi:namedview
   pagecolor="#ffffff"
   bordercolor="#666666"
   borderopacity="1"
   objecttolerance="10"
   gridtolerance="10"
   guidetolerance="10"
   inkscape:pageopacity="0"
   inkscape:pageshadow="2"
   inkscape:window-width="640"
   inkscape:window-height="480"
   id="namedview131"
   showgrid="false"
   inkscape:zoom="2.4453125"
   inkscape:cx="64"
   inkscape:cy="64"
   inkscape:window-x="1280"
   inkscape:window-y="-25"
   inkscape:window-maximized="0"
   inkscape:current-layer="svg2" />
	<path
   d="M 75.694739,86.156362 V 67.388723 C 63.016261,72.680301 49.173222,75.73154 34.658378,75.993456 v 10.161427 h 41.036361 z"
   id="path38"
   inkscape:connector-curvature="0"
   style="fill:none" /><path
   d="M 75.694739,55.382051 H 34.658378 V 75.994936 C 49.173222,75.73154 63.016261,72.681781 75.694739,67.390203 V 55.382051 z"
   id="path47"
   style="fill:url(#linearGradient3256)"
   inkscape:connector-curvature="0" /><path
   d="m 98.704815,76.520246 c 0,2.496334 0.64221,4.354897 1.928115,5.580128 1.28294,1.225231 3.23324,1.836367 5.84352,1.836367 3.72896,0 6.39251,-0.606697 7.98768,-1.824529 1.59516,-1.217832 2.39423,-3.541036 2.39423,-6.968131 V 74.016513 62.063112 c -6.42655,1.28738 -11.05816,3.063077 -13.89779,5.330051 -2.83668,2.264013 -4.255755,5.304895 -4.255755,9.127083 z"
   id="path49"
   inkscape:connector-curvature="0"
   style="fill:none" /><g
   id="g58"
   transform="matrix(1.4797476,0,0,1.4797476,-31.08089,-36.976397)">
				
					<radialGradient
   id="XMLID_6_"
   cx="59.7188"
   cy="128.7393"
   r="47.162899"
   fx="59.7188"
   fy="128.7393"
   gradientUnits="userSpaceOnUse">
					<stop
   offset="0"
   style="stop-color:#B8BBDA"
   id="stop61" />
					<stop
   offset="1"
   style="stop-color:#0D2D7D"
   id="stop63" />
					
					
					
				</radialGradient>
				<path
   d="m 63.928,110.319 c 23.064,0 41.766,-18.792 41.766,-41.841 0,-22.905 -18.701,-41.696 -41.766,-41.696 -22.897,0 -41.763,18.792 -41.763,41.696 0,23.049 18.866,41.841 41.763,41.841 z"
   id="path65"
   style="fill:url(#radialGradient3276)"
   inkscape:connector-curvature="0" />
				
					<radialGradient
   id="XMLID_7_"
   cx="62.9478"
   cy="120.0986"
   r="36.608101"
   fx="62.9478"
   fy="120.0986"
   gradientTransform="matrix(1,0,0,0.9479,0,4.2796)"
   gradientUnits="userSpaceOnUse">
					<stop
   offset="0"
   style="stop-color:#B8BBDA"
   id="stop68" />
					<stop
   offset="1"
   style="stop-color:#0D2D7D"
   id="stop70" />
					
					
					
				</radialGradient>
				<path
   d="m 63.928,108.552 c 22.088,0 40.006,-17.993 40.006,-40.07 0,-21.937 -17.918,-39.938 -40.006,-39.938 C 42,28.543 23.93,46.545 23.93,68.481 c 0,22.078 18.07,40.071 39.998,40.071 z"
   id="path72"
   style="fill:url(#radialGradient3278)"
   inkscape:connector-curvature="0" />
				<path
   clip-rule="evenodd"
   d="m 44.636,68.648 c -0.333,-0.319 -0.11,-1.714 -0.11,-1.714 0,0 -5.043,-2.671 -10.53,-4.275 -0.678,-0.199 -0.336,-1.604 0.335,-2.137 l -0.224,-1.5 c -0.112,-0.749 1.121,-4.387 2.35,-4.704 1.235,-0.323 -0.11,2.139 -0.11,2.139 l -1.232,0.75 c 0,0 1.456,1.71 1.793,1.71 0.336,0 0.897,-0.858 0.897,-0.858 l -1.568,-1.068 1.456,-0.645 0.091,-0.559 0.245,-0.082 2.41,-3.678 c 1.666,-0.691 3.716,-1.543 3.975,-1.669 0.448,-0.211 3.583,-2.03 4.145,-2.456 0.561,-0.429 1.793,-0.319 2.241,-0.319 0.448,0 1.119,-0.213 1.232,-1.394 0.11,-1.174 0.562,-1.391 0.895,-1.071 0.337,0.322 -0.337,0.856 0.448,1.071 0.785,0.213 1.456,0.753 2.017,0.213 0.408,-0.391 -0.138,-0.835 -0.507,-1.174 h 6.219 l 0.674,-1.926 -1.459,-0.213 -5.377,-0.539 v -0.641 l -0.429,0.077 c 0.585,-3.229 4.042,-2.692 1.441,-4.564 -0.163,-0.113 -2.436,3.621 -3.019,3.546 -1.047,-0.141 -2.407,-0.151 -2.695,0.193 -0.383,0.455 0.86,-1.562 1.929,-2.176 -1.705,0.507 -7.096,2.365 -12.793,8.487 -5.448,5.853 -7.62,13.735 -7.62,14.009 0,0.535 1.12,0.753 1.234,1.39 0.108,0.641 -2.127,2.781 -2.127,3.851 0,0.493 -0.529,7.087 1.343,12.512 2.184,6.34 6.851,11.634 7.394,11.981 l 1.119,-0.537 c 0,0 -2.575,-4.599 -2.687,-5.027 -0.113,-0.425 2.911,-6.629 4.366,-6.417 1.456,0.214 1.123,0.646 2.018,0.106 0.898,-0.532 1.456,-4.918 2.465,-5.346 1.009,-0.428 2.127,-0.96 2.017,-2.029 -0.114,-1.073 -3.925,-2.993 -4.262,-3.317 z m 8.065,-29.836 c -0.167,0 -0.351,0.063 -0.536,0.173 0.44,-0.133 0.647,-0.173 0.536,-0.173 z m 10.864,2.136 0.111,-1.605 -1.676,0.108 0.224,1.497 h 1.341 z m 5.378,-3.747 -3.023,-1.065 0.561,1.714 2.462,-0.649 z m -11.313,3.96 c 0.338,0 7.057,-4.489 6.383,-4.598 -0.671,-0.106 -0.785,0 -2.575,-0.215 -1.79,-0.213 -3.697,2.566 -4.145,2.995 -0.447,0.429 -0.294,1.818 0.337,1.818 z m 18.265,39.877 c 0,0 -0.76,0.205 0.105,0.516 0.865,0.309 4.338,-5.049 4.338,-5.049 l -2.928,1.854 -1.515,2.679 z M 96.818,64.647 96.25,63.543 C 95.578,59.733 94.045,54.844 90.75,49.804 85.787,42.221 71.99,37.851 71.99,37.851 l -0.76,0.925 -0.43,-0.721 -1.088,-0.414 v 0.925 l 0.977,0.828 -0.652,0.309 -2.494,0.208 -5.636,3.09 0.54,2.474 -0.647,0.21 -0.326,0.512 1.843,2.783 0.106,0.931 -1.517,0.309 v 1.853 l -0.866,0.204 0.107,1.444 -7.374,5.16 0.217,2.881 c 0.543,0.72 4.773,5.052 4.773,5.052 0,0 4.876,0.204 5.96,-0.413 1.087,-0.616 0.327,0.617 0.653,0.925 0.326,0.314 0.434,2.478 0.758,2.685 0.326,0.203 0,1.443 0.432,1.853 0.438,0.411 0.438,5.361 0.438,5.361 0,0 2.604,4.433 2.604,5.568 0,1.135 -0.111,1.027 1.949,0.928 2.061,-0.104 2.49,-0.928 2.926,-1.237 0.434,-0.311 0.434,-1.03 0.871,-1.652 0.434,-0.617 1.189,-2.988 2.166,-3.812 0.975,-0.822 3.578,-1.441 3.793,-2.888 0.217,-1.443 1.195,-2.58 1.195,-2.58 l 4.688,-4.996 -0.137,0.674 -0.105,2.575 1.406,-0.516 -0.105,-2.783 -0.505,-0.546 0.068,-0.075 c 0,0 -0.326,-0.614 -0.76,-0.614 -0.432,0 -3.035,0.614 -3.465,0.514 -0.438,-0.106 -2.281,-5.054 -2.607,-5.259 -0.322,-0.208 -2.383,-3.608 -2.383,-3.608 0,0 4.77,5.771 5.529,8.043 0.441,1.318 2.096,0.092 3.441,-1.287 l 0.355,0.873 0.867,-0.207 -0.111,-1.03 h 0.977 v 1.546 l -0.322,0.823 -0.113,1.34 0.867,0.826 0.438,-0.721 1.406,-1.339 1.625,-0.824 0.438,0.823 0.217,1.135 -0.438,1.231 -0.867,0.728 -0.432,1.854 v 0.927 l -0.975,-0.62 -0.109,-1.959 -1.408,0.109 -0.648,1.745 0.975,1.446 2.273,0.307 1.846,-1.753 0.215,-3.398 0.82,-1.093 c 0.533,1.386 0.914,2.84 0.914,4.188 0,1.478 0.674,-1.028 0.104,-5.539 l 0.331,-0.445 z M 69.496,54.138 63.64,53.927 66.135,51.869 h 1.303 l 2.059,1.44 v 0.829 z m 7.152,-0.728 v 0.932 h -2.492 l 0.221,0.616 -1.52,0.205 -0.109,0.519 -1.08,-0.207 -1.955,-0.413 0.324,-0.513 0.326,-0.623 1.084,-1.133 0.434,0.824 1.627,-0.102 0.869,-0.928 3.355,0.616 -1.084,0.207 z m 0.217,-1.338 -1.299,0.204 -0.213,-0.922 1.623,-0.208 0.217,-0.927 1.193,1.236 -1.521,0.617 z m 11.604,21.341 0.871,-1.14 -0.871,-0.307 -0.65,0.826 -0.76,1.133 0.65,0.311 0.76,-0.823 z m -5.313,10.716 -0.76,0.617 0.111,1.548 h 0.971 v -1.339 l 0.871,-1.136 v -2.367 l -0.543,-0.107 -0.65,2.784 z m 9.108,-7.007 -0.217,-1.651 h -1.406 l -0.109,1.238 -1.305,-0.204 -0.324,-1.345 -0.648,-0.41 -0.762,0.929 -0.756,-0.208 -0.217,0.725 0.865,0.206 v 6.696 l 3.07,0.749 c -0.068,0.12 -0.125,0.223 -0.141,0.282 -0.221,0.724 0.869,1.032 1.623,0.724 0.283,-0.116 1.174,-1.025 1.734,-2.37 0.781,-1.874 1.463,-4.348 1.604,-5.22 l 0.346,-0.758 -2.166,0.822 -1.191,-0.205 z"
   id="path74"
   inkscape:connector-curvature="0"
   style="opacity:0.36000001;fill-rule:evenodd" />
				
					<radialGradient
   id="XMLID_8_"
   cx="63.7197"
   cy="69.298798"
   r="39.8027"
   fx="63.7197"
   fy="69.298798"
   gradientUnits="userSpaceOnUse">
					<stop
   offset="0"
   style="stop-color:#FFFFFF"
   id="stop77" />
					<stop
   offset="1"
   style="stop-color:#7783BD"
   id="stop79" />
					
					
					
				</radialGradient>
				<path
   d="m 50.364,32.205 c -0.202,0 -0.422,0.086 -0.646,0.211 0.532,-0.156 0.782,-0.211 0.646,-0.211 z m 13.148,2.568 0.131,-1.926 -2.028,0.126 0.271,1.8 h 1.626 z M 40.607,68.013 C 40.199,67.63 40.473,65.96 40.473,65.96 c 0,0 -6.098,-3.206 -12.743,-5.13 -0.82,-0.242 -0.405,-1.926 0.406,-2.567 l -0.27,-1.799 c -0.136,-0.897 1.355,-5.262 2.847,-5.646 1.492,-0.386 -0.135,2.565 -0.135,2.565 l -1.494,0.901 c 0,0 1.762,2.05 2.172,2.05 0.407,0 1.083,-1.028 1.083,-1.028 l -1.898,-1.279 1.764,-0.774 0.11,-0.675 0.295,-0.091 2.915,-4.42 c 2.018,-0.83 4.497,-1.85 4.809,-1.999 0.544,-0.256 4.34,-2.435 5.016,-2.948 0.681,-0.518 2.166,-0.389 2.708,-0.389 0.544,0 1.358,-0.255 1.493,-1.67 0.138,-1.412 0.678,-1.668 1.087,-1.279 0.405,0.38 -0.409,1.023 0.543,1.279 0.948,0.261 1.757,0.901 2.437,0.261 0.497,-0.473 -0.167,-1.007 -0.615,-1.412 h 7.526 l 0.817,-2.315 -1.761,-0.254 -6.51,-0.639 v -0.771 l -0.519,0.087 c 0.707,-3.873 4.891,-3.232 1.74,-5.475 -0.191,-0.14 -2.948,4.344 -3.647,4.254 -1.271,-0.167 -2.916,-0.178 -3.264,0.231 -0.461,0.543 1.037,-1.875 2.333,-2.61 -2.063,0.609 -8.584,2.841 -15.482,10.185 -6.591,7.023 -9.219,16.484 -9.219,16.813 0,0.641 1.36,0.902 1.495,1.672 0.133,0.767 -2.574,3.333 -2.574,4.617 0,0.592 -0.639,8.504 1.622,15.021 2.646,7.602 8.293,13.954 8.951,14.371 l 1.351,-0.641 c 0,0 -3.116,-5.52 -3.251,-6.034 -0.135,-0.511 3.526,-7.958 5.285,-7.696 1.761,0.25 1.356,0.768 2.439,0.123 1.09,-0.638 1.762,-5.906 2.979,-6.414 1.222,-0.517 2.582,-1.159 2.444,-2.438 -0.138,-1.285 -4.742,-3.596 -5.151,-3.984 z m 29.413,-37.734 -3.492,-0.696 0.51,1.469 2.982,-0.773 z m -13.693,4.748 c 0.413,0 8.542,-5.388 7.725,-5.515 -0.81,-0.127 -1.013,0.406 -3.186,0.153 -2.166,-0.26 -4.404,2.669 -4.943,3.182 -0.544,0.514 -0.359,2.18 0.404,2.18 z m 37.318,38.7 1.051,-1.359 -1.051,-0.37 -0.787,0.989 -0.918,1.358 0.789,0.375 0.916,-0.993 z m 4.591,4.457 -0.264,-1.978 H 96.27 l -0.133,1.479 -1.576,-0.241 -0.391,-1.613 -0.785,-0.489 -0.918,1.11 -0.922,-0.246 -0.262,0.859 1.049,0.254 v 8.037 l 3.717,0.896 c -0.09,0.151 -0.15,0.271 -0.174,0.346 -0.262,0.859 1.047,1.233 1.967,0.859 0.34,-0.137 1.422,-1.225 2.1,-2.843 0.945,-2.244 1.771,-5.212 1.934,-6.265 l 0.426,-0.905 -2.623,0.987 -1.443,-0.247 z m 5.004,-15.21 -0.178,-1.086 C 102.25,57.313 100.378,51.466 96.404,45.401 89.482,34.851 74.338,30.507 74.338,30.507 l -1.551,1.659 -0.523,-0.865 -1.314,-0.499 v 1.115 l 1.18,0.993 -0.785,0.37 -3.018,0.245 -6.82,3.713 0.653,2.969 -0.785,0.25 -0.394,0.614 2.23,3.339 0.128,1.113 -1.833,0.375 v 2.226 l -1.048,0.244 0.132,1.733 -8.926,6.188 0.263,3.459 c 0.657,0.864 5.774,6.064 5.774,6.064 0,0 5.903,0.245 7.214,-0.497 1.312,-0.742 0.395,0.742 0.788,1.115 0.395,0.371 0.523,2.967 0.916,3.216 0.396,0.245 0,1.728 0.523,2.226 0.525,0.493 0.525,6.433 0.525,6.433 0,0 3.15,5.318 3.15,6.679 0,1.363 -0.129,1.237 2.361,1.115 2.494,-0.127 3.016,-1.115 3.541,-1.486 0.529,-0.371 0.529,-1.235 1.051,-1.979 0.525,-0.744 1.443,-3.588 2.625,-4.574 1.18,-0.995 4.326,-1.737 4.59,-3.465 C 85.247,72.86 86.43,71.5 86.43,71.5 l 5.668,-6.002 -0.16,0.809 -0.127,3.092 1.699,-0.615 -0.127,-3.343 -0.615,-0.649 0.088,-0.097 c 0,0 -0.391,-0.737 -0.918,-0.737 -0.521,0 -3.672,0.737 -4.195,0.617 -0.529,-0.125 -2.758,-6.061 -3.152,-6.306 -0.391,-0.25 -2.885,-4.333 -2.885,-4.333 0,0 5.771,6.928 6.688,9.648 0.537,1.583 2.537,0.108 4.166,-1.544 l 0.426,1.053 1.053,-0.254 -0.133,-1.231 h 1.182 v 1.853 l -0.393,0.989 -0.135,1.609 1.053,0.989 0.523,-0.861 1.705,-1.612 1.967,-0.99 0.527,0.99 0.262,1.365 -0.525,1.479 -1.051,0.868 -0.525,2.227 v 1.108 l -1.18,-0.74 -0.131,-2.348 -1.701,0.126 -0.789,2.099 1.18,1.734 2.752,0.366 2.234,-2.101 0.258,-4.078 0.996,-1.312 c 0.646,1.661 1.104,3.401 1.104,5.02 0,1.776 0.814,-1.228 0.125,-6.644 l -0.104,-0.77 z M 70.689,50.597 63.604,50.348 66.619,47.876 h 1.574 l 2.496,1.73 v 0.991 z m 8.657,-0.865 v 1.112 H 76.33 l 0.264,0.746 -1.836,0.249 -0.137,0.617 -1.311,-0.248 -2.361,-0.496 0.395,-0.619 0.395,-0.745 1.311,-1.358 0.525,0.988 1.967,-0.121 1.053,-1.114 4.064,0.741 -1.313,0.248 z m 0.261,-1.607 -1.572,0.244 -0.264,-1.112 1.965,-0.247 0.262,-1.111 1.447,1.482 -1.838,0.744 z m 7.608,38.473 -0.916,0.737 0.133,1.855 h 1.178 v -1.604 l 1.053,-1.363 v -2.844 l -0.656,-0.127 -0.792,3.346 z M 78.43,82.881 c 0,0 -0.918,0.244 0.127,0.622 1.051,0.369 5.25,-6.059 5.25,-6.059 l -3.541,2.221 -1.836,3.216 z m -7.139,23.712 -0.789,-0.748 -1.574,-0.251 -0.258,0.747 -2.104,-0.247 -0.127,-0.993 h -1.574 l -1.705,0.993 h -3.016 l -0.26,-0.744 -4.854,-0.503 -0.785,0.747 -1.967,-0.493 -0.259,-1.748 -0.92,-0.127 -1.048,1.875 -3.541,-0.129 c 0.632,0.301 5.917,3.455 14.025,4.113 C 71.29,109.956 76.4,107.34 76.4,107.34 l -0.393,-0.374 -4.716,-0.373 z"
   id="path81"
   style="fill:url(#radialGradient3280)"
   inkscape:connector-curvature="0" />
				<path
   d="m 29.694,54.076 c -0.003,-0.187 -0.018,-0.371 -0.018,-0.558 0,-0.587 0.039,-1.17 0.096,-1.744 -1.048,1.44 -1.872,4.105 -1.769,4.785 l 0.27,1.814 c -0.81,0.648 -1.226,2.346 -0.405,2.589 1.401,0.409 2.775,0.879 4.076,1.359 -1.234,-2.311 -2.001,-4.792 -2.208,-7.377 -0.298,-0.326 -0.514,-0.583 -0.514,-0.583 l 0.472,-0.285 z"
   id="path83"
   inkscape:connector-curvature="0"
   style="fill:none" />
				<path
   d="M 83.941,77.71"
   id="path85"
   inkscape:connector-curvature="0" />
				<path
   a:adobe-blending-mode="screen"
   d="m 63.928,98.533 c -18.173,0 -33.291,-10.848 -34.674,-27.818 -0.071,0.835 -0.118,1.677 -0.118,2.521 0,18.152 15.72,32.948 34.792,32.948 19.211,0 34.795,-14.796 34.795,-32.948 0,-0.845 -0.043,-1.687 -0.111,-2.521 -1.378,16.971 -16.376,27.818 -34.684,27.818 z"
   id="path87"
   inkscape:connector-curvature="0"
   style="opacity:0.1;fill:#ffffff" />
				<linearGradient
   id="XMLID_9_"
   gradientUnits="userSpaceOnUse"
   x1="64.414597"
   y1="30.757299"
   x2="64.414597"
   y2="73.405403">
					<stop
   offset="0"
   style="stop-color:#FFFFFF"
   id="stop90" />
					<stop
   offset="1"
   style="stop-color:#FFFFFF;stop-opacity:0"
   id="stop92" />
					
					
					
				</linearGradient>
				<path
   a:adobe-blending-mode="screen"
   d="m 96.123,51.345 c 0,12.15 -14.195,22.002 -31.708,22.002 -17.51,0 -31.708,-9.853 -31.708,-22.002 0,-12.149 14.198,-22 31.708,-22 17.513,0 31.708,9.85 31.708,22 z"
   id="path94"
   style="fill:url(#linearGradient3282)"
   inkscape:connector-curvature="0" />
			</g><path
   style="fill:none"
   inkscape:connector-curvature="0"
   id="path129"
   d="M 128,128 H 0 V 0 h 128 v 128 z" />
</svg>