<?xml version="1.0" encoding="UTF-8" standalone="no"?>
<!-- Created with Inkscape (http://www.inkscape.org/) -->

<svg
   xmlns:dc="http://purl.org/dc/elements/1.1/"
   xmlns:cc="http://creativecommons.org/ns#"
   xmlns:rdf="http://www.w3.org/1999/02/22-rdf-syntax-ns#"
   xmlns:svg="http://www.w3.org/2000/svg"
   xmlns="http://www.w3.org/2000/svg"
   xmlns:xlink="http://www.w3.org/1999/xlink"
   xmlns:sodipodi="http://sodipodi.sourceforge.net/DTD/sodipodi-0.dtd"
   xmlns:inkscape="http://www.inkscape.org/namespaces/inkscape"
   width="88"
   height="88"
   id="svg2811"
   sodipodi:version="0.32"
   inkscape:version="0.48.1 "
   version="1.0"
   sodipodi:docname="imfcs_fit.svg"
   inkscape:output_extension="org.inkscape.output.svg.inkscape"
   inkscape:export-filename="imfcs_fit_22.png"
   inkscape:export-xdpi="22.5"
   inkscape:export-ydpi="22.5">
  <defs
     id="defs2813">
    <inkscape:perspective
       sodipodi:type="inkscape:persp3d"
       inkscape:vp_x="0 : 44 : 1"
       inkscape:vp_y="0 : 1000 : 0"
       inkscape:vp_z="88 : 44 : 1"
       inkscape:persp3d-origin="44 : 29.333333 : 1"
       id="perspective148" />
    <linearGradient
       gradientTransform="matrix(1.0033808,0,0,1,-8.2378002,8)"
       y2="20.043535"
       x2="122.39215"
       y1="96.721588"
       x1="122.74438"
       gradientUnits="userSpaceOnUse"
       id="linearGradient3067">
      <stop
         id="stop3069"
         style="stop-color:#88c4ff;stop-opacity:1;"
         offset="0" />
      <stop
         offset="0.13053299"
         style="stop-color:#b3d9ff;stop-opacity:1;"
         id="stop3077" />
      <stop
         id="stop3071"
         style="stop-color:#71A8F5"
         offset="0.72006166" />
      <stop
         id="stop3073"
         style="stop-color:#508ed9;stop-opacity:1;"
         offset="1" />
    </linearGradient>
    <linearGradient
       id="linearGradient2822">
      <stop
         style="stop-color:#ffffff;stop-opacity:1;"
         offset="0"
         id="stop2824" />
      <stop
         style="stop-color:#ffffff;stop-opacity:0;"
         offset="1"
         id="stop2826" />
    </linearGradient>
    <linearGradient
       id="XMLID_8_"
       gradientUnits="userSpaceOnUse"
       x1="72.000504"
       y1="96"
       x2="72.000504"
       y2="20.0005"
       gradientTransform="matrix(1.0033876,0,0,1,1.7561237,8)">
      <stop
         offset="0"
         style="stop-color:#cfe7ff;stop-opacity:1;"
         id="stop35" />
      <stop
         offset="0.5917"
         style="stop-color:#71A8F5"
         id="stop37" />
      <stop
         offset="1"
         style="stop-color:#2C72C7"
         id="stop39" />
    </linearGradient>
    <linearGradient
       id="XMLID_6_"
       gradientUnits="userSpaceOnUse"
       x1="72.000504"
       y1="96"
       x2="72.000504"
       y2="15.33597"
       gradientTransform="matrix(0.6643246,0,0,0.6643246,-3.6904334,8)">
      <stop
         offset="0"
         style="stop-color:#00479E"
         id="stop7" />
      <stop
         offset="0.0769"
         style="stop-color:#2C72C7"
         id="stop9" />
      <stop
         offset="0.58579999"
         style="stop-color:#6ea1df;stop-opacity:1;"
         id="stop11" />
      <stop
         offset="0.96450001"
         style="stop-color:#adcbee;stop-opacity:1;"
         id="stop13" />
    </linearGradient>
    <clipPath
       clipPathUnits="userSpaceOnUse"
       id="clipPath2844">
      <path
         style="fill:#ff00bf"
         d="M 133.86613,100.978 C 133.79288,102.369 132.59585,103.5 131.19913,103.5 L 16.812952,103.5 C 15.415236,103.5 14.2192,102.368 14.145947,100.979 C 14.145947,100.979 10.508666,30.967 10.508666,30.957 C 10.461513,30.301 10.673223,29.685 11.105684,29.22 C 11.539144,28.756 12.140172,28.501 12.799403,28.501 L 135.21268,28.501 C 135.8719,28.501 136.47293,28.756 136.90339,29.219 C 137.33384,29.682 137.54254,30.298 137.49137,30.966 L 133.86613,100.978 z "
         id="path2846" />
    </clipPath>
    <linearGradient
       inkscape:collect="always"
       xlink:href="#linearGradient2822"
       id="linearGradient3190"
       gradientUnits="userSpaceOnUse"
       gradientTransform="translate(10,0)"
       x1="22.413761"
       y1="28.5"
       x2="22.413761"
       y2="34.472866" />
    <clipPath
       id="clipPath7084"
       clipPathUnits="userSpaceOnUse">
      <path
         id="path7086"
         d="M 72,88 L 40,120 L 32,120 L 32,80 L 72,80 L 72,88 z "
         style="fill:#000000;fill-opacity:1;fill-rule:evenodd;stroke:none;stroke-width:1px;stroke-linecap:butt;stroke-linejoin:miter;stroke-opacity:1" />
    </clipPath>
    <radialGradient
       gradientUnits="userSpaceOnUse"
       r="139.55859"
       cy="112.3047"
       cx="102"
       id="radialGradient2352">
      <stop
         id="stop41"
         style="stop-color:#b7b8b9;stop-opacity:1;"
         offset="0" />
      <stop
         id="stop47"
         style="stop-color:#ECECEC"
         offset="0.18851049" />
      <stop
         id="stop49"
         style="stop-color:#FAFAFA"
         offset="0.25718147" />
      <stop
         id="stop51"
         style="stop-color:#FFFFFF"
         offset="0.30111277" />
      <stop
         id="stop53"
         style="stop-color:#FAFAFA"
         offset="0.5313" />
      <stop
         id="stop55"
         style="stop-color:#EBECEC"
         offset="0.8449" />
      <stop
         id="stop57"
         style="stop-color:#E1E2E3"
         offset="1" />
    </radialGradient>
    <linearGradient
       y2="96.000198"
       x2="88.000198"
       y1="104"
       x1="96"
       gradientUnits="userSpaceOnUse"
       id="XMLID_12_">
      <stop
         id="stop83"
         style="stop-color:#888A85"
         offset="0" />
      <stop
         id="stop85"
         style="stop-color:#8C8E89"
         offset="0.0072" />
      <stop
         id="stop87"
         style="stop-color:#ABACA9"
         offset="0.0673" />
      <stop
         id="stop89"
         style="stop-color:#C5C6C4"
         offset="0.1347" />
      <stop
         id="stop91"
         style="stop-color:#DBDBDA"
         offset="0.2652576" />
      <stop
         id="stop93"
         style="stop-color:#EBEBEB"
         offset="0.37646064" />
      <stop
         id="stop95"
         style="stop-color:#F7F7F6"
         offset="0.48740286" />
      <stop
         id="stop97"
         style="stop-color:#FDFDFD"
         offset="0.6324091" />
      <stop
         id="stop99"
         style="stop-color:#FFFFFF"
         offset="1" />
    </linearGradient>
    <linearGradient
       id="linearGradient10207">
      <stop
         id="stop10209"
         offset="0"
         style="stop-color:#a2a2a2;stop-opacity:1;" />
      <stop
         id="stop10211"
         offset="1"
         style="stop-color:#ffffff;stop-opacity:1;" />
    </linearGradient>
    <linearGradient
       y2="87.759453"
       x2="336.98077"
       y1="120.81158"
       x1="328.12448"
       gradientUnits="userSpaceOnUse"
       id="linearGradient10621"
       xlink:href="#linearGradient4296"
       inkscape:collect="always" />
    <radialGradient
       gradientUnits="userSpaceOnUse"
       gradientTransform="matrix(1,0,0,-1,-281.9995,-305)"
       r="94.664803"
       cy="-375.27051"
       cx="402.76709"
       id="path59_1_">
      <stop
         id="stop38"
         style="stop-color:#535557"
         offset="0" />
      <stop
         id="stop40"
         style="stop-color:#898A8C"
         offset="0.07095145" />
      <stop
         id="stop42"
         style="stop-color:#ECECEC"
         offset="0.203" />
      <stop
         id="stop44"
         style="stop-color:#FAFAFA"
         offset="0.2363" />
      <stop
         id="stop46"
         style="stop-color:#FFFFFF"
         offset="0.2722" />
      <stop
         id="stop48"
         style="stop-color:#FAFAFA"
         offset="0.5313" />
      <stop
         id="stop50"
         style="stop-color:#EBECEC"
         offset="0.8449" />
      <stop
         id="stop52"
         style="stop-color:#E1E2E3"
         offset="1" />
    </radialGradient>
    <linearGradient
       gradientTransform="matrix(1,0,0,-1,-281.9995,-305)"
       y2="-363.99991"
       x2="392.9447"
       y1="-369.5"
       x1="398.44479"
       gradientUnits="userSpaceOnUse"
       id="path101_1_">
      <stop
         id="stop74"
         style="stop-color:#888A85"
         offset="0" />
      <stop
         id="stop4208"
         style="stop-color:#8C8E89"
         offset="0.0072" />
      <stop
         id="stop4210"
         style="stop-color:#ABACA9"
         offset="0.0673" />
      <stop
         id="stop80"
         style="stop-color:#C5C6C4"
         offset="0.1347" />
      <stop
         id="stop82"
         style="stop-color:#DBDBDA"
         offset="0.2115" />
      <stop
         id="stop84"
         style="stop-color:#EBEBEB"
         offset="0.3012" />
      <stop
         id="stop86"
         style="stop-color:#F7F7F6"
         offset="0.4122" />
      <stop
         id="stop88"
         style="stop-color:#FDFDFD"
         offset="0.5679" />
      <stop
         id="stop90"
         style="stop-color:#FFFFFF"
         offset="1" />
    </linearGradient>
    <linearGradient
       id="linearGradient18668"
       gradientUnits="userSpaceOnUse"
       x1="28"
       y1="57.5"
       x2="28"
       y2="0">
      <stop
         offset="0"
         style="stop-color:#fffccf;stop-opacity:1;"
         id="stop18670" />
      <stop
         offset="1"
         style="stop-color:white;stop-opacity:0;"
         id="stop18672" />
    </linearGradient>
    <linearGradient
       y2="0"
       x2="28"
       y1="57.5"
       x1="28"
       gradientUnits="userSpaceOnUse"
       id="XMLID_2_">
      <stop
         id="stop12"
         style="stop-color:#FFEA00"
         offset="0" />
      <stop
         id="stop14"
         style="stop-color:#FFCC00"
         offset="1" />
    </linearGradient>
    <linearGradient
       id="linearGradient5958"
       gradientUnits="userSpaceOnUse"
       x1="-84.002403"
       y1="-383.9971"
       x2="-12.0029"
       y2="-383.9971"
       gradientTransform="matrix(0,1,-1,0,-39.9985,140.0029)">
      <stop
         offset="0"
         style="stop-color:#008c00;stop-opacity:1"
         id="stop5960" />
      <stop
         offset="1"
         style="stop-color:#00bf00;stop-opacity:1"
         id="stop5962" />
    </linearGradient>
    <linearGradient
       id="linearGradient4770"
       gradientUnits="userSpaceOnUse"
       x1="-84.002403"
       y1="-383.9971"
       x2="-12.0029"
       y2="-383.9971"
       gradientTransform="matrix(0,1,-1,0,-39.9985,140.0029)">
      <stop
         offset="0"
         style="stop-color:#e5ff00;stop-opacity:1"
         id="stop4772" />
      <stop
         offset="1"
         style="stop-color:#bff500;stop-opacity:0;"
         id="stop4774" />
    </linearGradient>
    <linearGradient
       y2="87.759453"
       x2="336.98077"
       y1="120.81158"
       x1="328.12448"
       gradientUnits="userSpaceOnUse"
       id="linearGradient6831"
       xlink:href="#linearGradient4296"
       inkscape:collect="always" />
    <linearGradient
       id="linearGradient4296">
      <stop
         style="stop-color:#00ff00;stop-opacity:1"
         offset="0"
         id="stop4298" />
      <stop
         style="stop-color:#006500;stop-opacity:1"
         offset="1"
         id="stop4300" />
    </linearGradient>
    <clipPath
       id="clipPath5163"
       clipPathUnits="userSpaceOnUse">
      <circle
         id="circle5165"
         ry="8.0010004"
         cy="92"
         cx="343.99899"
         rx="8.0010004"
         r="36"
         style="fill:url(#linearGradient5167);fill-opacity:1"
         sodipodi:cx="343.99899"
         sodipodi:cy="92"
         sodipodi:rx="36"
         sodipodi:ry="36" />
    </clipPath>
    <linearGradient
       id="linearGradient3711"
       gradientUnits="userSpaceOnUse"
       x1="-84.002403"
       y1="-383.9971"
       x2="-23.516129"
       y2="-383.9975"
       gradientTransform="matrix(0,1,-1,0,-39.9985,140.0029)">
      <stop
         offset="0"
         style="stop-color:white;stop-opacity:1;"
         id="stop3713" />
      <stop
         offset="1"
         style="stop-color:white;stop-opacity:0;"
         id="stop3715" />
    </linearGradient>
    <linearGradient
       id="linearGradient6740">
      <stop
         id="stop6742"
         offset="0"
         style="stop-color:#004d00;stop-opacity:0;" />
      <stop
         style="stop-color:#004d00;stop-opacity:1;"
         offset="0.5"
         id="stop6748" />
      <stop
         id="stop6744"
         offset="1"
         style="stop-color:#004d00;stop-opacity:0;" />
    </linearGradient>
    <radialGradient
       inkscape:collect="always"
       xlink:href="#path59_1_"
       id="radialGradient2591"
       gradientUnits="userSpaceOnUse"
       gradientTransform="matrix(1.00086,0,0,-1,-485.7967,-300.5)"
       cx="402.76709"
       cy="-375.27051"
       r="94.664803" />
    <linearGradient
       inkscape:collect="always"
       xlink:href="#path101_1_"
       id="linearGradient2593"
       gradientUnits="userSpaceOnUse"
       gradientTransform="matrix(1.00086,0,0,-1,-485.7967,-300.5)"
       x1="398.44479"
       y1="-369.5"
       x2="393.59644"
       y2="-364.65219" />
    <linearGradient
       inkscape:collect="always"
       xlink:href="#linearGradient5958"
       id="linearGradient2595"
       gradientUnits="userSpaceOnUse"
       gradientTransform="matrix(0,1,-1,0,-39.9985,140.0029)"
       x1="-86.120354"
       y1="-381.09921"
       x2="-56.357521"
       y2="-373.1243" />
    <radialGradient
       inkscape:collect="always"
       xlink:href="#linearGradient4770"
       id="radialGradient2597"
       gradientUnits="userSpaceOnUse"
       cx="343.99899"
       cy="92"
       fx="343.99899"
       fy="92"
       r="36" />
    <linearGradient
       inkscape:collect="always"
       xlink:href="#linearGradient4296"
       id="linearGradient2599"
       gradientUnits="userSpaceOnUse"
       x1="328.12448"
       y1="120.81158"
       x2="336.98077"
       y2="87.759453" />
    <linearGradient
       inkscape:collect="always"
       xlink:href="#linearGradient3711"
       id="linearGradient2601"
       gradientUnits="userSpaceOnUse"
       gradientTransform="matrix(0,0.5998932,-0.600267,0,36.376166,288.27268)"
       x1="-80.00296"
       y1="-131.93112"
       x2="-45.096584"
       y2="-131.93112" />
    <linearGradient
       inkscape:collect="always"
       xlink:href="#linearGradient6740"
       id="linearGradient2603"
       gradientUnits="userSpaceOnUse"
       gradientTransform="translate(20.000035,-56.000003)"
       x1="102"
       y1="118"
       x2="102"
       y2="65.932846" />
    <linearGradient
       inkscape:collect="always"
       id="linearGradient5085">
      <stop
         style="stop-color:#ffffff;stop-opacity:1;"
         offset="0"
         id="stop5087" />
      <stop
         style="stop-color:#ffffff;stop-opacity:0.60085839"
         offset="1"
         id="stop5089" />
    </linearGradient>
    <linearGradient
       inkscape:collect="always"
       id="linearGradient2793">
      <stop
         style="stop-color:#ffffff;stop-opacity:1;"
         offset="0"
         id="stop2795" />
      <stop
         style="stop-color:#ffffff;stop-opacity:0;"
         offset="1"
         id="stop2797" />
    </linearGradient>
    <linearGradient
       id="linearGradient2068">
      <stop
         style="stop-color:#000000;stop-opacity:0.25000000;"
         offset="0.0000000"
         id="stop2070" />
      <stop
         style="stop-color:#000000;stop-opacity:0;"
         offset="1"
         id="stop2072" />
    </linearGradient>
    <linearGradient
       id="linearGradient1733">
      <stop
         style="stop-color:#ffffff;stop-opacity:0.76991153;"
         offset="0.0000000"
         id="stop1734" />
      <stop
         style="stop-color:#ffffff;stop-opacity:0;"
         offset="1"
         id="stop1735" />
    </linearGradient>
    <linearGradient
       id="linearGradient1726">
      <stop
         style="stop-color:#fffb00;stop-opacity:1.0000000;"
         offset="0.0000000"
         id="stop1727" />
      <stop
         style="stop-color:#ff9c00;stop-opacity:1.0000000;"
         offset="1.0000000"
         id="stop1728" />
    </linearGradient>
    <linearGradient
       id="XMLID_1_"
       gradientUnits="userSpaceOnUse"
       x1="183.60741"
       y1="8.8970003"
       x2="58.776798"
       y2="191.4617">
      <stop
         offset="0"
         style="stop-color:#FFFFFF"
         id="stop159" />
      <stop
         offset="1"
         style="stop-color:#FF0000"
         id="stop160" />
    </linearGradient>
    <radialGradient
       id="radialGradient2655"
       cx="121.4478"
       cy="247.7744"
       r="163.8273"
       fx="121.4478"
       fy="247.7744"
       gradientUnits="userSpaceOnUse">
      <stop
         offset="0"
         style="stop-color:#CA002D"
         id="stop166" />
      <stop
         offset="1"
         style="stop-color:#FF0000"
         id="stop167" />
    </radialGradient>
    <radialGradient
       inkscape:collect="always"
       xlink:href="#XMLID_2_"
       id="radialGradient6"
       gradientUnits="userSpaceOnUse"
       cx="121.4478"
       cy="247.7744"
       fx="121.4478"
       fy="247.7744"
       r="163.8273"
       gradientTransform="matrix(0.921905,0,0,0.921905,9.95315,9.779038)" />
    <linearGradient
       inkscape:collect="always"
       xlink:href="#XMLID_1_"
       id="linearGradient7"
       gradientUnits="userSpaceOnUse"
       x1="183.60741"
       y1="8.8970003"
       x2="58.776798"
       y2="191.4617"
       gradientTransform="matrix(0.921905,0,0,0.921905,9.95315,9.779038)" />
    <linearGradient
       inkscape:collect="always"
       xlink:href="#linearGradient2793"
       id="linearGradient2799"
       x1="128.18875"
       y1="86.200233"
       x2="189.93413"
       y2="206.33525"
       gradientUnits="userSpaceOnUse"
       gradientTransform="matrix(1.44542,0,0,1.44542,-127.1499,-108.5803)" />
    <linearGradient
       gradientTransform="matrix(0.978618,0,0,0.978618,2.743695,2.790816)"
       inkscape:collect="always"
       xlink:href="#linearGradient5085"
       id="linearGradient5091"
       x1="134.90021"
       y1="53.314114"
       x2="134.90021"
       y2="194.2787"
       gradientUnits="userSpaceOnUse" />
    <linearGradient
       y2="52.198448"
       x2="37.014332"
       y1="28.907038"
       x1="34.211731"
       gradientTransform="matrix(1.830301,0,0,0.546358,1.872959e-17,4)"
       gradientUnits="userSpaceOnUse"
       id="linearGradient1363"
       xlink:href="#linearGradient10475"
       inkscape:collect="always" />
    <linearGradient
       y2="95.25663"
       x2="30.810305"
       y1="28.559177"
       x1="30.223124"
       gradientTransform="matrix(1.311889,0,0,0.76226,1.872959e-17,6)"
       gradientUnits="userSpaceOnUse"
       id="linearGradient1361"
       xlink:href="#linearGradient5866"
       inkscape:collect="always" />
    <linearGradient
       y2="73.219803"
       x2="7.0335331"
       y1="74.338982"
       x1="29.539867"
       gradientTransform="matrix(1.093489,0,0,0.914504,1.872959e-17,6)"
       gradientUnits="userSpaceOnUse"
       id="linearGradient1359"
       xlink:href="#linearGradient5098"
       inkscape:collect="always" />
    <linearGradient
       y2="43.16671"
       x2="41.862434"
       y1="113.42223"
       x1="39.661476"
       gradientTransform="matrix(1.095691,0,0,0.912666,1.872959e-17,4)"
       gradientUnits="userSpaceOnUse"
       id="linearGradient1357"
       xlink:href="#linearGradient10465"
       inkscape:collect="always" />
    <linearGradient
       y2="27.309816"
       x2="49.017395"
       y1="95.898132"
       x1="22.531561"
       gradientTransform="matrix(1.019804,0,0,0.980581,1.872959e-17,6)"
       gradientUnits="userSpaceOnUse"
       id="linearGradient1355"
       xlink:href="#linearGradient8158"
       inkscape:collect="always" />
    <linearGradient
       y2="157.02299"
       x2="62.504456"
       y1="178.63835"
       x1="42.721756"
       gradientTransform="matrix(1.306581,0,0,0.629477,15.21832,-1.158036e-15)"
       gradientUnits="userSpaceOnUse"
       id="linearGradient1353"
       xlink:href="#linearGradient11317"
       inkscape:collect="always" />
    <linearGradient
       inkscape:collect="always"
       id="linearGradient5098">
      <stop
         style="stop-color:#ae5b00;stop-opacity:1;"
         offset="0"
         id="stop5100" />
      <stop
         style="stop-color:#ae5b00;stop-opacity:0;"
         offset="1"
         id="stop5102" />
    </linearGradient>
    <linearGradient
       id="linearGradient5866">
      <stop
         style="stop-color:#ffffff;stop-opacity:0.61458331;"
         offset="0.00000000"
         id="stop5868" />
      <stop
         style="stop-color:#ffffff;stop-opacity:0;"
         offset="1"
         id="stop5870" />
    </linearGradient>
    <linearGradient
       id="linearGradient8158">
      <stop
         style="stop-color:#000000;stop-opacity:0.73958331;"
         offset="0.00000000"
         id="stop8160" />
      <stop
         style="stop-color:#000000;stop-opacity:0;"
         offset="1"
         id="stop8162" />
    </linearGradient>
    <linearGradient
       id="linearGradient10457">
      <stop
         style="stop-color:#000000;stop-opacity:0.32291666;"
         offset="0.00000000"
         id="stop10459" />
      <stop
         style="stop-color:#000000;stop-opacity:0;"
         offset="1"
         id="stop10461" />
    </linearGradient>
    <linearGradient
       id="linearGradient10465">
      <stop
         style="stop-color:#ffa740;stop-opacity:1;"
         offset="0"
         id="stop10467" />
      <stop
         style="stop-color:#d57827;stop-opacity:1;"
         offset="1"
         id="stop10469" />
    </linearGradient>
    <linearGradient
       inkscape:collect="always"
       id="linearGradient10475">
      <stop
         style="stop-color:#ffffff;stop-opacity:1;"
         offset="0"
         id="stop10477" />
      <stop
         style="stop-color:#ffffff;stop-opacity:0;"
         offset="1"
         id="stop10479" />
    </linearGradient>
    <linearGradient
       id="linearGradient11317">
      <stop
         style="stop-color:#000000;stop-opacity:0.48958334;"
         offset="0.00000000"
         id="stop11319" />
      <stop
         style="stop-color:#000000;stop-opacity:0;"
         offset="1"
         id="stop11321" />
    </linearGradient>
    <linearGradient
       id="linearGradient2865">
      <stop
         id="stop2867"
         offset="0"
         style="stop-color:#ffa740;stop-opacity:1;" />
      <stop
         id="stop2869"
         offset="1"
         style="stop-color:#ca6b18;stop-opacity:1" />
    </linearGradient>
    <inkscape:perspective
       id="perspective2604"
       inkscape:persp3d-origin="11 : 7.3333333 : 1"
       inkscape:vp_z="22 : 11 : 1"
       inkscape:vp_y="0 : 1000 : 0"
       inkscape:vp_x="0 : 11 : 1"
       sodipodi:type="inkscape:persp3d" />
    <clipPath
       clipPathUnits="userSpaceOnUse"
       id="clipPath7084-1">
      <path
         inkscape:connector-curvature="0"
         style="fill:#000000;fill-opacity:1;fill-rule:evenodd;stroke:none"
         d="m 72,88 -32,32 -8,0 0,-40 40,0 0,8 z"
         id="path7086-7" />
    </clipPath>
    <filter
       color-interpolation-filters="sRGB"
       inkscape:collect="always"
       x="-0.19200002"
       width="1.3839999"
       y="-0.19199999"
       height="1.3839999"
       id="filter6697">
      <feGaussianBlur
         inkscape:collect="always"
         stdDeviation="1.9447689"
         id="feGaussianBlur6699" />
    </filter>
    <linearGradient
       id="linearGradient10207-4">
      <stop
         style="stop-color:#a2a2a2;stop-opacity:1;"
         offset="0"
         id="stop10209-0" />
      <stop
         style="stop-color:#ffffff;stop-opacity:1;"
         offset="1"
         id="stop10211-9" />
    </linearGradient>
    <linearGradient
       inkscape:collect="always"
       xlink:href="#linearGradient10207-4-7"
       id="linearGradient10213-1"
       x1="98.617439"
       y1="106.41443"
       x2="91.228737"
       y2="99.254974"
       gradientUnits="userSpaceOnUse"
       gradientTransform="matrix(0.77346277,0,0,0.75829913,-9.6041146,-3.4955472)" />
    <linearGradient
       id="linearGradient10207-4-7">
      <stop
         style="stop-color:#a2a2a2;stop-opacity:1;"
         offset="0"
         id="stop10209-0-4" />
      <stop
         style="stop-color:#ffffff;stop-opacity:1;"
         offset="1"
         id="stop10211-9-0" />
    </linearGradient>
    <clipPath
       clipPathUnits="userSpaceOnUse"
       id="clipPath7084-1-9">
      <path
         inkscape:connector-curvature="0"
         style="fill:#000000;fill-opacity:1;fill-rule:evenodd;stroke:none"
         d="m 72,88 -32,32 -8,0 0,-40 40,0 0,8 z"
         id="path7086-7-4" />
    </clipPath>
    <filter
       color-interpolation-filters="sRGB"
       inkscape:collect="always"
       x="-0.19200002"
       width="1.3839999"
       y="-0.19199999"
       height="1.3839999"
       id="filter6697-8">
      <feGaussianBlur
         inkscape:collect="always"
         stdDeviation="1.9447689"
         id="feGaussianBlur6699-8" />
    </filter>
    <filter
       id="filter4012"
       x="0"
       y="0"
       width="1"
       height="1"
       inkscape:label="Lightness-Contrast"
       inkscape:menu="Color"
       inkscape:menu-tooltip="Increase or decrease lightness and contrast"
       color-interpolation-filters="sRGB">
      <feFlood
         id="feFlood4014"
         result="result1"
         flood-opacity="0"
         flood-color="rgb(128,128,128)" />
      <feBlend
         id="feBlend4016"
         in2="SourceGraphic"
         mode="normal"
         result="result2" />
      <feComposite
         id="feComposite4018"
         in2="SourceGraphic"
         k2="1"
         operator="arithmetic"
         result="result3" />
      <feComposite
         id="feComposite4020"
         in2="SourceGraphic"
         operator="in" />
    </filter>
    <filter
       id="filter4022"
       x="0"
       y="0"
       width="1"
       height="1"
       inkscape:label="Lightness-Contrast"
       inkscape:menu="Color"
       inkscape:menu-tooltip="Increase or decrease lightness and contrast"
       color-interpolation-filters="sRGB">
      <feFlood
         id="feFlood4024"
         result="result1"
         flood-opacity="0"
         flood-color="rgb(128,128,128)" />
      <feBlend
         id="feBlend4026"
         in2="SourceGraphic"
         mode="normal"
         result="result2" />
      <feComposite
         id="feComposite4028"
         in2="SourceGraphic"
         k2="1"
         operator="arithmetic"
         result="result3" />
      <feComposite
         id="feComposite4030"
         in2="SourceGraphic"
         operator="in" />
    </filter>
    <filter
       id="filter4032"
       x="0"
       y="0"
       width="1"
       height="1"
       inkscape:label="Lightness-Contrast"
       inkscape:menu="Color"
       inkscape:menu-tooltip="Increase or decrease lightness and contrast"
       color-interpolation-filters="sRGB">
      <feFlood
         id="feFlood4034"
         result="result1"
         flood-opacity="0"
         flood-color="rgb(128,128,128)" />
      <feBlend
         id="feBlend4036"
         in2="SourceGraphic"
         mode="normal"
         result="result2" />
      <feComposite
         id="feComposite4038"
         in2="SourceGraphic"
         k2="1"
         operator="arithmetic"
         result="result3" />
      <feComposite
         id="feComposite4040"
         in2="SourceGraphic"
         operator="in" />
    </filter>
    <filter
       id="filter4042"
       x="0"
       y="0"
       width="1"
       height="1"
       inkscape:label="Lightness-Contrast"
       inkscape:menu="Color"
       inkscape:menu-tooltip="Increase or decrease lightness and contrast"
       color-interpolation-filters="sRGB">
      <feFlood
         id="feFlood4044"
         result="result1"
         flood-opacity="0"
         flood-color="rgb(128,128,128)" />
      <feBlend
         id="feBlend4046"
         in2="SourceGraphic"
         mode="normal"
         result="result2" />
      <feComposite
         id="feComposite4048"
         in2="SourceGraphic"
         k2="1"
         operator="arithmetic"
         result="result3" />
      <feComposite
         id="feComposite4050"
         in2="SourceGraphic"
         operator="in" />
    </filter>
  </defs>
  <sodipodi:namedview
     id="base"
     pagecolor="#ffffff"
     bordercolor="#666666"
     borderopacity="1.0"
     inkscape:pageopacity="0.0"
     inkscape:pageshadow="2"
     inkscape:zoom="1.2027191"
     inkscape:cx="-271.75746"
     inkscape:cy="129.28623"
     inkscape:document-units="px"
     inkscape:current-layer="layer1"
     inkscape:window-width="1920"
     inkscape:window-height="1018"
     inkscape:window-x="-8"
     inkscape:window-y="-8"
     showborder="true"
     inkscape:showpageshadow="false"
     width="88px"
     height="88px"
     showgrid="false"
     gridtolerance="50"
     inkscape:grid-points="false"
     inkscape:grid-bbox="false"
     showguides="true"
     inkscape:guide-bbox="true"
     inkscape:window-maximized="1">
    <inkscape:grid
       id="GridFromPre046Settings"
       type="xygrid"
       originx="0px"
       originy="0px"
       spacingx="4px"
       spacingy="4px"
       color="#0000ff"
       empcolor="#0000ff"
       opacity="0.2"
       empopacity="0.4"
       empspacing="4"
       visible="true"
       enabled="true" />
  </sodipodi:namedview>
  <metadata
     id="metadata2816">
    <rdf:RDF>
      <cc:Work
         rdf:about="">
        <dc:format>image/svg+xml</dc:format>
        <dc:type
           rdf:resource="http://purl.org/dc/dcmitype/StillImage" />
        <dc:title></dc:title>
      </cc:Work>
    </rdf:RDF>
  </metadata>
  <g
     inkscape:label="Livello 1"
     inkscape:groupmode="layer"
     id="layer1">
    <rect
       style="opacity:0.57786889;fill:#ffffff;fill-opacity:1;fill-rule:nonzero;stroke:none"
       id="rect1327"
       width="0.50335288"
       height="0"
       x="-25.829735"
       y="12.549761" />
    <g
       style="opacity:0.40163933"
       transform="matrix(-0.39412281,0,0,0.32762187,-1275.049,321.2569)"
       id="g4640" />
    <g
       id="g4646"
       transform="matrix(-0.39412281,0,0,0.32762187,-1275.049,321.2569)"
       style="opacity:0.40163933" />
    <g
       id="g4730"
       transform="matrix(0.50335294,0,0,0.32762187,336.16508,324.94537)"
       style="opacity:0.40163933" />
    <g
       style="opacity:0.40163933"
       transform="matrix(0.50335294,0,0,0.32762187,336.16508,324.94537)"
       id="g4748" />
    <path
       style="fill:#ffffff;fill-opacity:1"
       d="m 0.9173821,0.37329575 0,87.12704725 c 0,0 45.8509109,0 45.8509109,0 l 23.855142,-25.557459 0,-61.56958825 -69.7060529,0 z"
       id="path34"
       sodipodi:nodetypes="cccccc"
       inkscape:connector-curvature="0" />
    <path
       style="fill:#f9f9f9;fill-opacity:1;stroke:#000000;stroke-width:0.79354239"
       d="m 2.4454052,1.1512188 c -0.4418565,0 -0.8019171,0.352462 -0.8019171,0.784992 l 0,84.7791442 c 0,0.433319 0.3600606,0.784988 0.8019171,0.784988 l 47.4510478,0 c 0.210905,0 2.215445,0.09276 2.3646,-0.0541 L 76.788757,63.260328 c 0.149958,-0.146794 0.234965,-2.108239 0.234965,-2.314688 l 0,-59.0094282 c 0,-0.43253 -0.359262,-0.784992 -0.801923,-0.784992 l -73.7763938,0 z"
       id="path59"
       sodipodi:nodetypes="ccccccccccc"
       inkscape:connector-curvature="0" />
    <g
       id="g3975"
       transform="matrix(0.85289382,0,0,0.94898488,-4.6554936,-4.3138194)"
       style="filter:url(#filter4042)">
      <g
         transform="matrix(0.36768642,0,0,0.43892197,-12.548001,-12.030753)"
         id="g4003">
        <path
           inkscape:connector-curvature="0"
           style="fill:none;stroke:#ff8080;stroke-width:5.36258364;stroke-linecap:butt;stroke-linejoin:miter;stroke-miterlimit:4;stroke-opacity:1;stroke-dasharray:none"
           d="m 67.351426,52.074598 c -0.632556,1.415565 2.129572,3.381253 0,0 -0.632847,-1.004807 1.499384,1.916676 1.755197,3.13518 0.241344,1.149601 1.170128,-5.484166 1.170128,1.393416 0,1.398239 1.92828,-1.668234 2.63279,-2.786827 0.576219,-0.914906 0.238434,2.857808 1.170129,3.135177 2.354514,0.700951 -0.921851,-6.724117 2.047728,0.348356 0.272122,0.648097 1.511831,-0.05857 2.340265,-1.045059 0.284279,-0.338541 1.170123,-0.130421 1.170123,0.348353 0,5.460403 1.157034,-0.09531 1.755194,-1.04506 0.190191,-0.301982 0.392722,7.425139 2.04773,3.483536 1.823303,-4.342479 0.668212,0.146686 1.170124,3.135182 0.262185,1.56105 2.340265,-7.832357 2.340265,-2.786832 0,5.95163 0.847653,5.296613 2.632799,1.045065 0.515284,-1.22726 0.369997,7.827602 1.755178,4.528595 1.998973,-4.760838 0.796523,-1.17942 1.462675,2.786828 0.116284,0.692599 0.436378,-1.404897 0.292519,-2.090121 -0.274346,-1.306799 -0.631136,8.121879 0.58507,5.225304 1.921811,-4.577082 0.821458,1.536504 2.04773,3.483536 0.03871,0.06156 1.755194,-8.093778 1.755194,0.348353 0,6.125079 3.306096,-3.345359 0.877589,2.438475 -2.094542,4.988451 0.901559,-0.114084 0.292535,2.786829 -1.181969,5.630079 1.462662,5.9079 1.462662,0 0,-2.177071 -1.013992,5.008741 0.8776,8.012131 0.0241,0.03816 0.58507,-3.554348 0.58507,0 0,2.136232 2.90447,4.802497 3.80291,8.012132 0.15731,0.561704 0.19502,1.161177 0.29253,1.741767 0.0646,0.384898 0.21053,-1.588753 1.46266,1.393415 1.21893,2.903021 2.19767,1.375971 2.6328,-0.696708 0.0301,-0.143072 -0.59437,8.415869 0.58507,1.393418 0.11695,-0.696828 -0.79928,5.174281 2.34025,5.922011 2.32297,0.55325 1.47774,-7.574057 2.92534,1.04506 0.52643,3.13447 3.04479,-2.23239 3.21785,-2.43848 0.80408,-0.95753 1.24664,4.69473 1.75519,3.48354 1.07405,-2.558 0.28194,6.28719 2.92532,2.09012 1.44465,-2.29377 -1.05586,5.78594 1.7552,2.43848 2.30441,-2.74416 0.30801,2.52095 2.92531,1.74177 1.89994,-0.56562 -0.0366,-2.72883 2.34027,1.04506 1.06912,1.6975 1.25797,-8.29047 2.6328,-1.74177 0.92388,4.40079 3.11654,-0.98474 4.38798,-1.74177 0.76667,-0.45648 -0.003,5.23034 3.21785,1.39341 0.0472,-0.0562 -0.0862,3.58621 1.75519,1.39342 0.75488,-0.89891 -0.30416,2.8007 2.63279,-0.69671 2.34421,-2.79152 0.29416,0.87185 2.34026,2.09012 2.7501,1.63744 0.0608,-6.6141 3.21787,-0.34835 0.0964,0.19121 1.46266,-6.22751 1.46266,0 0,1.1648 1.27752,-5.50313 2.04773,0 0.12558,0.89763 1.71958,-2.0053 2.34027,-3.48354 1.01835,-2.42537 0.79256,6.32698 1.75517,1.74177 0.0528,-0.2519 0.19504,0.46447 0.29255,0.69671"
           id="path3356-4" />
        <path
           style="fill:none;stroke:#0000ff;stroke-width:1.13063812px;stroke-linecap:butt;stroke-linejoin:miter;stroke-opacity:1"
           d="m 68.41134,53.733759 c 0,0 14.515429,0.304222 22.021936,7.858327 7.506508,7.554107 7.203618,13.353286 10.431444,23.988582 3.22783,10.635295 8.41986,16.212492 16.03351,22.127402 7.61366,5.91491 19.1761,6.36468 26.46497,7.23793 7.28886,0.87325 14.29494,0 14.29494,0"
           id="path3172"
           inkscape:connector-curvature="0"
           sodipodi:nodetypes="czzzzc" />
      </g>
      <rect
         y="9.6358967"
         x="11.224566"
         height="30.763626"
         width="36.427265"
         id="rect3205"
         style="fill:none;stroke:#999999;stroke-width:0.96292943;stroke-linecap:round;stroke-linejoin:miter;stroke-miterlimit:4;stroke-opacity:1;stroke-dasharray:none;stroke-dashoffset:4.99999986" />
    </g>
    <g
       style="filter:url(#filter4042)"
       transform="matrix(0.85289382,0,0,0.94898488,-4.6554936,32.269953)"
       id="g4132">
      <g
         id="g4134"
         transform="matrix(0.36768642,0,0,0.43892197,-12.548001,-12.030753)">
        <path
           id="path4136"
           d="m 67.351426,52.074598 c -0.632556,1.415565 2.129572,3.381253 0,0 -0.632847,-1.004807 1.499384,1.916676 1.755197,3.13518 0.241344,1.149601 1.170128,-5.484166 1.170128,1.393416 0,1.398239 1.92828,-1.668234 2.63279,-2.786827 0.576219,-0.914906 0.238434,2.857808 1.170129,3.135177 2.354514,0.700951 -0.921851,-6.724117 2.047728,0.348356 0.272122,0.648097 1.511831,-0.05857 2.340265,-1.045059 0.284279,-0.338541 1.170123,-0.130421 1.170123,0.348353 0,5.460403 1.157034,-0.09531 1.755194,-1.04506 0.190191,-0.301982 0.392722,7.425139 2.04773,3.483536 1.823303,-4.342479 0.668212,0.146686 1.170124,3.135182 0.262185,1.56105 2.340265,-7.832357 2.340265,-2.786832 0,5.95163 0.847653,5.296613 2.632799,1.045065 0.515284,-1.22726 0.369997,7.827602 1.755178,4.528595 1.998973,-4.760838 0.796523,-1.17942 1.462675,2.786828 0.116284,0.692599 0.436378,-1.404897 0.292519,-2.090121 -0.274346,-1.306799 -0.631136,8.121879 0.58507,5.225304 1.921811,-4.577082 0.821458,1.536504 2.04773,3.483536 0.03871,0.06156 1.755194,-8.093778 1.755194,0.348353 0,6.125079 3.306096,-3.345359 0.877589,2.438475 -2.094542,4.988451 0.901559,-0.114084 0.292535,2.786829 -1.181969,5.630079 1.462662,5.9079 1.462662,0 0,-2.177071 -1.013992,5.008741 0.8776,8.012131 0.0241,0.03816 0.58507,-3.554348 0.58507,0 0,2.136232 2.90447,4.802497 3.80291,8.012132 0.15731,0.561704 0.19502,1.161177 0.29253,1.741767 0.0646,0.384898 0.21053,-1.588753 1.46266,1.393415 1.21893,2.903021 2.19767,1.375971 2.6328,-0.696708 0.0301,-0.143072 -0.59437,8.415869 0.58507,1.393418 0.11695,-0.696828 -0.79928,5.174281 2.34025,5.922011 2.32297,0.55325 1.47774,-7.574057 2.92534,1.04506 0.52643,3.13447 3.04479,-2.23239 3.21785,-2.43848 0.80408,-0.95753 1.24664,4.69473 1.75519,3.48354 1.07405,-2.558 0.28194,6.28719 2.92532,2.09012 1.44465,-2.29377 -1.05586,5.78594 1.7552,2.43848 2.30441,-2.74416 0.30801,2.52095 2.92531,1.74177 1.89994,-0.56562 -0.0366,-2.72883 2.34027,1.04506 1.06912,1.6975 1.25797,-8.29047 2.6328,-1.74177 0.92388,4.40079 3.11654,-0.98474 4.38798,-1.74177 0.76667,-0.45648 -0.003,5.23034 3.21785,1.39341 0.0472,-0.0562 -0.0862,3.58621 1.75519,1.39342 0.75488,-0.89891 -0.30416,2.8007 2.63279,-0.69671 2.34421,-2.79152 0.29416,0.87185 2.34026,2.09012 2.7501,1.63744 0.0608,-6.6141 3.21787,-0.34835 0.0964,0.19121 1.46266,-6.22751 1.46266,0 0,1.1648 1.27752,-5.50313 2.04773,0 0.12558,0.89763 1.71958,-2.0053 2.34027,-3.48354 1.01835,-2.42537 0.79256,6.32698 1.75517,1.74177 0.0528,-0.2519 0.19504,0.46447 0.29255,0.69671"
           style="fill:none;stroke:#ff8080;stroke-width:5.36258364;stroke-linecap:butt;stroke-linejoin:miter;stroke-miterlimit:4;stroke-opacity:1;stroke-dasharray:none"
           inkscape:connector-curvature="0" />
        <path
           sodipodi:nodetypes="czzzzc"
           inkscape:connector-curvature="0"
           id="path4138"
           d="m 68.41134,53.733759 c 0,0 14.515429,0.304222 22.021936,7.858327 7.506508,7.554107 7.203618,13.353286 10.431444,23.988582 3.22783,10.635295 8.41986,16.212492 16.03351,22.127402 7.61366,5.91491 19.1761,6.36468 26.46497,7.23793 7.28886,0.87325 14.29494,0 14.29494,0"
           style="fill:none;stroke:#0000ff;stroke-width:1.13063812px;stroke-linecap:butt;stroke-linejoin:miter;stroke-opacity:1" />
      </g>
      <rect
         style="fill:none;stroke:#999999;stroke-width:0.96292943;stroke-linecap:round;stroke-linejoin:miter;stroke-miterlimit:4;stroke-opacity:1;stroke-dasharray:none;stroke-dashoffset:4.99999986"
         id="rect4140"
         width="36.427265"
         height="30.763626"
         x="11.224566"
         y="9.6358967" />
    </g>
    <g
       style="filter:url(#filter4042)"
       transform="matrix(0.85289382,0,0,0.94898488,29.226068,-4.3138194)"
       id="g4142">
      <g
         id="g4144"
         transform="matrix(0.36768642,0,0,0.43892197,-12.548001,-12.030753)">
        <path
           id="path4146"
           d="m 67.351426,52.074598 c -0.632556,1.415565 2.129572,3.381253 0,0 -0.632847,-1.004807 1.499384,1.916676 1.755197,3.13518 0.241344,1.149601 1.170128,-5.484166 1.170128,1.393416 0,1.398239 1.92828,-1.668234 2.63279,-2.786827 0.576219,-0.914906 0.238434,2.857808 1.170129,3.135177 2.354514,0.700951 -0.921851,-6.724117 2.047728,0.348356 0.272122,0.648097 1.511831,-0.05857 2.340265,-1.045059 0.284279,-0.338541 1.170123,-0.130421 1.170123,0.348353 0,5.460403 1.157034,-0.09531 1.755194,-1.04506 0.190191,-0.301982 0.392722,7.425139 2.04773,3.483536 1.823303,-4.342479 0.668212,0.146686 1.170124,3.135182 0.262185,1.56105 2.340265,-7.832357 2.340265,-2.786832 0,5.95163 0.847653,5.296613 2.632799,1.045065 0.515284,-1.22726 0.369997,7.827602 1.755178,4.528595 1.998973,-4.760838 0.796523,-1.17942 1.462675,2.786828 0.116284,0.692599 0.436378,-1.404897 0.292519,-2.090121 -0.274346,-1.306799 -0.631136,8.121879 0.58507,5.225304 1.921811,-4.577082 0.821458,1.536504 2.04773,3.483536 0.03871,0.06156 1.755194,-8.093778 1.755194,0.348353 0,6.125079 3.306096,-3.345359 0.877589,2.438475 -2.094542,4.988451 0.901559,-0.114084 0.292535,2.786829 -1.181969,5.630079 1.462662,5.9079 1.462662,0 0,-2.177071 -1.013992,5.008741 0.8776,8.012131 0.0241,0.03816 0.58507,-3.554348 0.58507,0 0,2.136232 2.90447,4.802497 3.80291,8.012132 0.15731,0.561704 0.19502,1.161177 0.29253,1.741767 0.0646,0.384898 0.21053,-1.588753 1.46266,1.393415 1.21893,2.903021 2.19767,1.375971 2.6328,-0.696708 0.0301,-0.143072 -0.59437,8.415869 0.58507,1.393418 0.11695,-0.696828 -0.79928,5.174281 2.34025,5.922011 2.32297,0.55325 1.47774,-7.574057 2.92534,1.04506 0.52643,3.13447 3.04479,-2.23239 3.21785,-2.43848 0.80408,-0.95753 1.24664,4.69473 1.75519,3.48354 1.07405,-2.558 0.28194,6.28719 2.92532,2.09012 1.44465,-2.29377 -1.05586,5.78594 1.7552,2.43848 2.30441,-2.74416 0.30801,2.52095 2.92531,1.74177 1.89994,-0.56562 -0.0366,-2.72883 2.34027,1.04506 1.06912,1.6975 1.25797,-8.29047 2.6328,-1.74177 0.92388,4.40079 3.11654,-0.98474 4.38798,-1.74177 0.76667,-0.45648 -0.003,5.23034 3.21785,1.39341 0.0472,-0.0562 -0.0862,3.58621 1.75519,1.39342 0.75488,-0.89891 -0.30416,2.8007 2.63279,-0.69671 2.34421,-2.79152 0.29416,0.87185 2.34026,2.09012 2.7501,1.63744 0.0608,-6.6141 3.21787,-0.34835 0.0964,0.19121 1.46266,-6.22751 1.46266,0 0,1.1648 1.27752,-5.50313 2.04773,0 0.12558,0.89763 1.71958,-2.0053 2.34027,-3.48354 1.01835,-2.42537 0.79256,6.32698 1.75517,1.74177 0.0528,-0.2519 0.19504,0.46447 0.29255,0.69671"
           style="fill:none;stroke:#ff8080;stroke-width:5.36258364;stroke-linecap:butt;stroke-linejoin:miter;stroke-miterlimit:4;stroke-opacity:1;stroke-dasharray:none"
           inkscape:connector-curvature="0" />
        <path
           sodipodi:nodetypes="czzzzc"
           inkscape:connector-curvature="0"
           id="path4148"
           d="m 68.41134,53.733759 c 0,0 14.515429,0.304222 22.021936,7.858327 7.506508,7.554107 7.203618,13.353286 10.431444,23.988582 3.22783,10.635295 8.41986,16.212492 16.03351,22.127402 7.61366,5.91491 19.1761,6.36468 26.46497,7.23793 7.28886,0.87325 14.29494,0 14.29494,0"
           style="fill:none;stroke:#0000ff;stroke-width:1.13063812px;stroke-linecap:butt;stroke-linejoin:miter;stroke-opacity:1" />
      </g>
      <rect
         style="fill:none;stroke:#999999;stroke-width:0.96292943;stroke-linecap:round;stroke-linejoin:miter;stroke-miterlimit:4;stroke-opacity:1;stroke-dasharray:none;stroke-dashoffset:4.99999986"
         id="rect4150"
         width="36.427265"
         height="30.763626"
         x="11.224566"
         y="9.6358967" />
    </g>
    <g
       id="g4152"
       transform="matrix(0.85289382,0,0,0.94898488,29.226068,32.269953)"
       style="filter:url(#filter4042)">
      <g
         transform="matrix(0.36768642,0,0,0.43892197,-12.548001,-12.030753)"
         id="g4154">
        <path
           inkscape:connector-curvature="0"
           style="fill:none;stroke:#ff8080;stroke-width:5.36258364;stroke-linecap:butt;stroke-linejoin:miter;stroke-miterlimit:4;stroke-opacity:1;stroke-dasharray:none"
           d="m 67.351426,52.074598 c -0.632556,1.415565 2.129572,3.381253 0,0 -0.632847,-1.004807 1.499384,1.916676 1.755197,3.13518 0.241344,1.149601 1.170128,-5.484166 1.170128,1.393416 0,1.398239 1.92828,-1.668234 2.63279,-2.786827 0.576219,-0.914906 0.238434,2.857808 1.170129,3.135177 2.354514,0.700951 -0.921851,-6.724117 2.047728,0.348356 0.272122,0.648097 1.511831,-0.05857 2.340265,-1.045059 0.284279,-0.338541 1.170123,-0.130421 1.170123,0.348353 0,5.460403 1.157034,-0.09531 1.755194,-1.04506 0.190191,-0.301982 0.392722,7.425139 2.04773,3.483536 1.823303,-4.342479 0.668212,0.146686 1.170124,3.135182 0.262185,1.56105 2.340265,-7.832357 2.340265,-2.786832 0,5.95163 0.847653,5.296613 2.632799,1.045065 0.515284,-1.22726 0.369997,7.827602 1.755178,4.528595 1.998973,-4.760838 0.796523,-1.17942 1.462675,2.786828 0.116284,0.692599 0.436378,-1.404897 0.292519,-2.090121 -0.274346,-1.306799 -0.631136,8.121879 0.58507,5.225304 1.921811,-4.577082 0.821458,1.536504 2.04773,3.483536 0.03871,0.06156 1.755194,-8.093778 1.755194,0.348353 0,6.125079 3.306096,-3.345359 0.877589,2.438475 -2.094542,4.988451 0.901559,-0.114084 0.292535,2.786829 -1.181969,5.630079 1.462662,5.9079 1.462662,0 0,-2.177071 -1.013992,5.008741 0.8776,8.012131 0.0241,0.03816 0.58507,-3.554348 0.58507,0 0,2.136232 2.90447,4.802497 3.80291,8.012132 0.15731,0.561704 0.19502,1.161177 0.29253,1.741767 0.0646,0.384898 0.21053,-1.588753 1.46266,1.393415 1.21893,2.903021 2.19767,1.375971 2.6328,-0.696708 0.0301,-0.143072 -0.59437,8.415869 0.58507,1.393418 0.11695,-0.696828 -0.79928,5.174281 2.34025,5.922011 2.32297,0.55325 1.47774,-7.574057 2.92534,1.04506 0.52643,3.13447 3.04479,-2.23239 3.21785,-2.43848 0.80408,-0.95753 1.24664,4.69473 1.75519,3.48354 1.07405,-2.558 0.28194,6.28719 2.92532,2.09012 1.44465,-2.29377 -1.05586,5.78594 1.7552,2.43848 2.30441,-2.74416 0.30801,2.52095 2.92531,1.74177 1.89994,-0.56562 -0.0366,-2.72883 2.34027,1.04506 1.06912,1.6975 1.25797,-8.29047 2.6328,-1.74177 0.92388,4.40079 3.11654,-0.98474 4.38798,-1.74177 0.76667,-0.45648 -0.003,5.23034 3.21785,1.39341 0.0472,-0.0562 -0.0862,3.58621 1.75519,1.39342 0.75488,-0.89891 -0.30416,2.8007 2.63279,-0.69671 2.34421,-2.79152 0.29416,0.87185 2.34026,2.09012 2.7501,1.63744 0.0608,-6.6141 3.21787,-0.34835 0.0964,0.19121 1.46266,-6.22751 1.46266,0 0,1.1648 1.27752,-5.50313 2.04773,0 0.12558,0.89763 1.71958,-2.0053 2.34027,-3.48354 1.01835,-2.42537 0.79256,6.32698 1.75517,1.74177 0.0528,-0.2519 0.19504,0.46447 0.29255,0.69671"
           id="path4156" />
        <path
           style="fill:none;stroke:#0000ff;stroke-width:1.13063812px;stroke-linecap:butt;stroke-linejoin:miter;stroke-opacity:1"
           d="m 68.41134,53.733759 c 0,0 14.515429,0.304222 22.021936,7.858327 7.506508,7.554107 7.203618,13.353286 10.431444,23.988582 3.22783,10.635295 8.41986,16.212492 16.03351,22.127402 7.61366,5.91491 19.1761,6.36468 26.46497,7.23793 7.28886,0.87325 14.29494,0 14.29494,0"
           id="path4158"
           inkscape:connector-curvature="0"
           sodipodi:nodetypes="czzzzc" />
      </g>
      <rect
         y="9.6358967"
         x="11.224566"
         height="30.763626"
         width="36.427265"
         id="rect4160"
         style="fill:none;stroke:#999999;stroke-width:0.96292943;stroke-linecap:round;stroke-linejoin:miter;stroke-miterlimit:4;stroke-opacity:1;stroke-dasharray:none;stroke-dashoffset:4.99999986" />
    </g>
    <path
       d="m 41.879531,115.98249 c 0,0 24.309609,-24.309614 24.309609,-24.309614 0,0 -9.35314,2.913124 -19.60314,2.913124 0,10.25 -4.706469,21.39649 -4.706469,21.39649 z"
       id="path5540"
       style="opacity:0.4;fill:#000000;fill-opacity:1;filter:url(#filter6697-8)"
       sodipodi:nodetypes="cccc"
       clip-path="url(#clipPath7084-1-9)"
       transform="matrix(0.72610468,0,0,0.77792009,21.046104,-6.0579275)"
       inkscape:connector-curvature="0" />
    <path
       style="fill:url(#linearGradient10213-1);fill-opacity:1;stroke:#000000;stroke-width:0.76584333"
       id="path14523"
       d="m 51.632485,87.500343 c 0,0 9.215028,-7.517772 13.46908,-11.688422 4.254041,-4.170644 11.922157,-13.205018 11.922157,-13.205018 0,0 -10.635116,6.694267 -18.563114,6.694267 0,7.772562 -6.828123,18.199173 -6.828123,18.199173 z"
       sodipodi:nodetypes="csccc"
       inkscape:connector-curvature="0" />
    <text
       xml:space="preserve"
       style="font-size:84.4830246px;font-style:normal;font-weight:normal;line-height:125%;letter-spacing:0px;word-spacing:0px;fill:#0000ff;fill-opacity:1;stroke:none;font-family:Sans"
       x="10.150721"
       y="59.940334"
       id="text3178"
       sodipodi:linespacing="125%"
       transform="scale(0.97769792,1.0228108)"><tspan
         sodipodi:role="line"
         id="tspan3180"
         x="10.150721"
         y="59.940334"
         style="fill:#000080"><tspan
           style="font-style:normal;font-variant:normal;font-weight:normal;font-stretch:normal;fill:#000080;font-family:Times New Roman;-inkscape-font-specification:Times New Roman"
           id="tspan3182">χ</tspan><tspan
           style="fill:#000080;font-family:Times New Roman;-inkscape-font-specification:Times New Roman"
           id="tspan3190">²</tspan></tspan></text>
  </g>
</svg>
