<?xml version="1.0" encoding="UTF-8" standalone="no"?>
<!-- Created with Inkscape (http://www.inkscape.org/) -->

<svg
   xmlns:dc="http://purl.org/dc/elements/1.1/"
   xmlns:cc="http://creativecommons.org/ns#"
   xmlns:rdf="http://www.w3.org/1999/02/22-rdf-syntax-ns#"
   xmlns:svg="http://www.w3.org/2000/svg"
   xmlns="http://www.w3.org/2000/svg"
   xmlns:sodipodi="http://sodipodi.sourceforge.net/DTD/sodipodi-0.dtd"
   xmlns:inkscape="http://www.inkscape.org/namespaces/inkscape"
   width="150"
   height="150"
   id="svg2"
   version="1.1"
   inkscape:version="0.48.4 r9939"
   sodipodi:docname="New document 1">
  <defs
     id="defs4" />
  <sodipodi:namedview
     id="base"
     pagecolor="#ffffff"
     bordercolor="#666666"
     borderopacity="1.0"
     inkscape:pageopacity="0.0"
     inkscape:pageshadow="2"
     inkscape:zoom="0.35"
     inkscape:cx="375"
     inkscape:cy="520"
     inkscape:document-units="px"
     inkscape:current-layer="layer1"
     showgrid="false"
     inkscape:window-width="1814"
     inkscape:window-height="1174"
     inkscape:window-x="102"
     inkscape:window-y="-4"
     inkscape:window-maximized="1" />
  <metadata
     id="metadata7">
    <rdf:RDF>
      <cc:Work
         rdf:about="">
        <dc:format>image/svg+xml</dc:format>
        <dc:type
           rdf:resource="http://purl.org/dc/dcmitype/StillImage" />
        <dc:title></dc:title>
      </cc:Work>
    </rdf:RDF>
  </metadata>
  <g
     inkscape:label="Layer 1"
     inkscape:groupmode="layer"
     id="layer1"
     transform="translate(0,-902.36218)">
    <path
       sodipodi:type="spiral"
       style="fill:none;stroke:#000000;stroke-width:1px;stroke-linecap:butt;stroke-linejoin:miter;stroke-opacity:1"
       id="path2985"
       sodipodi:cx="71.428574"
       sodipodi:cy="81.428574"
       sodipodi:expansion="1"
       sodipodi:revolution="3"
       sodipodi:radius="64.775909"
       sodipodi:argument="-18.00174"
       sodipodi:t0="0"
       d="m 71.428574,81.428574 c 2.14879,2.435293 -2.222589,4.098014 -4.047617,3.57143 -4.945714,-1.427008 -5.350461,-7.901384 -3.095245,-11.666665 4.034052,-6.735203 13.430961,-6.966466 19.285713,-2.619058 8.592084,6.379996 8.6358,19.037513 2.142872,26.904761 C 77.060245,108.10485 61.042649,107.94722 51.190488,99.285728 38.792549,88.386118 39.157934,68.966736 49.999989,57.142871 63.131169,42.822586 85.973777,43.398992 99.761893,56.428558 116.01071,71.78345 115.22147,98.06179 100.00002,113.80951 c -17.573761,18.18137 -47.295779,17.17818 -65,-0.23806 C 14.883359,93.782014 16.101195,60.610946 35.714265,40.952403 57.717166,18.898487 94.341084,20.331454 115.95236,42.142834 139.94498,66.3576 138.29654,106.43716 114.28574,129.99998"
       transform="translate(0,902.36218)" />
  </g>
</svg>
