<?xml version="1.0" encoding="UTF-8" standalone="no"?>
<!-- Created with Inkscape (http://www.inkscape.org/) -->

<svg
   xmlns:dc="http://purl.org/dc/elements/1.1/"
   xmlns:cc="http://creativecommons.org/ns#"
   xmlns:rdf="http://www.w3.org/1999/02/22-rdf-syntax-ns#"
   xmlns:svg="http://www.w3.org/2000/svg"
   xmlns="http://www.w3.org/2000/svg"
   xmlns:xlink="http://www.w3.org/1999/xlink"
   xmlns:sodipodi="http://sodipodi.sourceforge.net/DTD/sodipodi-0.dtd"
   xmlns:inkscape="http://www.inkscape.org/namespaces/inkscape"
   width="200"
   height="75"
   id="svg2"
   version="1.1"
   inkscape:version="0.48.1 "
   sodipodi:docname="prolate.svg"
   inkscape:export-filename="prolate.png"
   inkscape:export-xdpi="120"
   inkscape:export-ydpi="120">
  <sodipodi:namedview
     id="base"
     pagecolor="#ffffff"
     bordercolor="#666666"
     borderopacity="1.0"
     inkscape:pageopacity="0.0"
     inkscape:pageshadow="2"
     inkscape:zoom="3.959798"
     inkscape:cx="34.996798"
     inkscape:cy="53.18338"
     inkscape:document-units="px"
     inkscape:current-layer="svg2"
     showgrid="false"
     inkscape:window-width="1680"
     inkscape:window-height="988"
     inkscape:window-x="1272"
     inkscape:window-y="-8"
     inkscape:window-maximized="1" />
  <defs
     id="defs4">
    <linearGradient
       id="linearGradient4368">
      <stop
         style="stop-color:#ffffff;stop-opacity:1;"
         offset="0"
         id="stop4370" />
      <stop
         style="stop-color:#353535;stop-opacity:0.84916198;"
         offset="1"
         id="stop4372" />
    </linearGradient>
    <inkscape:perspective
       id="perspective2986"
       inkscape:persp3d-origin="16 : 10.666667 : 1"
       inkscape:vp_z="32 : 16 : 1"
       inkscape:vp_y="0 : 1000 : 0"
       inkscape:vp_x="0 : 16 : 1"
       sodipodi:type="inkscape:persp3d" />
    <radialGradient
       inkscape:collect="always"
       xlink:href="#linearGradient4368"
       id="radialGradient4374"
       cx="66.710419"
       cy="20.310837"
       fx="66.710419"
       fy="20.310837"
       r="48.04538"
       gradientTransform="matrix(1.0877304,-0.15277051,0.05428814,0.38653311,-6.8061212,30.743463)"
       gradientUnits="userSpaceOnUse" />
    <radialGradient
       inkscape:collect="always"
       xlink:href="#linearGradient4368-4"
       id="radialGradient4374-3"
       cx="66.710419"
       cy="20.310837"
       fx="66.710419"
       fy="20.310837"
       r="48.04538"
       gradientTransform="matrix(1.0877304,-0.15277051,0.05428814,0.38653311,-6.8061212,30.743463)"
       gradientUnits="userSpaceOnUse" />
    <linearGradient
       id="linearGradient4368-4">
      <stop
         style="stop-color:#ffffff;stop-opacity:1;"
         offset="0"
         id="stop4370-6" />
      <stop
         style="stop-color:#353535;stop-opacity:0.84916198;"
         offset="1"
         id="stop4372-2" />
    </linearGradient>
  </defs>
  <metadata
     id="metadata7">
    <rdf:RDF>
      <cc:Work
         rdf:about="">
        <dc:format>image/svg+xml</dc:format>
        <dc:type
           rdf:resource="http://purl.org/dc/dcmitype/StillImage" />
        <dc:title></dc:title>
      </cc:Work>
    </rdf:RDF>
  </metadata>
  <path
     sodipodi:type="arc"
     style="opacity:0.70851853;fill:url(#radialGradient4374);fill-opacity:1;stroke:none"
     id="path3590"
     sodipodi:cx="49.560608"
     sodipodi:cy="39.388298"
     sodipodi:rx="48.04538"
     sodipodi:ry="27.779196"
     d="m 97.605988,39.388298 a 48.04538,27.779196 0 1 1 -96.0907597,0 48.04538,27.779196 0 1 1 96.0907597,0 z"
     transform="matrix(0.38768385,0,0,1.2360868,2.944642,-11.071028)" />
  <g
     transform="translate(0,-977.3622)"
     id="layer1"
     inkscape:groupmode="layer"
     inkscape:label="Ebene 1">
    <g
       id="g3127"
       transform="translate(29.378425,15.637881)"
       inkscape:label="WireframeSphere">
      <g
         id="g3129"
         inkscape:label="Lines of Longitude">
        <path
           d="M 1.5313594e-7,100 C -3.1563713,100 -5.7151159,55.228478 -5.715116,2.6794897e-6 -5.7151161,-55.228472 -3.1563716,-99.999999 -1.5313595e-7,-100 c 8.8413244e-8,0 1.76826483e-7,0 2.6523972e-7,0"
           id="path3131"
           sodipodi:cx="0"
           sodipodi:cy="0"
           transform="matrix(0.99919663,0.04007615,-0.04007615,0.99919663,0,0)"
           sodipodi:end="4.712389"
           sodipodi:start="1.5707963"
           sodipodi:open="true"
           sodipodi:type="arc"
           style="fill:none;stroke:#000000;stroke-width:1"
           sodipodi:ry="100"
           sodipodi:rx="5.715116" />
        <path
           d="M 7.1461938e-7,100 C -14.729423,100 -26.669981,55.228478 -26.669981,2.6794897e-6 -26.669981,-55.228472 -14.729425,-99.999999 -7.146194e-7,-100 c 4.1258645e-7,0 8.251729e-7,0 1.23775935e-6,0"
           id="path3133"
           sodipodi:cx="0"
           sodipodi:cy="0"
           transform="matrix(0.98104983,0.19375558,-0.19375558,0.98104983,0,0)"
           sodipodi:end="4.712389"
           sodipodi:start="1.5707963"
           sodipodi:open="true"
           sodipodi:type="arc"
           style="fill:none;stroke:#000000;stroke-width:1"
           sodipodi:ry="100"
           sodipodi:rx="26.669981" />
        <path
           d="M 1.2274045e-6,100 C -25.298727,100 -45.807399,55.228478 -45.8074,2.6794897e-6 -45.8074,-55.228472 -25.29873,-99.999999 -1.2274046e-6,-100 c 7.0864367e-7,0 1.41728731e-6,0 2.12593095e-6,0"
           id="path3135"
           sodipodi:cx="0"
           sodipodi:cy="0"
           transform="matrix(0.93263546,0.36082005,-0.36082005,0.93263546,0,0)"
           sodipodi:end="4.712389"
           sodipodi:start="1.5707963"
           sodipodi:open="true"
           sodipodi:type="arc"
           style="fill:none;stroke:#000000;stroke-width:1"
           sodipodi:ry="100"
           sodipodi:rx="45.8074" />
        <path
           d="M 1.6565459e-6,100 C -34.144003,100 -61.823188,55.228478 -61.823189,2.6794897e-6 -61.82319,-55.228472 -34.144006,-99.999999 -1.656546e-6,-100 c 9.5640902e-7,0 1.91281802e-6,0 2.869227e-6,0"
           id="path3137"
           sodipodi:cx="0"
           sodipodi:cy="0"
           transform="matrix(0.83467686,0.55074,-0.55074,0.83467686,0,0)"
           sodipodi:end="4.712389"
           sodipodi:start="1.5707963"
           sodipodi:open="true"
           sodipodi:type="arc"
           style="fill:none;stroke:#000000;stroke-width:1"
           sodipodi:ry="100"
           sodipodi:rx="61.823189" />
        <path
           d="M 1.9727984e-6,100 C -40.66246,100 -73.625899,55.228478 -73.6259,2.6794897e-6 -73.625901,-55.228472 -40.662464,-99.999999 -1.9727984e-6,-100 c 1.13899774e-6,0 2.2779955e-6,0 3.4169933e-6,0"
           id="path3139"
           sodipodi:cx="0"
           sodipodi:cy="0"
           transform="matrix(0.64779693,0.76181306,-0.76181306,0.64779693,0,0)"
           sodipodi:end="4.712389"
           sodipodi:start="1.5707963"
           sodipodi:open="true"
           sodipodi:type="arc"
           style="fill:none;stroke:#000000;stroke-width:1"
           sodipodi:ry="100"
           sodipodi:rx="73.6259" />
        <path
           d="M 2.1546096e-6,100 C -44.409874,100 -80.411193,55.228478 -80.411194,2.6794897e-6 -80.411195,-55.228472 -44.409878,-99.999999 -2.1546097e-6,-100 c 1.24396675e-6,0 2.48793348e-6,0 3.7319002e-6,0"
           id="path3141"
           sodipodi:cx="0"
           sodipodi:cy="0"
           transform="matrix(0.3209617,0.94709217,-0.94709217,0.3209617,0,0)"
           sodipodi:end="4.712389"
           sodipodi:start="1.5707963"
           sodipodi:open="true"
           sodipodi:type="arc"
           style="fill:none;stroke:#000000;stroke-width:1"
           sodipodi:ry="100"
           sodipodi:rx="80.411194" />
        <path
           d="M 1.6028976e-6,-100 C 45.130866,-99.999999 81.71666,-55.228473 81.71666,1.961531e-6 81.716659,55.228475 45.130866,99.999998 2.7762813e-6,100"
           id="path3143"
           sodipodi:cx="0"
           sodipodi:cy="0"
           transform="matrix(0.12101765,-0.99265036,0.99265036,0.12101765,0,0)"
           sodipodi:end="7.8539816"
           sodipodi:start="4.712389"
           sodipodi:open="true"
           sodipodi:type="arc"
           style="fill:none;stroke:#000000;stroke-width:1"
           sodipodi:ry="100"
           sodipodi:rx="81.71666" />
        <path
           d="M 1.5192714e-6,-100 C 42.776303,-99.999999 77.453347,-55.228473 77.453346,1.961531e-6 77.453345,55.228475 42.776303,99.999998 2.6314374e-6,100"
           id="path3145"
           sodipodi:cx="0"
           sodipodi:cy="0"
           transform="matrix(0.51469551,-0.85737304,0.85737304,0.51469551,0,0)"
           sodipodi:end="7.8539816"
           sodipodi:start="4.712389"
           sodipodi:open="true"
           sodipodi:type="arc"
           style="fill:none;stroke:#000000;stroke-width:1"
           sodipodi:ry="100"
           sodipodi:rx="77.453346" />
        <path
           d="M 1.3321106e-6,-100 C 37.506642,-99.999999 67.911782,-55.228473 67.911781,1.961531e-6 67.911781,55.228475 37.506642,99.999998 2.3072677e-6,100"
           id="path3147"
           sodipodi:cx="0"
           sodipodi:cy="0"
           transform="matrix(0.7618032,-0.64780852,0.64780852,0.7618032,0,0)"
           sodipodi:end="7.8539816"
           sodipodi:start="4.712389"
           sodipodi:open="true"
           sodipodi:type="arc"
           style="fill:none;stroke:#000000;stroke-width:1"
           sodipodi:ry="100"
           sodipodi:rx="67.911781" />
        <path
           d="M 1.0541701e-6,-100 C 29.681004,-99.999999 53.742211,-55.228473 53.74221,1.961531e-6 53.74221,55.228475 29.681004,99.999998 1.8258638e-6,100"
           id="path3149"
           sodipodi:cx="0"
           sodipodi:cy="0"
           transform="matrix(0.89492694,-0.44621271,0.44621271,0.89492694,0,0)"
           sodipodi:end="7.8539816"
           sodipodi:start="4.712389"
           sodipodi:open="true"
           sodipodi:type="arc"
           style="fill:none;stroke:#000000;stroke-width:1"
           sodipodi:ry="100"
           sodipodi:rx="53.74221" />
        <path
           d="M 7.0439095e-7,-100 C 19.832691,-99.999999 35.910263,-55.228473 35.910263,1.961531e-6 35.910263,55.228475 19.832691,99.999998 1.2200326e-6,100"
           id="path3151"
           sodipodi:cx="0"
           sodipodi:cy="0"
           transform="matrix(0.96302603,-0.26940838,0.26940838,0.96302603,0,0)"
           sodipodi:end="7.8539816"
           sodipodi:start="4.712389"
           sodipodi:open="true"
           sodipodi:type="arc"
           style="fill:none;stroke:#000000;stroke-width:1"
           sodipodi:ry="100"
           sodipodi:rx="35.910263" />
        <path
           d="M 3.0661001e-7,-100 C 8.6328504,-99.999999 15.631158,-55.228473 15.631158,1.961531e-6 15.631158,55.228475 8.6328503,99.999998 5.3106051e-7,100"
           id="path3153"
           sodipodi:cx="0"
           sodipodi:cy="0"
           transform="matrix(0.99384212,-0.11080541,0.11080541,0.99384212,0,0)"
           sodipodi:end="7.8539816"
           sodipodi:start="4.712389"
           sodipodi:open="true"
           sodipodi:type="arc"
           style="fill:none;stroke:#000000;stroke-width:1"
           sodipodi:ry="100"
           sodipodi:rx="15.631158" />
      </g>
      <g
         id="g3155"
         inkscape:label="Lines of Latitude">
        <path
           d="m 15.681883,98.7637 c -10.2616164,1.62942 -21.1021464,1.62942 -31.363763,10e-7"
           id="path3157"
           sodipodi:cx="0"
           sodipodi:cy="66.27079"
           sodipodi:end="1.8408634"
           sodipodi:start="1.3007292"
           sodipodi:open="true"
           sodipodi:type="arc"
           style="fill:none;stroke:#000000;stroke-width:1"
           sodipodi:ry="33.714977"
           sodipodi:rx="58.778526" />
        <path
           d="m 50.483136,86.322501 c -27.344805,15.992319 -72.11422,16.241669 -99.995286,0.556949 -0.326797,-0.183843 -0.650474,-0.369501 -0.970986,-0.556949"
           id="path3159"
           sodipodi:cx="0"
           sodipodi:cy="57.922798"
           sodipodi:end="2.3659045"
           sodipodi:start="0.77568815"
           sodipodi:open="true"
           sodipodi:type="arc"
           style="fill:none;stroke:#000000;stroke-width:1"
           sodipodi:ry="40.558979"
           sodipodi:rx="70.710678" />
        <path
           d="M 69.650363,71.755838 C 46.919886,93.819981 -2.6903355,101.13716 -41.157169,88.099214 -52.906053,84.117048 -62.707816,78.494867 -69.650362,71.755838"
           id="path3161"
           sodipodi:cx="0"
           sodipodi:cy="48.148548"
           sodipodi:end="2.607883"
           sodipodi:start="0.53370964"
           sodipodi:open="true"
           sodipodi:type="arc"
           style="fill:none;stroke:#000000;stroke-width:1"
           sodipodi:ry="46.404308"
           sodipodi:rx="80.901703" />
        <path
           d="M 83.23702,55.422364 C 65.680574,81.790497 14.181779,95.002614 -31.788758,84.932453 -55.477895,79.743185 -74.189987,69.01016 -83.237021,55.422363"
           id="path3163"
           sodipodi:cx="0"
           sodipodi:cy="37.188725"
           sodipodi:end="2.7767808"
           sodipodi:start="0.36481188"
           sodipodi:open="true"
           sodipodi:type="arc"
           style="fill:none;stroke:#000000;stroke-width:1"
           sodipodi:ry="51.107037"
           sodipodi:rx="89.100655" />
        <path
           d="M 92.61155,37.724237 C 80.661432,67.062032 29.510344,85.288399 -21.637603,78.433967 -56.869963,73.712413 -84.379919,57.933061 -92.611549,37.724239"
           id="path3165"
           sodipodi:cx="0"
           sodipodi:cy="25.31319"
           sodipodi:end="2.9120715"
           sodipodi:start="0.22952111"
           sodipodi:open="true"
           sodipodi:type="arc"
           style="fill:none;stroke:#000000;stroke-width:1"
           sodipodi:ry="54.551361"
           sodipodi:rx="95.105652" />
        <path
           d="M 98.159567,19.097233 C 92.110028,50.192526 43.258372,72.587304 -10.953659,69.11737 -56.828897,66.181046 -93.040335,45.410652 -98.159567,19.097232"
           id="path3167"
           sodipodi:cx="0"
           sodipodi:cy="12.814362"
           sodipodi:end="3.0304621"
           sodipodi:start="0.11113058"
           sodipodi:open="true"
           sodipodi:type="arc"
           style="fill:none;stroke:#000000;stroke-width:1"
           sodipodi:ry="56.652477"
           sodipodi:rx="98.768837" />
        <path
           d="M 100,0 C 100,31.678304 55.228475,57.358643 0,57.358643 -55.228475,57.358643 -100,31.678304 -100,0 c 0,-8.8734214e-7 0,-1.7746843e-6 0,-2.6620265e-6"
           id="path3169"
           sodipodi:cx="0"
           sodipodi:cy="5.0158598e-015"
           sodipodi:end="3.1415927"
           sodipodi:start="0"
           sodipodi:open="true"
           sodipodi:type="arc"
           style="fill:none;stroke:#000000;stroke-width:1"
           sodipodi:ry="57.358643"
           sodipodi:rx="100" />
        <path
           d="M 98.159566,-19.097235 C 104.20911,11.998058 65.165693,40.018711 10.953662,43.488646 -43.25837,46.958581 -92.110026,24.563804 -98.159566,-6.5314883 c -0.812361,-4.1756217 -0.812361,-8.3901207 -10e-7,-12.5657427"
           id="path3171"
           sodipodi:cx="0"
           sodipodi:cy="-12.814362"
           sodipodi:end="9.5359085"
           sodipodi:start="6.1720547"
           sodipodi:open="true"
           sodipodi:type="arc"
           style="fill:none;stroke:#000000;stroke-width:1"
           sodipodi:ry="56.652477"
           sodipodi:rx="98.768837" />
        <path
           d="M 92.61155,-37.724237 C 104.56167,-8.386442 72.785549,20.953155 21.637602,27.807586 -29.510344,34.662018 -80.661432,16.435651 -92.61155,-12.902144 c -3.325469,-8.164099 -3.325469,-16.657996 10e-7,-24.822095"
           id="path3173"
           sodipodi:cx="0"
           sodipodi:cy="-25.31319"
           sodipodi:end="9.6542991"
           sodipodi:start="6.0536642"
           sodipodi:open="true"
           sodipodi:type="arc"
           style="fill:none;stroke:#000000;stroke-width:1"
           sodipodi:ry="54.551361"
           sodipodi:rx="95.105652" />
        <path
           d="M 83.237019,-55.422365 C 100.79347,-29.054233 77.759296,0.48484148 31.78876,10.555003 -14.181776,20.625165 -65.680572,7.4130489 -83.237019,-18.955084 c -7.81818,-11.74217 -7.818181,-24.725107 -2e-6,-36.467278"
           id="path3175"
           sodipodi:cx="0"
           sodipodi:cy="-37.188725"
           sodipodi:end="9.7895898"
           sodipodi:start="5.9183734"
           sodipodi:open="true"
           sodipodi:type="arc"
           style="fill:none;stroke:#000000;stroke-width:1"
           sodipodi:ry="51.107037"
           sodipodi:rx="89.100655" />
        <path
           d="M 69.650364,-71.755837 C 92.380839,-49.691693 79.624,-21.235827 41.157166,-8.1978815 2.6903324,4.8400639 -46.919889,-2.4771158 -69.650364,-24.54126 c -15.001786,-14.562016 -15.001785,-32.652561 10e-7,-47.214578"
           id="path3177"
           sodipodi:cx="0"
           sodipodi:cy="-48.148548"
           sodipodi:end="9.9584876"
           sodipodi:start="5.7494757"
           sodipodi:open="true"
           sodipodi:type="arc"
           style="fill:none;stroke:#000000;stroke-width:1"
           sodipodi:ry="46.404308"
           sodipodi:rx="80.901703" />
        <path
           d="m 50.483138,-86.3225 c 27.344804,15.992318 26.910077,41.671632 -0.97099,57.356354 -27.881068,15.684723 -72.650482,15.435367 -99.995286,-0.556951 -26.970052,-15.773147 -26.970054,-41.026252 -3e-6,-56.799401"
           id="path3179"
           sodipodi:cx="0"
           sodipodi:cy="-57.922798"
           sodipodi:end="10.200466"
           sodipodi:start="5.5074972"
           sodipodi:open="true"
           sodipodi:type="arc"
           style="fill:none;stroke:#000000;stroke-width:1"
           sodipodi:ry="40.558979"
           sodipodi:rx="70.710678" />
        <path
           d="m 15.681883,-98.7637 c 31.285816,4.967815 49.626962,23.542596 40.966098,41.487935 -8.660865,17.945339 -41.044048,28.4657 -72.329864,23.497885 -31.285816,-4.967815 -49.626962,-23.542597 -40.966098,-41.487935 5.510057,-11.416855 21.062001,-20.337349 40.966088,-23.497884"
           id="path3181"
           sodipodi:cx="0"
           sodipodi:cy="-66.27079"
           sodipodi:end="10.725507"
           sodipodi:start="4.9824561"
           sodipodi:open="true"
           sodipodi:type="arc"
           style="fill:none;stroke:#000000;stroke-width:1"
           sodipodi:ry="33.714977"
           sodipodi:rx="58.778526" />
        <path
           d="m 45.399052,-72.986984 c 0,14.38195 -20.325848,26.040825 -45.399052,26.040825 -25.073204,0 -45.399052,-11.658875 -45.399052,-26.040825 0,-14.381951 20.325848,-26.040825 45.399052,-26.040825 25.073204,0 45.399052,11.658874 45.399052,26.040825 z"
           id="path3183"
           sodipodi:cx="0"
           sodipodi:cy="-72.986984"
           sodipodi:type="arc"
           style="fill:none;stroke:#000000;stroke-width:1"
           sodipodi:ry="26.040825"
           sodipodi:rx="45.399052" />
        <path
           d="m 30.901699,-77.905991 c 0,9.789516 -13.835162,17.725487 -30.901699,17.725487 -17.066537,0 -30.901699,-7.935971 -30.901699,-17.725487 0,-9.789516 13.835162,-17.725486 30.901699,-17.725486 17.066537,0 30.901699,7.93597 30.901699,17.725486 z"
           id="path3185"
           sodipodi:cx="0"
           sodipodi:cy="-77.905991"
           sodipodi:type="arc"
           style="fill:none;stroke:#000000;stroke-width:1"
           sodipodi:ry="17.725487"
           sodipodi:rx="30.901699" />
        <path
           d="m 15.643447,-80.906693 c 0,4.956045 -7.0038098,8.973712 -15.643447,8.973712 -8.6396372,0 -15.643447,-4.017667 -15.643447,-8.973712 0,-4.956044 7.0038098,-8.973711 15.643447,-8.973711 8.6396372,0 15.643447,4.017667 15.643447,8.973711 z"
           id="path3187"
           sodipodi:cx="0"
           sodipodi:cy="-80.906693"
           sodipodi:type="arc"
           style="fill:none;stroke:#000000;stroke-width:1"
           sodipodi:ry="8.973712"
           sodipodi:rx="15.643447" />
      </g>
      <path
         d="M 100,0 C 100,55.228475 55.228475,100 0,100 -55.228475,100 -100,55.228475 -100,0 c 0,-55.228475 44.771525,-100 100,-100 55.228475,0 100,44.771525 100,100 z"
         id="path3189"
         sodipodi:cx="0"
         sodipodi:cy="0"
         sodipodi:type="arc"
         style="fill:none;stroke:#000000;stroke-width:1"
         sodipodi:ry="100"
         sodipodi:rx="100" />
    </g>
  </g>
  <g
     id="g3471"
     transform="matrix(0.18515346,0,0,0.34185635,22.127537,37.57869)"
     inkscape:label="WireframeSphere">
    <g
       id="g3473"
       inkscape:label="Lines of Longitude">
      <path
         d="M 1.5313594e-7,100 C -3.1563713,100 -5.7151159,55.228478 -5.715116,2.6794897e-6 -5.7151161,-55.228472 -3.1563716,-99.999999 -1.5313595e-7,-100 c 8.8413244e-8,0 1.76826483e-7,0 2.6523972e-7,0"
         id="path3475"
         sodipodi:cx="0"
         sodipodi:cy="0"
         transform="matrix(0.99919663,0.04007615,-0.04007615,0.99919663,0,0)"
         sodipodi:end="4.712389"
         sodipodi:start="1.5707963"
         sodipodi:open="true"
         sodipodi:type="arc"
         style="fill:none;stroke:#000000;stroke-width:1"
         sodipodi:ry="100"
         sodipodi:rx="5.715116" />
      <path
         d="M 1.4108874e-6,100 C -29.080596,100 -52.655078,55.228478 -52.655079,2.6794897e-6 -52.65508,-55.228472 -29.080598,-99.999999 -1.4108874e-6,-100 c 8.1457768e-7,0 1.62915539e-6,0 2.4437331e-6,0"
         id="path3477"
         sodipodi:cx="0"
         sodipodi:cy="0"
         transform="matrix(0.90106988,0.43367392,-0.43367392,0.90106988,0,0)"
         sodipodi:end="4.712389"
         sodipodi:start="1.5707963"
         sodipodi:open="true"
         sodipodi:type="arc"
         style="fill:none;stroke:#000000;stroke-width:1"
         sodipodi:ry="100"
         sodipodi:rx="52.655079" />
      <path
         d="M 2.129738e-6,100 C -43.897231,100 -79.48297,55.228478 -79.482971,2.6794897e-6 -79.482972,-55.228472 -43.897235,-99.999999 -2.129738e-6,-100 c 1.22960702e-6,0 2.45921407e-6,0 3.6888211e-6,0"
         id="path3479"
         sodipodi:cx="0"
         sodipodi:cy="0"
         transform="matrix(0.39865476,0.91710107,-0.91710107,0.39865476,0,0)"
         sodipodi:end="4.712389"
         sodipodi:start="1.5707963"
         sodipodi:open="true"
         sodipodi:type="arc"
         style="fill:none;stroke:#000000;stroke-width:1"
         sodipodi:ry="100"
         sodipodi:rx="79.482971" />
      <path
         d="M 1.4898113e-6,-100 C 41.946831,-99.999999 75.951455,-55.228473 75.951454,1.961531e-6 75.951453,55.228475 41.946831,99.999998 2.5804114e-6,100"
         id="path3481"
         sodipodi:cx="0"
         sodipodi:cy="0"
         transform="matrix(0.57587309,-0.8175391,0.8175391,0.57587309,0,0)"
         sodipodi:end="7.8539816"
         sodipodi:start="4.712389"
         sodipodi:open="true"
         sodipodi:type="arc"
         style="fill:none;stroke:#000000;stroke-width:1"
         sodipodi:ry="100"
         sodipodi:rx="75.951454" />
      <path
         d="M 8.5148976e-7,-100 C 23.974376,-99.999999 43.409447,-55.228473 43.409447,1.961531e-6 43.409446,55.228475 23.974376,99.999998 1.4748135e-6,100"
         id="path3483"
         sodipodi:cx="0"
         sodipodi:cy="0"
         transform="matrix(0.94136339,-0.33739437,0.33739437,0.94136339,0,0)"
         sodipodi:end="7.8539816"
         sodipodi:start="4.712389"
         sodipodi:open="true"
         sodipodi:type="arc"
         style="fill:none;stroke:#000000;stroke-width:1"
         sodipodi:ry="100"
         sodipodi:rx="43.409447" />
    </g>
    <g
       id="g3485"
       inkscape:label="Lines of Latitude">
      <path
         d="m 15.681883,98.7637 c -10.2616164,1.62942 -21.1021464,1.62942 -31.363763,10e-7"
         id="path3487"
         sodipodi:cx="0"
         sodipodi:cy="66.27079"
         sodipodi:end="1.8408634"
         sodipodi:start="1.3007292"
         sodipodi:open="true"
         sodipodi:type="arc"
         style="fill:none;stroke:#000000;stroke-width:1"
         sodipodi:ry="33.714977"
         sodipodi:rx="58.778526" />
      <path
         d="M 69.650363,71.755838 C 46.919886,93.819981 -2.6903355,101.13716 -41.157169,88.099214 -52.906053,84.117048 -62.707816,78.494867 -69.650362,71.755838"
         id="path3489"
         sodipodi:cx="0"
         sodipodi:cy="48.148548"
         sodipodi:end="2.607883"
         sodipodi:start="0.53370964"
         sodipodi:open="true"
         sodipodi:type="arc"
         style="fill:none;stroke:#000000;stroke-width:1"
         sodipodi:ry="46.404308"
         sodipodi:rx="80.901703" />
      <path
         d="M 92.61155,37.724237 C 80.661432,67.062032 29.510344,85.288399 -21.637603,78.433967 -56.869963,73.712413 -84.379919,57.933061 -92.611549,37.724239"
         id="path3491"
         sodipodi:cx="0"
         sodipodi:cy="25.31319"
         sodipodi:end="2.9120715"
         sodipodi:start="0.22952111"
         sodipodi:open="true"
         sodipodi:type="arc"
         style="fill:none;stroke:#000000;stroke-width:1"
         sodipodi:ry="54.551361"
         sodipodi:rx="95.105652" />
      <path
         d="M 100,0 C 100,31.678304 55.228475,57.358643 0,57.358643 -55.228475,57.358643 -100,31.678304 -100,0 c 0,-8.8734214e-7 0,-1.7746843e-6 0,-2.6620265e-6"
         id="path3493"
         sodipodi:cx="0"
         sodipodi:cy="5.0158598e-015"
         sodipodi:end="3.1415927"
         sodipodi:start="0"
         sodipodi:open="true"
         sodipodi:type="arc"
         style="fill:none;stroke:#000000;stroke-width:1"
         sodipodi:ry="57.358643"
         sodipodi:rx="100" />
      <path
         d="M 92.61155,-37.724237 C 104.56167,-8.386442 72.785549,20.953155 21.637602,27.807586 -29.510344,34.662018 -80.661432,16.435651 -92.61155,-12.902144 c -3.325469,-8.164099 -3.325469,-16.657996 10e-7,-24.822095"
         id="path3495"
         sodipodi:cx="0"
         sodipodi:cy="-25.31319"
         sodipodi:end="9.6542991"
         sodipodi:start="6.0536642"
         sodipodi:open="true"
         sodipodi:type="arc"
         style="fill:none;stroke:#000000;stroke-width:1"
         sodipodi:ry="54.551361"
         sodipodi:rx="95.105652" />
      <path
         d="M 69.650364,-71.755837 C 92.380839,-49.691693 79.624,-21.235827 41.157166,-8.1978815 2.6903324,4.8400639 -46.919889,-2.4771158 -69.650364,-24.54126 c -15.001786,-14.562016 -15.001785,-32.652561 10e-7,-47.214578"
         id="path3497"
         sodipodi:cx="0"
         sodipodi:cy="-48.148548"
         sodipodi:end="9.9584876"
         sodipodi:start="5.7494757"
         sodipodi:open="true"
         sodipodi:type="arc"
         style="fill:none;stroke:#000000;stroke-width:1"
         sodipodi:ry="46.404308"
         sodipodi:rx="80.901703" />
      <path
         d="m 15.681883,-98.7637 c 31.285816,4.967815 49.626962,23.542596 40.966098,41.487935 -8.660865,17.945339 -41.044048,28.4657 -72.329864,23.497885 -31.285816,-4.967815 -49.626962,-23.542597 -40.966098,-41.487935 5.510057,-11.416855 21.062001,-20.337349 40.966088,-23.497884"
         id="path3499"
         sodipodi:cx="0"
         sodipodi:cy="-66.27079"
         sodipodi:end="10.725507"
         sodipodi:start="4.9824561"
         sodipodi:open="true"
         sodipodi:type="arc"
         style="fill:none;stroke:#000000;stroke-width:1"
         sodipodi:ry="33.714977"
         sodipodi:rx="58.778526" />
      <path
         d="m 30.901699,-77.905991 c 0,9.789516 -13.835162,17.725487 -30.901699,17.725487 -17.066537,0 -30.901699,-7.935971 -30.901699,-17.725487 0,-9.789516 13.835162,-17.725486 30.901699,-17.725486 17.066537,0 30.901699,7.93597 30.901699,17.725486 z"
         id="path3501"
         sodipodi:cx="0"
         sodipodi:cy="-77.905991"
         sodipodi:type="arc"
         style="fill:none;stroke:#000000;stroke-width:1"
         sodipodi:ry="17.725487"
         sodipodi:rx="30.901699" />
    </g>
    <path
       d="M 100,0 C 100,55.228475 55.228475,100 0,100 -55.228475,100 -100,55.228475 -100,0 c 0,-55.228475 44.771525,-100 100,-100 55.228475,0 100,44.771525 100,100 z"
       id="path3503"
       sodipodi:cx="0"
       sodipodi:cy="0"
       sodipodi:type="arc"
       style="fill:none;stroke:#000000;stroke-width:1"
       sodipodi:ry="100"
       sodipodi:rx="100" />
  </g>
  <path
     transform="matrix(0.3572769,0,0,1.2901365,155.40164,-13.210487)"
     sodipodi:type="arc"
     style="fill:none;stroke:#000000"
     id="path3590-0"
     sodipodi:cx="49.560608"
     sodipodi:cy="39.388298"
     sodipodi:rx="48.04538"
     sodipodi:ry="27.779196"
     d="m 97.605988,39.388298 a 48.04538,27.779196 0 1 1 -96.0907597,0 48.04538,27.779196 0 1 1 96.0907597,0 z" />
  <text
     xml:space="preserve"
     style="font-size:6.75720167px;font-style:normal;font-weight:normal;line-height:125%;letter-spacing:0px;word-spacing:0px;fill:#ff0000;fill-opacity:1;stroke:none;font-family:Sans"
     x="161.7556"
     y="44.734932"
     id="text4418"
     sodipodi:linespacing="125%"><tspan
       sodipodi:role="line"
       id="tspan4420"
       x="161.7556"
       y="44.734932">a</tspan></text>
  <text
     xml:space="preserve"
     style="font-size:6.75720167px;font-style:normal;font-weight:normal;line-height:125%;letter-spacing:0px;word-spacing:0px;fill:#0000ff;fill-opacity:1;stroke:none;font-family:Sans"
     x="175.19389"
     y="24.68413"
     id="text4422"
     sodipodi:linespacing="125%"><tspan
       sodipodi:role="line"
       id="tspan4424"
       x="175.19389"
       y="24.68413">b</tspan></text>
  <path
     style="fill:none;stroke:#0000ff;stroke-width:0.84465021px;stroke-linecap:butt;stroke-linejoin:miter;stroke-opacity:1"
     d="m 173.27415,1.4337282 0,71.6709468"
     id="path3049"
     inkscape:connector-curvature="0" />
  <path
     style="fill:none;stroke:#ff0000;stroke-width:0.84465021px;stroke-linecap:butt;stroke-linejoin:miter;stroke-opacity:1"
     d="m 156.20963,38.762347 33.70241,0"
     id="path3051"
     inkscape:connector-curvature="0" />
  <text
     xml:space="preserve"
     style="font-size:14.88647652px;font-style:normal;font-weight:normal;line-height:125%;letter-spacing:0px;word-spacing:0px;fill:#ff0000;fill-opacity:1;stroke:none;font-family:Sans"
     x="70.643967"
     y="42.321651"
     id="text4426"
     sodipodi:linespacing="125%"><tspan
       sodipodi:role="line"
       id="tspan4428"
       x="70.643967"
       y="42.321651"><tspan
   style="fill:#000000"
   id="tspan3055">p =</tspan><tspan
   style="fill:#0000ff"
   id="tspan3053"> b</tspan>/a <tspan
   style="fill:#000000"
   id="tspan3068">&gt;1</tspan></tspan></text>
</svg>
