<?xml version="1.0" encoding="UTF-8" standalone="no"?>
<!-- Creator: CorelDRAW -->

<svg
   xmlns:dc="http://purl.org/dc/elements/1.1/"
   xmlns:cc="http://creativecommons.org/ns#"
   xmlns:rdf="http://www.w3.org/1999/02/22-rdf-syntax-ns#"
   xmlns:svg="http://www.w3.org/2000/svg"
   xmlns="http://www.w3.org/2000/svg"
   xmlns:xlink="http://www.w3.org/1999/xlink"
   xmlns:sodipodi="http://sodipodi.sourceforge.net/DTD/sodipodi-0.dtd"
   xmlns:inkscape="http://www.inkscape.org/namespaces/inkscape"
   xml:space="preserve"
   width="210"
   height="340"
   style="fill-rule:evenodd"
   viewBox="0 0 210 340.31444"
   id="svg3132"
   version="1.1"
   inkscape:version="0.48.1 "
   sodipodi:docname="optics_setup.svg"
   inkscape:export-filename="optics_setup.png"
   inkscape:export-xdpi="91.259171"
   inkscape:export-ydpi="91.259171"><metadata
   id="metadata3277"><rdf:RDF><cc:Work
       rdf:about=""><dc:format>image/svg+xml</dc:format><dc:type
         rdf:resource="http://purl.org/dc/dcmitype/StillImage" /><dc:title /></cc:Work></rdf:RDF></metadata><sodipodi:namedview
   pagecolor="#ffffff"
   bordercolor="#666666"
   borderopacity="1"
   objecttolerance="10"
   gridtolerance="10"
   guidetolerance="10"
   inkscape:pageopacity="0"
   inkscape:pageshadow="2"
   inkscape:window-width="1680"
   inkscape:window-height="988"
   id="namedview3275"
   showgrid="false"
   inkscape:zoom="2.8882352"
   inkscape:cx="61.208923"
   inkscape:cy="100.14719"
   inkscape:window-x="1272"
   inkscape:window-y="-8"
   inkscape:window-maximized="1"
   inkscape:current-layer="svg3132" />
 <defs
   id="defs3134"><linearGradient
   id="linearGradient3837"><stop
     style="stop-color:#0008ff;stop-opacity:1;"
     offset="0"
     id="stop3839" /><stop
     id="stop3849"
     offset="0.10448955"
     style="stop-color:#00fffa;stop-opacity:1;" /><stop
     id="stop3847"
     offset="0.43805236"
     style="stop-color:#18ff00;stop-opacity:1;" /><stop
     id="stop3845"
     offset="0.74541283"
     style="stop-color:#fff800;stop-opacity:1;" /><stop
     style="stop-color:#ff0005;stop-opacity:1;"
     offset="1"
     id="stop3841" /></linearGradient>
  <style
   type="text/css"
   id="style3136">
   
    .str1 {stroke:black;stroke-width:0.123009}
    .str0 {stroke:#8CACE0;stroke-width:0.123009}
    .fil7 {fill:none;fill-rule:nonzero}
    .fil13 {fill:black}
    .fil14 {fill:lime}
    .fil2 {fill:#B2B2B2}
    .fil16 {fill:yellow}
    .fil6 {fill:#8CACE0}
    .fil0 {fill:#E4E4E3}
    .fil3 {fill:black;fill-rule:nonzero}
    .fil9 {fill:blue;fill-rule:nonzero}
    .fil15 {fill:#333333;fill-rule:nonzero}
    .fil1 {fill:#666666;fill-rule:nonzero}
    .fil4 {fill:#8CD1B4;fill-opacity:0.600000}
    .fil5 {fill:#006633;fill-rule:nonzero;fill-opacity:0.600000}
    .fil11 {fill:#009933;fill-opacity:0.690196}
    .fil12 {fill:#009933;fill-rule:nonzero;fill-opacity:0.690196}
    .fil8 {fill:#CCCCCC;fill-opacity:0.749020}
    .fil10 {fill:black;fill-rule:nonzero;fill-opacity:0.749020}
   
  </style>
   <mask
   id="id0">
  <linearGradient
   id="id1"
   gradientUnits="userSpaceOnUse"
   x1="184.106"
   y1="291.76401"
   x2="247.651"
   y2="291.047">
   <stop
   offset="0"
   style="stop-opacity:1; stop-color:white"
   id="stop3140" />
   <stop
   offset="0.368627"
   style="stop-opacity:0.501961; stop-color:white"
   id="stop3142" />
   <stop
   offset="1"
   style="stop-opacity:0; stop-color:white"
   id="stop3144" />
  </linearGradient>
    <rect
   style="fill:url(#id1)"
   x="163.054"
   y="273.87"
   width="105.649"
   height="35.070801"
   id="rect3146" />
   </mask>
 
  
  
  
  
  
  
  
  
  
  
  
  
  
  
  
  
  
  
  
  
  
  
  
 <linearGradient
   inkscape:collect="always"
   xlink:href="#linearGradient3837"
   id="linearGradient3856"
   gradientUnits="userSpaceOnUse"
   x1="90.081558"
   y1="22.061825"
   x2="110.46931"
   y2="22.061825"
   gradientTransform="translate(-2.1708551,-0.01747507)" /></defs>
 <rect
   style="fill:#f2f2f2;fill-rule:evenodd;stroke:#000000;stroke-width:1.00092471;stroke-miterlimit:4;stroke-dasharray:1.0009248, 1.0009248;stroke-dashoffset:0"
   id="rect4057-6"
   width="78.649162"
   height="75.417"
   x="238.38799"
   y="-138.96915"
   transform="matrix(0,1,-1,0,0,0)" /><rect
   style="fill:#f2f2f2;stroke:#000000;stroke-width:1.00092471;stroke-miterlimit:4;stroke-dasharray:1.00092481, 1.00092481;stroke-dashoffset:0"
   id="rect4057"
   width="76.617622"
   height="75.417"
   x="132.02248"
   y="157.40451" /><g
   id="g3150"
   transform="matrix(1.3669479,0,0,-1.1434898,-193.50645,432.73102)">
   <polygon
   style="fill:#e4e4e3"
   id="polygon3152"
   points="185.497,265.125 246.213,265.125 246.213,325.841 185.497,325.841 "
   class="fil0" />
   <path
   style="fill:#666666;fill-rule:nonzero"
   inkscape:connector-curvature="0"
   d="m 246.515,265.125 -0.30123,0.30123 -60.7162,0 0,-0.60246 60.7162,0 0.30123,0.30123 z m -0.30123,-0.30123 0.30123,0 0,0.30123 -0.30123,-0.30123 z m 0,61.3186 -0.30122,-0.30122 0,-60.7162 0.60245,0 0,60.7162 -0.30123,0.30122 z m 0.30123,-0.30122 0,0.30122 -0.30123,0 0.30123,-0.30122 z m -61.3186,0 0.30123,-0.30123 60.7162,0 0,0.60245 -60.7162,0 -0.30123,-0.30122 z m 0.30123,0.30122 -0.30123,0 0,-0.30122 0.30123,0.30122 z m 0,-61.3186 0.30122,0.30123 0,60.7162 -0.60245,0 0,-60.7162 0.30123,-0.30123 z m -0.30123,0.30123 0,-0.30123 0.30123,0 -0.30123,0.30123 z"
   class="fil1"
   id="1" />
  </g><g
   id="g3155"
   transform="matrix(1.0182821,0,0,-0.54848246,-117.89218,263.9448)">
   <polygon
   style="fill:#b2b2b2"
   id="polygon3157"
   points="207.362,277.738 224.988,277.738 240.42,265.125 240.42,204.408 191.328,204.408 191.328,265.125 "
   class="fil2" />
   <path
   style="fill:#000000;fill-rule:nonzero"
   inkscape:connector-curvature="0"
   d="m 240.722,265.125 -0.1109,0.23294 -15.4319,12.6131 -0.38226,-0.46588 15.4319,-12.6131 0.49316,0.23294 z m 0,0 0,0.14222 -0.1109,0.0907 0.1109,-0.23294 z m -0.30203,-61.0176 0.30203,0.30123 0,60.7164 -0.60407,0 0,-60.7164 0.30204,-0.30123 z m 0,0 0.30203,0 0,0.30123 -0.30203,-0.30123 z m -49.3949,0.30123 0.30203,-0.30123 49.0928,0 0,0.60245 -49.0928,0 -0.30203,-0.30123 z m 0,0 0,-0.30123 0.30203,0 -0.30203,0.30123 z m 0.11558,60.9528 -0.11558,-0.2365 0,-60.7164 0.60406,0 0,60.7164 -0.48848,0.2365 z m 0,0 -0.11558,-0.0909 0,-0.14561 0.11558,0.2365 z m 16.2208,12.6778 -0.18645,-0.0647 -16.0344,-12.6131 0.3729,-0.47298 16.0344,12.6131 -0.18645,0.53772 z m 0,0 -0.10412,0 -0.0823,-0.0647 0.18645,0.0647 z m 17.8177,-0.0683 -0.19113,0.0683 -17.6265,0 0,-0.60246 17.6265,0 0.19113,0.53417 z m 0,0 -0.0836,0.0683 -0.10751,0 0.19113,-0.0683 z"
   class="fil3"
   id="path3159" />
  </g><g
   id="g3175"
   transform="matrix(0.887401,0,0,-1.3669479,-93.717136,491.90805)">
   <g
   id="g3177">
    <path
   style="fill:#b2b2b2"
   inkscape:connector-curvature="0"
   id="path3179"
   d="m 155.258,269.009 7.95794,3.16674 c -3.65959,3.61503 -4.51241,11.1536 -4.68982,19.3564 -0.18871,8.73216 0.70464,15.4232 4.70371,19.3924 l -7.97183,4.26882 -37.9477,0 0,-46.1844 37.9477,0 z"
   class="fil2" />
    <path
   style="fill:#000000;fill-rule:nonzero"
   inkscape:connector-curvature="0"
   d="m 163.478,272.257 -0.43763,0.0534 -7.95794,-3.16674 0.35062,-0.26958 7.95794,3.16674 0.087,0.21615 z m -0.087,-0.21615 0.21793,0.0867 -0.13092,0.12947 -0.087,-0.21615 z m -4.56504,19.4931 -0.60019,-0.004 0,0 0.0187,-0.76694 0.0229,-0.76308 0.0278,-0.75807 0.0329,-0.75242 0.0384,-0.74612 0.0444,-0.73983 0.0505,-0.73175 0.0573,-0.72352 0.0644,-0.71578 0.0718,-0.70625 0.0797,-0.69672 0.088,-0.68608 0.0965,-0.67493 0.10702,-0.66347 0.11494,-0.65169 0.12495,-0.63893 0.13624,-0.62489 0.14561,-0.61198 0.15659,-0.5968 0.16917,-0.58227 0.18097,-0.56629 0.19323,-0.5508 0.20549,-0.53303 0.21858,-0.51657 0.23213,-0.49769 0.24667,-0.48025 0.26103,-0.46104 0.27652,-0.4407 0.29138,-0.42084 0.30801,-0.40034 0.32463,-0.37936 0.34094,-0.3574 0.52464,0.16272 -0.32899,0.34319 -0.31301,0.36612 -0.29832,0.38872 -0.2846,0.41052 -0.26942,0.43166 -0.25619,0.45167 -0.24214,0.47121 -0.22955,0.49123 -0.21632,0.50882 -0.20324,0.52787 -0.19064,0.54402 -0.17871,0.56112 -0.16691,0.57711 -0.15659,0.59293 -0.14561,0.60681 -0.13398,0.6223 -0.12495,0.63506 -0.11494,0.64782 -0.10444,0.66089 -0.0965,0.67235 -0.088,0.68349 -0.0797,0.69382 -0.0718,0.70366 -0.0644,0.71319 -0.0573,0.72223 -0.0505,0.73047 -0.0444,0.73724 -0.0384,0.74483 -0.0329,0.75113 -0.0278,0.75678 -0.0229,0.76178 -0.0187,0.76695 0,0 z m 4.61298,19.5096 -0.41875,-0.23827 -0.0529,0.19985 -0.37177,-0.38517 -0.35289,-0.40196 -0.33399,-0.416 -0.31721,-0.43247 -0.30026,-0.44699 -0.28266,-0.4625 -0.267,-0.47718 -0.25102,-0.4922 -0.23504,-0.50704 -0.21987,-0.52109 -0.20534,-0.53595 -0.19145,-0.54998 -0.17757,-0.565 -0.16417,-0.57872 -0.14997,-0.59277 -0.13851,-0.60633 -0.1251,-0.62085 -0.11333,-0.63393 -0.10283,-0.64781 -0.0906,-0.66073 -0.0797,-0.67493 -0.0694,-0.68753 -0.0592,-0.70124 -0.0496,-0.71384 -0.0404,-0.72675 -0.0313,-0.73886 -0.0228,-0.75226 -0.0147,-0.76485 -0.007,-0.77663 6.5e-4,-0.78842 0.008,-0.80117 0.0145,-0.81392 0.60019,0.004 -0.0145,0.81134 -0.008,0.79987 -6.5e-4,0.78842 0.007,0.77534 0.0147,0.76227 0.0228,0.74967 0.0313,0.73757 0.0404,0.72417 0.0496,0.71125 0.0592,0.69737 0.0694,0.68494 0.0797,0.67074 0.0906,0.65814 0.10025,0.64394 0.11332,0.63006 0.12511,0.61569 0.13625,0.60245 0.14996,0.5876 0.16192,0.57356 0.17531,0.55854 0.18887,0.5445 0.20308,0.52948 0.2176,0.51464 0.23246,0.4993 0.2465,0.48444 0.26216,0.46911 0.27814,0.45346 0.29316,0.43795 0.3101,0.42214 0.32689,0.40696 0.34352,0.39001 0.35983,0.37484 -0.053,0.19985 z m 0.053,-0.19985 0.11219,0.11138 -0.16514,0.0885 0.053,-0.19985 z m -8.23415,4.51613 -0.20937,-0.28573 7.97183,-4.26882 0.41874,0.23827 -7.97183,4.26882 -0.20937,0.0475 z m 0.20937,-0.0475 -0.0886,0.0475 -0.12075,0 0.20937,-0.0475 z m -38.4583,-0.11914 0.30123,-0.16659 37.9477,0 0,0.33319 -37.9477,0 -0.30123,-0.16659 z m 0.30123,0.1666 -0.30123,0 0,-0.1666 0.30123,0.1666 z m 0,-46.5176 0.30122,0.16659 0,46.1844 -0.60245,0 0,-46.1844 0.30123,-0.16659 z m -0.30123,0.16659 0,-0.16659 0.30123,0 -0.30123,0.16659 z m 38.4242,-0.13479 -0.17531,0.30139 -37.9477,0 0,-0.33319 37.9477,0 0.17531,0.0318 z m -0.17531,-0.0318 0.0954,0 0.0799,0.0318 -0.17531,-0.0318 z"
   class="fil3"
   id="path3181" />
   </g>
   <g
   id="g3183">
    <path
   style="fill:#cccccc;fill-opacity:0.74901997"
   inkscape:connector-curvature="0"
   id="path3185"
   d="m 163.231,310.925 c 6.05551,-4.30691 6.48781,-33.9772 0,-38.7627 -6.48781,4.78555 -6.05535,34.4558 0,38.7627 z"
   class="fil8" />
    <path
   style="fill:none;stroke:#000000;stroke-width:0.123009"
   inkscape:connector-curvature="0"
   d="m 163.231,310.925 c 6.05551,-4.30691 6.48781,-33.9772 0,-38.7627 -6.48781,4.78555 -6.05535,34.4558 0,38.7627 z"
   class="fil7 str1"
   id="path3187" />
   </g>
  </g><g
   id="g3189"
   transform="matrix(0.97855946,0,0,-1.3669479,-109.02232,491.90805)">
   <path
   style="fill:#0000ff;fill-rule:nonzero"
   inkscape:connector-curvature="0"
   id="path3191"
   d="m 163.486,273.827 -0.23536,0.86074 -49.78272,0.0552 -0.18577,-0.89593 49.96849,-0.0552 0.23536,0.0352 z m -0.23536,-0.0352 0.12446,-1.6e-4 0.1109,0.0353 -0.23536,-0.0352 z m 53.0051,17.6438 -0.47783,0.002 -52.7626,-16.7849 0.47072,-0.82554 52.7626,16.7849 0.007,0.82377 z m -0.007,-0.82377 1.27609,0.40599 -1.26899,0.41778 -0.007,-0.82377 z m -53.358,18.3523 -0.24246,-0.85896 53.1226,-17.4916 0.48493,0.82199 -53.1226,17.4916 -0.24247,0.037 z m 0.24247,-0.037 -0.11219,0.037 -0.13028,0 z m -49.47944,-0.85944 49.23694,4.8e-4 0,0.89593 -49.23694,-4.9e-4 z"
   class="fil9"
   sodipodi:nodetypes="cccccccccccccccccccccccccccccccccccccccc" />
  </g><g
   id="g3205"
   transform="matrix(1.3669479,0,0,-1.3669479,-193.50645,491.90805)">
   <path
   style="fill:#009933;fill-opacity:0.69019596"
   inkscape:connector-curvature="0"
   id="path3207"
   d="m 215.878,283.421 c 4.02167,0 7.28301,3.26134 7.28301,7.28301 0,4.02167 -3.26134,7.28317 -7.28301,7.28317 -4.02167,0 -7.28317,-3.2615 -7.28317,-7.28317 0,-4.02167 3.2615,-7.28301 7.28317,-7.28301 z"
   class="fil11" />
   <path
   style="fill:#009933;fill-opacity:0.69019596;fill-rule:nonzero"
   inkscape:connector-curvature="0"
   d="m 223.463,290.704 -0.60245,0 0,0 -0.008,-0.36063 -0.0268,-0.3545 -0.0452,-0.34917 -0.0605,-0.34319 -0.0778,-0.33836 -0.0948,-0.33028 -0.10961,-0.32544 -0.12462,-0.31656 -0.14012,-0.30849 -0.15368,-0.30107 -0.16821,-0.29331 -0.18241,-0.2825 -0.19372,-0.27379 -0.20808,-0.26442 -0.21954,-0.25247 -0.23165,-0.24247 -0.24247,-0.23165 -0.25247,-0.21954 -0.26442,-0.20808 -0.27378,-0.19371 -0.2825,-0.18242 -0.29332,-0.16821 -0.30106,-0.15368 -0.30849,-0.14012 -0.31656,-0.12462 -0.32544,-0.10961 -0.33029,-0.0948 -0.33835,-0.0778 -0.3432,-0.0605 -0.34917,-0.0452 -0.35449,-0.0268 -0.36064,-0.008 0,-0.60246 0.38872,0.0107 0.38517,0.0294 0.37984,0.0475 0.37387,0.0676 0.36645,0.0849 0.36095,0.10154 0.35127,0.11929 0.34497,0.13625 0.33658,0.15174 0.32689,0.16789 0.31689,0.18241 0.30833,0.19662 0.29735,0.21244 0.28573,0.22455 0.27604,0.23827 0.26345,0.2507 0.2507,0.26345 0.23827,0.27604 0.22455,0.28573 0.21244,0.29735 0.19662,0.30833 0.18241,0.31689 0.16789,0.32689 0.15174,0.33658 0.13625,0.34497 0.11929,0.35127 0.10154,0.36095 0.0849,0.36645 0.0676,0.37387 0.0475,0.37984 0.0294,0.38517 0.0107,0.38872 0,0 z m -7.58424,7.5844 0,-0.60245 0,0 0.36063,-0.008 0.3545,-0.0268 0.34917,-0.0452 0.34319,-0.0605 0.33836,-0.0778 0.33028,-0.0948 0.32544,-0.10961 0.31656,-0.12462 0.30849,-0.14012 0.30107,-0.15368 0.29331,-0.16837 0.2825,-0.18225 0.27379,-0.19372 0.26442,-0.20808 0.25247,-0.21954 0.24247,-0.23165 0.23165,-0.24247 0.21954,-0.25247 0.20695,-0.26458 0.19484,-0.27378 0.18242,-0.2825 0.16821,-0.29332 0.15368,-0.30106 0.14012,-0.30849 0.12462,-0.31656 0.10961,-0.32544 0.0948,-0.33029 0.0778,-0.33835 0.0605,-0.3432 0.0452,-0.34917 0.0268,-0.3545 0.008,-0.36063 0.60246,0 -0.0107,0.38872 -0.0294,0.38517 -0.0475,0.37984 -0.0676,0.37387 -0.0849,0.36645 -0.10154,0.36095 -0.11929,0.35127 -0.13625,0.34497 -0.15174,0.33658 -0.16789,0.32689 -0.18241,0.31689 -0.19662,0.30833 -0.21131,0.29735 -0.22568,0.28589 -0.23827,0.27604 -0.2507,0.26345 -0.26345,0.2507 -0.27604,0.23827 -0.28573,0.22455 -0.29735,0.21244 -0.30833,0.19646 -0.31689,0.18257 -0.32689,0.16789 -0.33658,0.15174 -0.34497,0.13625 -0.35127,0.11929 -0.36095,0.10154 -0.36645,0.0849 -0.37387,0.0676 -0.37984,0.0475 -0.38517,0.0294 -0.38872,0.0107 0,0 z m -7.5844,-7.5844 0.60245,0 0,0 0.008,0.36063 0.0268,0.3545 0.0452,0.34917 0.0605,0.34319 0.0778,0.33836 0.0948,0.33028 0.10961,0.32544 0.12462,0.31656 0.14012,0.30849 0.15368,0.30107 0.16837,0.29331 0.18225,0.2825 0.19485,0.27379 0.20695,0.26458 0.21954,0.25247 0.23165,0.24247 0.24247,0.23165 0.25247,0.21954 0.26458,0.20695 0.27378,0.19484 0.2825,0.18226 0.29332,0.16837 0.30106,0.15368 0.30849,0.14012 0.31656,0.12462 0.32544,0.10961 0.33029,0.0948 0.33835,0.0778 0.3432,0.0605 0.34917,0.0452 0.3545,0.0268 0.36063,0.008 0,0.60245 -0.38872,-0.0107 -0.38517,-0.0294 -0.37984,-0.0475 -0.37387,-0.0676 -0.36645,-0.0849 -0.36095,-0.10154 -0.35127,-0.11929 -0.34497,-0.13625 -0.33658,-0.15174 -0.32689,-0.16789 -0.31689,-0.18257 -0.30833,-0.19646 -0.29735,-0.21131 -0.28589,-0.22568 -0.27604,-0.23827 -0.26345,-0.2507 -0.2507,-0.26345 -0.23827,-0.27604 -0.22568,-0.28589 -0.21131,-0.29735 -0.19646,-0.30833 -0.18257,-0.31689 -0.16789,-0.32689 -0.15174,-0.33658 -0.13625,-0.34497 -0.11929,-0.35127 -0.10154,-0.36095 -0.0849,-0.36645 -0.0676,-0.37387 -0.0475,-0.37984 -0.0294,-0.38517 -0.0107,-0.38872 0,0 z m 7.5844,-7.58424 0,0.60245 0,0 -0.36063,0.008 -0.3545,0.0268 -0.34917,0.0452 -0.3432,0.0605 -0.33835,0.0778 -0.33028,0.0948 -0.32544,0.10961 -0.31656,0.12462 -0.30849,0.14012 -0.30107,0.15368 -0.29331,0.16821 -0.2825,0.18241 -0.27379,0.19485 -0.26458,0.20695 -0.25247,0.21954 -0.24247,0.23165 -0.23165,0.24247 -0.21954,0.25247 -0.20808,0.26442 -0.19372,0.27378 -0.18225,0.2825 -0.16837,0.29332 -0.15368,0.30106 -0.14012,0.30849 -0.12462,0.31656 -0.10961,0.32544 -0.0948,0.33029 -0.0778,0.33835 -0.0605,0.3432 -0.0452,0.34917 -0.0268,0.35449 -0.008,0.36064 -0.60245,0 0.0107,-0.38872 0.0294,-0.38517 0.0475,-0.37984 0.0676,-0.37387 0.0849,-0.36645 0.10154,-0.36095 0.11929,-0.35127 0.13625,-0.34497 0.15174,-0.33658 0.16789,-0.32689 0.18257,-0.31689 0.19646,-0.30833 0.21244,-0.29735 0.22455,-0.28573 0.23827,-0.27604 0.2507,-0.26345 0.26345,-0.2507 0.27604,-0.23827 0.28589,-0.22568 0.29735,-0.21131 0.30833,-0.19662 0.31689,-0.18241 0.32689,-0.16789 0.33658,-0.15174 0.34497,-0.13625 0.35127,-0.11929 0.36095,-0.10154 0.36645,-0.0849 0.37387,-0.0676 0.37984,-0.0475 0.38517,-0.0294 0.38872,-0.0107 0,0 z"
   class="fil12"
   id="path3209" />
  </g><g
   id="g3211"
   transform="matrix(1.3669479,0,0,-1.3669479,-193.50645,356.0777)">
   <polygon
   style="fill:#000000"
   id="polygon3213"
   points="231.034,29.849 200.533,29.849 200.533,37.4384 231.034,37.4384 "
   class="fil13" />
   <path
   style="fill:#000000;fill-rule:nonzero"
   inkscape:connector-curvature="0"
   d="m 231.337,37.4384 -0.30268,0.301226 -30.5016,0 0,-0.602451 30.5016,0 0.30268,0.301226 z m 0,0 0,0.301226 -0.30268,0 0.30268,-0.301226 z m -0.30268,-7.89063 0.30268,0.301226 0,7.5894 -0.60536,0 0,-7.5894 0.30268,-0.301226 z m 0,0 0.30268,0 0,0.301226 -0.30268,-0.301226 z m -30.8043,0.301226 0.30268,-0.301226 30.5016,0 0,0.602451 -30.5016,0 -0.30268,-0.301226 z m 0,0 0,-0.301226 0.30268,0 -0.30268,0.301226 z m 0.30268,7.89063 -0.30268,-0.301226 0,-7.5894 0.60536,0 0,7.5894 -0.30268,0.301226 z m 0,0 -0.30268,0 0,-0.301226 0.30268,0.301226 z"
   class="fil3"
   id="path3215" />
  </g><g
   id="g3223"
   transform="matrix(1.3669479,0,0,-1.3669479,-193.50645,505.921)">
   <path
   style="fill:#000000;fill-rule:nonzero"
   inkscape:connector-curvature="0"
   id="path3225"
   d="m 185.497,328.25 -2.40948,-2.40948 0,-7.01698 4.81897,0 0,7.01698 -2.40948,2.40948 z m 0,0 -2.40948,0 0,-2.40948 2.40948,2.40948 z m 7.0173,0 -7.0173,0 0,-4.81897 7.0173,0 0,4.81897 z"
   class="fil3" />
  </g><g
   id="g3227"
   transform="matrix(1.3669479,0,0,-1.3669479,-193.50645,505.921)">
   <path
   style="fill:#000000;fill-rule:nonzero"
   inkscape:connector-curvature="0"
   id="path3229"
   d="m 246.213,328.25 -2.40948,-2.40948 0,-7.01698 4.81897,0 0,7.01698 -2.40948,2.40948 z m 2.40948,-2.40948 0,2.40948 -2.40948,0 2.40948,-2.40948 z m -9.42678,2.40948 0,-4.81897 7.0173,0 0,4.81897 -7.0173,0 z"
   class="fil3" />
  </g><g
   id="g3231"
   transform="matrix(1.3669479,0,0,-1.3669479,-193.50645,491.90805)">
   <path
   style="fill:#000000;fill-rule:nonzero"
   inkscape:connector-curvature="0"
   id="path3233"
   d="m 185.497,262.691 2.40948,2.40948 0,7.0173 -4.81897,0 0,-7.0173 2.40948,-2.40948 z m -2.40948,2.40948 0,-2.40948 2.40948,0 -2.40948,2.40948 z m 9.42678,-2.40948 0,4.81897 -7.0173,0 0,-4.81897 7.0173,0 z"
   class="fil3" />
  </g><g
   id="g3235"
   transform="matrix(1.3669479,0,0,-1.3669479,-193.50645,491.90805)">
   <path
   style="fill:#000000;fill-rule:nonzero"
   inkscape:connector-curvature="0"
   id="path3237"
   d="m 246.213,262.691 2.40948,2.40948 0,7.0173 -4.81897,0 0,-7.0173 2.40948,-2.40948 z m 0,0 2.40948,0 0,2.40948 -2.40948,-2.40948 z m -7.0173,0 7.0173,0 0,4.81897 -7.0173,0 0,-4.81897 z"
   class="fil3" />
  </g><g
   id="g3245"
   transform="matrix(-1.3669479,0,0,-1.3669479,342.70468,406.8657)">
   <polygon
   style="fill:#000000"
   id="polygon3247"
   points="107.961,170.845 107.961,140.343 100.371,140.343 100.371,170.845 "
   class="fil13" />
   <path
   style="fill:#000000;fill-rule:nonzero"
   inkscape:connector-curvature="0"
   d="m 107.961,140.04 0.30123,0.30268 0,30.5018 -0.60246,0 0,-30.5018 0.30123,-0.30268 z m 0,0 0.30123,0 0,0.30268 L 107.961,140.04 z m -7.89063,0.30268 0.30123,-0.30268 7.5894,0 0,0.60536 -7.5894,0 -0.30123,-0.30268 z m 0,0 0,-0.30268 0.30123,0 -0.30123,0.30268 z m 0.30123,30.8044 -0.30123,-0.30268 0,-30.5018 0.60245,0 0,30.5018 -0.30122,0.30268 z m 0,0 -0.30123,0 0,-0.30268 0.30123,0.30268 z m 7.89063,-0.30268 -0.30123,0.30268 -7.5894,0 0,-0.60536 7.5894,0 0.30123,0.30268 z m 0,0 0,0.30268 -0.30123,0 0.30123,-0.30268 z"
   class="fil3"
   id="path3249" />
  </g>
<path
   style="opacity:0.5;fill:#00ff00;stroke:#008000;stroke-width:0.80588984px;stroke-linecap:butt;stroke-linejoin:miter;stroke-opacity:1"
   d="m 83.062252,174.24945 88.553998,0 23.005,19.54632 -23.00499,19.79799 -50.09205,0 z"
   id="path3116"
   inkscape:connector-curvature="0"
   sodipodi:nodetypes="cccccc" /><path
   style="opacity:0.5;fill:#00ff00;stroke:#008000;stroke-width:0.86231226px;stroke-linecap:butt;stroke-linejoin:miter;stroke-opacity:1"
   d="m 102.34372,93.07623 -11.366409,19.28082 -8.220122,27.24965 0.851181,138.12645 18.73535,26.97255 20.46811,-26.66978 -1.03966,-138.23203 -8.89802,-27.44684 z"
   id="path3886"
   inkscape:connector-curvature="0"
   sodipodi:nodetypes="ccccccccc" /><g
   id="g3167"
   transform="matrix(0.75995865,0,0,-1.3669479,-73.177774,491.90805)"
   style="opacity:0.5">
   <polygon
   style="fill:#8cace0"
   id="polygon3169"
   points="163.096,274.267 99.1478,274.267 99.1478,308.516 163.096,308.516 "
   class="fil6" />
   <polygon
   style="fill:none;stroke:#8cace0;stroke-width:0.123009"
   points="99.1478,308.516 163.096,308.516 163.096,274.267 99.1478,274.267 "
   class="fil7 str0"
   id="polygon3171" />
  </g><path
   inkscape:connector-curvature="0"
   mask="url(#id0)"
   id="path3173"
   d="m 268.642,273.931 c -7.39924,6.90172 -32.3027,15.0979 -52.7631,15.3399 -20.4603,0.24182 -45.364,-8.43819 -52.7629,-15.3399 l 0,34.9482 c 7.39892,-6.90204 32.3027,-15.7246 52.7629,-15.4826 20.4604,0.24182 45.3639,8.58057 52.7631,15.4826 l 0,-34.9482 z"
   style="opacity:0.5;fill:#8cace0"
   class="fil6"
   transform="matrix(0.95328089,0,0,-1.3669479,-104.71271,491.90805)" /><text
   xml:space="preserve"
   style="font-size:40.03699112px;font-style:normal;font-weight:normal;line-height:125%;letter-spacing:0px;word-spacing:0px;fill:#000000;fill-opacity:1;stroke:none;font-family:Sans"
   x="2.9572198"
   y="89.841446"
   id="text3888"
   sodipodi:linespacing="125%"><tspan
     sodipodi:role="line"
     id="tspan3890"
     x="2.9572198"
     y="89.841446"
     style="font-size:10.00924778px">lightsheet</tspan><tspan
     sodipodi:role="line"
     x="2.9572198"
     y="102.353"
     id="tspan3892"
     style="font-size:10.00924778px">objective</tspan></text>



<text
   xml:space="preserve"
   style="font-size:40.03699112px;font-style:normal;font-weight:normal;line-height:125%;letter-spacing:0px;word-spacing:0px;fill:#000000;fill-opacity:1;fill-rule:evenodd;stroke:none;font-family:Sans"
   x="164.21266"
   y="230.89966"
   id="text3888-1-0-8"
   sodipodi:linespacing="125%"><tspan
     sodipodi:role="line"
     x="164.21266"
     y="230.89966"
     style="font-size:10.00924778px;font-weight:bold;-inkscape-font-specification:Sans Bold"
     id="tspan3965">camera 1</tspan></text>



<rect
   style="opacity:0.75;fill:#ff0000;stroke:#000000;stroke-width:0.88243943;stroke-miterlimit:4;stroke-dasharray:none"
   id="rect4025"
   width="9.649806"
   height="46.186787"
   x="134.39905"
   y="170.65681" /><text
   xml:space="preserve"
   style="font-size:40.03699112px;font-style:normal;font-weight:normal;line-height:125%;letter-spacing:0px;word-spacing:0px;fill:#000000;fill-opacity:1;fill-rule:evenodd;stroke:none;font-family:Sans"
   x="-202.1832"
   y="142.71605"
   id="text3888-1-2"
   sodipodi:linespacing="125%"
   transform="matrix(0,-1,1,0,0,0)"><tspan
     sodipodi:role="line"
     x="-202.1832"
     y="142.71605"
     id="tspan3892-4-5"
     style="font-size:10.00924778px">filter</tspan></text>





<text
   xml:space="preserve"
   style="font-size:40.03699112px;font-style:normal;font-weight:normal;line-height:125%;letter-spacing:0px;word-spacing:0px;fill:#000000;fill-opacity:1;fill-rule:evenodd;stroke:none;font-family:Sans"
   x="-316.11172"
   y="71.922722"
   id="text3888-1-0-8-1"
   sodipodi:linespacing="125%"
   transform="matrix(0,-1,1,0,0,0)"><tspan
     sodipodi:role="line"
     x="-316.11172"
     y="71.922722"
     style="font-size:10.00924778px;font-weight:bold;-inkscape-font-specification:Sans Bold"
     id="tspan3965-4">camera 2</tspan></text>


<rect
   style="opacity:0.75;fill:#ffff00;fill-rule:evenodd;stroke:#000000;stroke-width:0.72084606;stroke-miterlimit:4;stroke-dasharray:none"
   id="rect4025-5-2"
   width="7.7078576"
   height="60.64867"
   x="64.695023"
   y="-240.21234"
   transform="matrix(-0.70710678,0.70710678,-0.70710678,-0.70710678,0,0)" /><text
   xml:space="preserve"
   style="font-size:40.03699112px;font-style:normal;font-weight:normal;line-height:125%;letter-spacing:0px;word-spacing:0px;fill:#000000;fill-opacity:1;fill-rule:evenodd;stroke:none;font-family:Sans"
   x="195.36665"
   y="71.808952"
   id="text3888-1-2-2-3"
   sodipodi:linespacing="125%"
   transform="matrix(0.70710678,0.70710678,-0.70710678,0.70710678,0,0)"><tspan
     sodipodi:role="line"
     x="195.36665"
     y="71.808952"
     id="tspan3892-4-5-7-2"
     style="font-size:10.00924778px">splitter</tspan></text>


<g
   id="g3269"
   transform="matrix(-1.3669479,0,0,-1.1015375,401.20678,364.52356)">
   <path
   style="fill:#cccccc;fill-opacity:0.74901997"
   inkscape:connector-curvature="0"
   id="path3271"
   d="m 167.811,129.082 c -6.19579,5.75122 -6.63843,45.371 0,51.7611 6.63843,-6.39015 6.19595,-46.0099 0,-51.7611 z"
   class="fil8" />
   <path
   style="fill:#000000;fill-opacity:0.74901997;fill-rule:nonzero"
   inkscape:connector-curvature="0"
   d="m 167.693,180.721 0.23601,0.2444 -0.23601,0 -0.62102,-0.71609 -0.57178,-0.89496 -0.52674,-1.06075 -0.48331,-1.2162 -0.4407,-1.35971 -0.40002,-1.49144 -0.35902,-1.61122 -0.31931,-1.71873 -0.27911,-1.8143 -0.23988,-1.89856 -0.20001,-1.96959 -0.16207,-2.02867 -0.12269,-2.07581 -0.0844,-2.11084 -0.0463,-2.13296 -0.008,-2.14313 0.0291,-2.14151 0.0665,-2.12779 0.10364,-2.10099 0.14044,-2.06257 0.17774,-2.01253 0.21357,-1.94828 0.25021,-1.87354 0.28621,-1.78701 0.32254,-1.68677 0.35789,-1.57506 0.39388,-1.45157 0.43005,-1.31661 0.46523,-1.16923 0.50318,-1.01103 0.54191,-0.84121 0.5847,-0.65895 0.23213,0.2486 -0.54337,0.61375 -0.51802,0.80375 -0.48832,0.98197 -0.45749,1.14663 -0.42327,1.29789 -0.38969,1.43704 -0.3553,1.56311 -0.31995,1.67611 -0.28492,1.77636 -0.24893,1.86547 -0.21357,1.94182 -0.17644,2.00446 -0.14044,2.05612 -0.10364,2.0955 -0.0665,2.12133 -0.0291,2.13602 0.008,2.13796 0.0463,2.12747 0.0844,2.10438 0.12269,2.06903 0.16078,2.02189 0.20001,1.96184 0.23859,1.8892 0.27782,1.80493 0.31672,1.70808 0.35644,1.59798 0.39582,1.47562 0.43553,1.34099 0.47396,1.1936 0.51189,1.03298 0.54918,0.8588 0.58227,0.67252 -0.23601,0 z m 0.23601,0.2444 -0.11801,0.11365 -0.118,-0.11365 0.23601,0 z m -0.002,-51.759 -0.23213,-0.2486 0.23213,0 0.5847,0.65895 0.54191,0.84121 0.50317,1.01103 0.4654,1.16923 0.43005,1.31661 0.39389,1.45157 0.35788,1.57506 0.32238,1.68677 0.28621,1.78701 0.25021,1.87354 0.21357,1.94828 0.17774,2.01253 0.14044,2.06257 0.10364,2.10099 0.0665,2.12779 0.0291,2.14151 -0.008,2.14313 -0.0463,2.13296 -0.0844,2.11084 -0.12269,2.07581 -0.16191,2.02867 -0.20017,1.96959 -0.23988,1.89856 -0.27911,1.8143 -0.31931,1.71873 -0.35902,1.61122 -0.40002,1.49144 -0.4407,1.35971 -0.48331,1.2162 -0.52674,1.06075 -0.57178,0.89496 -0.62102,0.7161 -0.23601,-0.24441 0.58227,-0.67251 0.54918,-0.8588 0.51189,-1.03298 0.47396,-1.1936 0.43553,-1.34099 0.39583,-1.47562 0.35643,-1.59798 0.31672,-1.70808 0.27782,-1.80493 0.23859,-1.8892 0.20017,-1.96184 0.16062,-2.02189 0.12269,-2.06903 0.0844,-2.10438 0.0463,-2.12747 0.008,-2.13796 -0.0291,-2.13602 -0.0665,-2.12133 -0.10364,-2.0955 -0.14044,-2.05612 -0.17645,-2.00446 -0.21357,-1.94182 -0.24892,-1.86547 -0.28492,-1.77636 -0.31979,-1.67611 -0.3553,-1.56311 -0.38969,-1.43704 -0.42327,-1.29789 -0.45765,-1.14663 -0.48832,-0.98197 -0.51802,-0.80375 -0.54337,-0.61375 0.23213,0 z m -0.23213,-0.2486 0.11606,-0.10767 0.11607,0.10767 -0.23213,0 z"
   class="fil10"
   id="path3273" />
  </g><text
   sodipodi:linespacing="125%"
   id="text3995"
   y="175.31602"
   x="-215.25365"
   style="font-size:40.03699112px;font-style:normal;font-weight:normal;line-height:125%;letter-spacing:0px;word-spacing:0px;fill:#000000;fill-opacity:1;fill-rule:evenodd;stroke:none;font-family:Sans"
   xml:space="preserve"
   transform="matrix(0,-1,1,0,0,0)"><tspan
     style="font-size:10.00924778px"
     id="tspan3997"
     y="175.31602"
     x="-215.25365"
     sodipodi:role="line">tube lens</tspan></text>


<g
   id="g3199"
   transform="matrix(1.0960044,0,0,-1.3669479,-134.61577,450.49082)">
   <path
   style="fill:#cccccc;fill-opacity:0.74901997"
   inkscape:connector-curvature="0"
   id="path3201"
   d="m 238.43,227.177 c -5.03819,7.83736 -39.7455,8.39687 -45.3435,0 5.59802,-8.39671 40.3053,-7.8372 45.3435,0 z"
   class="fil8" />
   <path
   style="fill:none;stroke:#000000;stroke-width:0.123009"
   inkscape:connector-curvature="0"
   d="m 238.43,227.177 c -5.03819,7.83736 -39.7455,8.39687 -45.3435,0 5.59802,-8.39671 40.3053,-7.8372 45.3435,0 z"
   class="fil7 str1"
   id="path3203" />
  </g><text
   xml:space="preserve"
   style="font-size:40.03699112px;font-style:normal;font-weight:normal;line-height:125%;letter-spacing:0px;word-spacing:0px;fill:#000000;fill-opacity:1;fill-rule:evenodd;stroke:none;font-family:Sans"
   x="81.215446"
   y="136.78207"
   id="text3888-1"
   sodipodi:linespacing="125%"><tspan
     sodipodi:role="line"
     id="tspan3890-7"
     x="81.215446"
     y="136.78207"
     style="font-size:10.00924778px">detection</tspan><tspan
     sodipodi:role="line"
     x="81.215446"
     y="149.29364"
     id="tspan3892-4"
     style="font-size:10.00924778px">objective</tspan></text>

<g
   id="g3193"
   transform="matrix(1.3669479,0,0,-1.3669479,-193.50645,491.90805)">
   <path
   style="fill:#cccccc;fill-opacity:0.74901997"
   inkscape:connector-curvature="0"
   id="path3195"
   d="m 224.03,277.738 c -1.81688,2.82597 -14.3316,3.02792 -16.3501,0 2.0185,-3.02775 14.5333,-2.82597 16.3501,0 z"
   class="fil8" />
   <path
   style="fill:#000000;fill-opacity:0.74901997;fill-rule:nonzero"
   inkscape:connector-curvature="0"
   d="m 207.822,277.833 0,-0.18887 0.20146,0.25247 0.26006,0.23956 0.31543,0.22568 0.36645,0.21018 0.41535,0.19452 0.45862,0.17741 0.49833,0.16062 0.53304,0.14303 0.565,0.12575 0.59212,0.10784 0.61553,0.0906 0.63441,0.0728 0.65007,0.0552 0.66089,0.0386 0.66848,0.0212 0.67267,0.004 0.6709,-0.0134 0.66718,-0.0303 0.65799,-0.0471 0.64587,-0.0634 0.62909,-0.0801 0.60907,-0.0967 0.58518,-0.11251 0.55628,-0.12898 0.52367,-0.14432 0.48703,-0.15949 0.44619,-0.17531 0.40148,-0.18936 0.35256,-0.20227 0.29945,-0.21486 0.24182,-0.22519 0.18306,-0.23375 0.28669,0.18403 -0.21889,0.28056 -0.27798,0.25845 -0.33012,0.23746 -0.37904,0.21841 -0.42439,0.20001 -0.46621,0.18209 -0.50414,0.16595 -0.53853,0.14851 -0.56952,0.13157 -0.59583,0.1151 -0.61972,0.098 -0.63974,0.0817 -0.65524,0.0647 -0.66735,0.0471 -0.67526,0.0303 -0.68026,0.0134 -0.67945,-0.004 -0.67751,-0.0212 -0.67026,-0.0386 -0.65943,-0.0565 -0.64507,-0.0744 -0.62618,-0.0919 -0.60439,-0.11042 -0.57824,-0.12833 -0.54918,-0.14723 -0.51544,-0.16578 -0.47863,-0.18548 -0.43796,-0.20518 -0.39453,-0.22632 -0.34611,-0.24828 -0.29363,-0.27152 -0.2373,-0.29639 0,-0.18887 0.28411,0.18952 z m -0.28411,-6.5e-4 -0.063,-0.0944 0.063,-0.0944 0,0.18887 z m 16.3488,-0.18612 0,0.18403 -0.18306,-0.23375 -0.24182,-0.2252 -0.29945,-0.21486 -0.35256,-0.20227 -0.40148,-0.18935 -0.44619,-0.17531 -0.48703,-0.15933 -0.52367,-0.14448 -0.55628,-0.12898 -0.58518,-0.11252 -0.60907,-0.0967 -0.62909,-0.0799 -0.64588,-0.0634 -0.65798,-0.0473 -0.66718,-0.0303 -0.6709,-0.0132 -0.67267,0.004 -0.66848,0.0211 -0.66089,0.0384 -0.65007,0.0554 -0.63441,0.0728 -0.61553,0.0906 -0.59212,0.10783 -0.565,0.12576 -0.53304,0.14286 -0.49833,0.16062 -0.45862,0.17741 -0.41535,0.19452 -0.36645,0.21018 -0.31543,0.22568 -0.26006,0.23956 -0.20146,0.25312 -0.28411,-0.18952 0.2373,-0.29574 0.29363,-0.27152 0.34611,-0.24828 0.39453,-0.22632 0.43795,-0.20517 0.47864,-0.18549 0.51544,-0.16578 0.54918,-0.14706 0.57824,-0.12834 0.60439,-0.11042 0.62618,-0.0918 0.64507,-0.0744 0.65943,-0.0567 0.67025,-0.0384 0.67752,-0.0211 0.67945,-0.004 0.68026,0.0132 0.67526,0.0303 0.66735,0.0473 0.65523,0.0647 0.63975,0.0815 0.61972,0.098 0.59583,0.11509 0.56952,0.13157 0.53853,0.14867 0.50414,0.16579 0.46621,0.18209 0.42439,0.20001 0.37904,0.21842 0.33012,0.23746 0.27798,0.25844 0.21889,0.28057 0,0.18403 -0.28669,-0.18403 z m 0.28669,0 0.0591,0.092 -0.0591,0.092 0,-0.18403 z"
   class="fil10"
   id="path3197" />
  </g><g
   id="g3851"
   transform="translate(2.0136916,0.01629795)"><path
     transform="matrix(0.92760291,0,0,0.93284019,6.5275676,2.1778019)"
     d="m 110.20031,22.061825 c 0,5.481356 -4.44352,9.924873 -9.92487,9.924873 -5.48136,0 -9.924877,-4.443517 -9.924877,-9.924873 0,-5.481356 4.443517,-9.924874 9.924877,-9.924874 5.48135,0 9.92487,4.443518 9.92487,9.924874 z"
     sodipodi:ry="9.9248734"
     sodipodi:rx="9.9248734"
     sodipodi:cy="22.061825"
     sodipodi:cx="100.27544"
     id="path3063"
     style="fill:url(#linearGradient3856);fill-opacity:1;stroke:#000000;stroke-width:1.07601118;stroke-miterlimit:4;stroke-dasharray:none;stroke-dashoffset:0"
     sodipodi:type="arc" /><path
     transform="matrix(1.0009248,0,0,1.0009248,-0.09710647,0)"
     inkscape:connector-curvature="0"
     id="path3065"
     d="M 93.088465,16.243796 106.09347,29.248802"
     style="fill:none;stroke:#000000;stroke-width:1px;stroke-linecap:butt;stroke-linejoin:miter;stroke-opacity:1" /><path
     style="fill:none;stroke:#000000;stroke-width:1.00092483px;stroke-linecap:butt;stroke-linejoin:miter;stroke-opacity:1"
     d="M 106.09448,16.258818 93.077447,29.275851"
     id="path3067"
     inkscape:connector-curvature="0" /></g><rect
   transform="matrix(0,1,-1,0,0,0)"
   y="-120.17861"
   x="36.525185"
   height="37.243134"
   width="9.649806"
   id="rect3858"
   style="opacity:0.75;fill:#00ffff;fill-rule:evenodd;stroke:#000000;stroke-width:1.00092483;stroke-miterlimit:4;stroke-dasharray:none" /><text
   sodipodi:linespacing="125%"
   id="text3860"
   y="44.842155"
   x="88.346413"
   style="font-size:40.03699112px;font-style:normal;font-weight:normal;line-height:125%;letter-spacing:0px;word-spacing:0px;fill:#000000;fill-opacity:1;fill-rule:evenodd;stroke:none;font-family:Sans"
   xml:space="preserve"><tspan
     style="font-size:10.00924778px"
     id="tspan3862"
     y="44.842155"
     x="88.346413"
     sodipodi:role="line">filter T</tspan></text>

<path
   style="fill:none;stroke:#000000;stroke-width:1.00092483px;stroke-linecap:butt;stroke-linejoin:miter;stroke-opacity:1"
   d="M 82.382359,37.272727 C 83.417252,-1.3454655 121.33354,2.0558983 120.50311,36.579623"
   id="path3864"
   inkscape:connector-curvature="0"
   sodipodi:nodetypes="cc" /><text
   sodipodi:linespacing="125%"
   id="text3866"
   y="23.054079"
   x="126.02264"
   style="font-size:40.03699112px;font-style:normal;font-weight:normal;line-height:125%;letter-spacing:0px;word-spacing:0px;fill:#000000;fill-opacity:1;fill-rule:evenodd;stroke:none;font-family:Sans"
   xml:space="preserve"><tspan
     id="tspan3868"
     style="font-size:10.00924778px;font-weight:bold;-inkscape-font-specification:Sans Bold"
     y="23.054079"
     x="126.02264"
     sodipodi:role="line">trans-</tspan><tspan
     style="font-size:10.00924778px;font-weight:bold;-inkscape-font-specification:Sans Bold"
     y="35.565639"
     x="126.02264"
     sodipodi:role="line"
     id="tspan3870">illumination</tspan></text>

<rect
   y="-125.5717"
   x="240.20096"
   height="46.186787"
   width="9.649806"
   id="rect3087"
   style="opacity:0.75000000000000000;fill:#00ff00;stroke:#000000;stroke-width:0.88243943000000002;stroke-miterlimit:4;stroke-dasharray:none"
   transform="matrix(0,1,-1,0,0,0)" /><text
   sodipodi:linespacing="125%"
   id="text3089"
   y="248.51796"
   x="91.966011"
   style="font-size:40.03699112px;font-style:normal;font-weight:normal;line-height:125%;letter-spacing:0px;word-spacing:0px;fill:#000000;fill-opacity:1;fill-rule:evenodd;stroke:none;font-family:Sans"
   xml:space="preserve"><tspan
     style="font-size:10.00924778px"
     id="tspan3091"
     y="248.51796"
     x="91.966011"
     sodipodi:role="line">filter</tspan></text>
<g
   transform="matrix(0,-1.3669479,1.1015375,0,-68.295034,507.00868)"
   id="g3093">
   <path
   class="fil8"
   d="m 167.811,129.082 c -6.19579,5.75122 -6.63843,45.371 0,51.7611 6.63843,-6.39015 6.19595,-46.0099 0,-51.7611 z"
   id="path3095"
   inkscape:connector-curvature="0"
   style="fill:#cccccc;fill-opacity:0.74901997" />
   <path
   id="path3097"
   class="fil10"
   d="m 167.693,180.721 0.23601,0.2444 -0.23601,0 -0.62102,-0.71609 -0.57178,-0.89496 -0.52674,-1.06075 -0.48331,-1.2162 -0.4407,-1.35971 -0.40002,-1.49144 -0.35902,-1.61122 -0.31931,-1.71873 -0.27911,-1.8143 -0.23988,-1.89856 -0.20001,-1.96959 -0.16207,-2.02867 -0.12269,-2.07581 -0.0844,-2.11084 -0.0463,-2.13296 -0.008,-2.14313 0.0291,-2.14151 0.0665,-2.12779 0.10364,-2.10099 0.14044,-2.06257 0.17774,-2.01253 0.21357,-1.94828 0.25021,-1.87354 0.28621,-1.78701 0.32254,-1.68677 0.35789,-1.57506 0.39388,-1.45157 0.43005,-1.31661 0.46523,-1.16923 0.50318,-1.01103 0.54191,-0.84121 0.5847,-0.65895 0.23213,0.2486 -0.54337,0.61375 -0.51802,0.80375 -0.48832,0.98197 -0.45749,1.14663 -0.42327,1.29789 -0.38969,1.43704 -0.3553,1.56311 -0.31995,1.67611 -0.28492,1.77636 -0.24893,1.86547 -0.21357,1.94182 -0.17644,2.00446 -0.14044,2.05612 -0.10364,2.0955 -0.0665,2.12133 -0.0291,2.13602 0.008,2.13796 0.0463,2.12747 0.0844,2.10438 0.12269,2.06903 0.16078,2.02189 0.20001,1.96184 0.23859,1.8892 0.27782,1.80493 0.31672,1.70808 0.35644,1.59798 0.39582,1.47562 0.43553,1.34099 0.47396,1.1936 0.51189,1.03298 0.54918,0.8588 0.58227,0.67252 -0.23601,0 z m 0.23601,0.2444 -0.11801,0.11365 -0.118,-0.11365 0.23601,0 z m -0.002,-51.759 -0.23213,-0.2486 0.23213,0 0.5847,0.65895 0.54191,0.84121 0.50317,1.01103 0.4654,1.16923 0.43005,1.31661 0.39389,1.45157 0.35788,1.57506 0.32238,1.68677 0.28621,1.78701 0.25021,1.87354 0.21357,1.94828 0.17774,2.01253 0.14044,2.06257 0.10364,2.10099 0.0665,2.12779 0.0291,2.14151 -0.008,2.14313 -0.0463,2.13296 -0.0844,2.11084 -0.12269,2.07581 -0.16191,2.02867 -0.20017,1.96959 -0.23988,1.89856 -0.27911,1.8143 -0.31931,1.71873 -0.35902,1.61122 -0.40002,1.49144 -0.4407,1.35971 -0.48331,1.2162 -0.52674,1.06075 -0.57178,0.89496 -0.62102,0.7161 -0.23601,-0.24441 0.58227,-0.67251 0.54918,-0.8588 0.51189,-1.03298 0.47396,-1.1936 0.43553,-1.34099 0.39583,-1.47562 0.35643,-1.59798 0.31672,-1.70808 0.27782,-1.80493 0.23859,-1.8892 0.20017,-1.96184 0.16062,-2.02189 0.12269,-2.06903 0.0844,-2.10438 0.0463,-2.12747 0.008,-2.13796 -0.0291,-2.13602 -0.0665,-2.12133 -0.10364,-2.0955 -0.14044,-2.05612 -0.17645,-2.00446 -0.21357,-1.94182 -0.24892,-1.86547 -0.28492,-1.77636 -0.31979,-1.67611 -0.3553,-1.56311 -0.38969,-1.43704 -0.42327,-1.29789 -0.45765,-1.14663 -0.48832,-0.98197 -0.51802,-0.80375 -0.54337,-0.61375 0.23213,0 z m -0.23213,-0.2486 0.11606,-0.10767 0.11607,0.10767 -0.23213,0 z"
   inkscape:connector-curvature="0"
   style="fill:#000000;fill-opacity:0.74901997;fill-rule:nonzero" />
  </g><text
   xml:space="preserve"
   style="font-size:40.03699112px;font-style:normal;font-weight:normal;line-height:125%;letter-spacing:0px;word-spacing:0px;fill:#000000;fill-opacity:1;fill-rule:evenodd;stroke:none;font-family:Sans"
   x="80.974869"
   y="281.11792"
   id="text3099"
   sodipodi:linespacing="125%"><tspan
     sodipodi:role="line"
     x="80.974869"
     y="281.11792"
     id="tspan3101"
     style="font-size:10.00924778px">tube lens</tspan></text>
<rect
   transform="matrix(0,1,-1,0,0,0)"
   style="opacity:0.75000000000000000;fill:#008080;stroke:#000000;stroke-width:0.88243943000000002;stroke-miterlimit:4;stroke-dasharray:none"
   id="rect3103"
   width="9.649806"
   height="46.186787"
   x="154.18857"
   y="-125.5717" /><text
   xml:space="preserve"
   style="font-size:40.03699112px;font-style:normal;font-weight:normal;line-height:125%;letter-spacing:0px;word-spacing:0px;fill:#000000;fill-opacity:1;fill-rule:evenodd;stroke:none;font-family:Sans"
   x="88.26265"
   y="162.50557"
   id="text3105"
   sodipodi:linespacing="125%"><tspan
     sodipodi:role="line"
     x="88.26265"
     y="162.50557"
     id="tspan3107"
     style="font-size:10.00924778px">filter D</tspan></text>
</svg>